<?xml version="1.0" encoding="UTF-8" standalone="no"?>
<!-- Created with Inkscape (http://www.inkscape.org/) -->

<svg
   width="50mm"
   height="50mm"
   viewBox="0 0 50 50"
   version="1.1"
   id="svg5"
   inkscape:version="1.4.3 (0d15f75, 2025-12-25)"
   sodipodi:docname="A Little Extra.svg"
   inkscape:export-filename="circle50x50.png"
   inkscape:export-xdpi="96"
   inkscape:export-ydpi="96"
   xml:space="preserve"
   xmlns:inkscape="http://www.inkscape.org/namespaces/inkscape"
   xmlns:sodipodi="http://sodipodi.sourceforge.net/DTD/sodipodi-0.dtd"
   xmlns="http://www.w3.org/2000/svg"
   xmlns:svg="http://www.w3.org/2000/svg"><sodipodi:namedview
     id="namedview7"
     pagecolor="#505050"
     bordercolor="#eeeeee"
     borderopacity="1"
     inkscape:showpageshadow="0"
     inkscape:pageopacity="0"
     inkscape:pagecheckerboard="0"
     inkscape:deskcolor="#505050"
     inkscape:document-units="mm"
     showgrid="false"
     inkscape:zoom="2.0888418"
     inkscape:cx="142.90216"
     inkscape:cy="157.26418"
     inkscape:window-width="1920"
     inkscape:window-height="1009"
     inkscape:window-x="-8"
     inkscape:window-y="-8"
     inkscape:window-maximized="1"
     inkscape:current-layer="layer1" /><defs
     id="defs2" /><g
     inkscape:label="Layer 1"
     inkscape:groupmode="layer"
     id="layer1"><path
       style="baseline-shift:baseline;display:inline;overflow:visible;vector-effect:none;fill:currentColor;enable-background:accumulate;stop-color:#000000;stop-opacity:1;opacity:1;fill-opacity:1"
       d="M 25,1.5117187 C 12.034381,1.5117187 1.5117188,12.034381 1.5117187,25 1.5117188,37.965619 12.034381,48.488281 25,48.488281 37.965619,48.488281 48.488281,37.965619 48.488281,25 48.488281,12.034381 37.965619,1.5117188 25,1.5117187 Z m 0,1.1191407 C 37.360866,2.6308594 47.369141,12.639134 47.369141,25 47.369141,37.360866 37.360866,47.369141 25,47.369141 12.639134,47.369141 2.6308594,37.360866 2.6308594,25 2.6308594,12.639134 12.639134,2.6308594 25,2.6308594 Z"
       id="path362" /><path
       style="fill:currentColor;stroke-width:1.62799;fill-opacity:1;stroke:none;stroke-opacity:1"
       d="m 30.88678,37.369041 c 0,-0.142482 -0.365367,-0.386438 -0.811928,-0.542109 -0.921863,-0.321363 -1.990568,-1.273583 -2.71522,-2.419271 L 26.86654,33.628075 v -2.272222 -2.272224 l 0.43074,-0.357481 c 0.236907,-0.196616 0.430741,-0.513588 0.430741,-0.704382 0,-0.190795 0.570317,-0.756472 1.267374,-1.257059 l 1.267373,-0.91016 h 2.289303 c 1.361067,0 2.592177,0.157134 3.03628,0.387538 1.086532,0.5637 2.46753,2.236641 2.472844,2.995605 0.0024,0.360317 0.198419,0.729504 0.435327,0.820413 0.29017,0.111355 0.430739,0.566945 0.430739,1.396065 0,0.829119 -0.14056,1.284717 -0.430739,1.396065 -0.236908,0.09091 -0.43074,0.471379 -0.43074,0.845487 0,0.742287 -2.246912,3.070909 -2.963152,3.070909 -0.226845,0 -0.573313,0.193833 -0.769929,0.43074 -0.393641,0.474308 -3.445921,0.626369 -3.445921,0.171672 z m 2.815546,-3.545802 0.08752,-1.364011 h 1.2855 1.285498 l 0.172319,-0.449052 c 0.09478,-0.246979 0.02888,-0.763867 -0.146438,-1.14864 l -0.318753,-0.699588 h -1.137464 -1.137461 l -0.08913,-1.07685 -0.08913,-1.076851 h -1.148646 -1.148639 l -0.0435,0.717901 c -0.02392,0.394844 -0.05623,0.871626 -0.0718,1.059514 -0.01563,0.187889 -0.51288,0.381723 -1.105147,0.430742 l -1.07685,0.08913 v 1.00506 1.005059 l 1.07685,0.08913 c 1.050508,0.08695 1.194929,0.253788 1.093779,1.263607 -0.02707,0.270188 0.09586,0.762317 0.27317,1.093621 l 0.322379,0.602371 0.914191,-0.08856 0.914191,-0.08856 z m -21.839385,2.414606 -0.789176,-0.476276 -5.14e-4,-7.250791 -5.13e-4,-7.250791 h 4.433646 4.433646 l 0.08913,1.07685 0.08912,1.07685 3.405194,0.08117 c 3.741646,0.0892 4.204548,-0.06589 4.204548,-1.408553 v -0.826318 h 4.02024 4.020241 v 1.435799 c 0,1.477707 -0.238396,1.755833 -0.86148,1.005061 l -0.357484,-0.43074 H 32.573541 30.59754 l -0.93223,0.510552 c -2.204958,1.207587 -3.426666,2.240418 -4.280054,3.618354 l -0.910848,1.470714 0.008,2.606057 0.008,2.606059 0.440333,0.696283 c 0.242184,0.382955 0.527109,0.987031 0.633166,1.342393 l 0.192831,0.64611 -6.552241,-0.02626 -6.552242,-0.02626 z M 22.671807,20.922809 c -0.114611,-0.185448 -0.208388,-1.799253 -0.208388,-1.36401 v -1.026833 h 1.411871 1.41187 l -0.02368,1.026418 c -0.01302,0.564527 -0.117557,1.178333 -0.232316,1.364009 -0.270756,0.438092 -2.088666,0.438413 -2.359363,4.16e-4 z m -11.240119,-3.011764 -0.35895,-0.144842 v -2.704091 -2.70409 h 12.347881 12.347883 v 2.871601 2.8716 h -4.002907 -4.002906 l -0.08912,-1.076851 -0.08913,-1.07685 h -3.73308 -3.733081 l -0.08912,1.07685 -0.08913,1.076851 -4.074696,-0.02268 c -2.241081,-0.01254 -4.236223,-0.08785 -4.433646,-0.167509 z"
       id="path1" /></g></svg>
