<?xml version="1.0" encoding="UTF-8" standalone="no"?>
<!-- Created with Inkscape (http://www.inkscape.org/) -->

<svg
   width="50mm"
   height="50mm"
   viewBox="0 0 50 50"
   version="1.1"
   id="svg5"
   inkscape:version="1.4.3 (0d15f75, 2025-12-25)"
   sodipodi:docname="Back On Your Feet.svg"
   inkscape:export-filename="circle50x50.png"
   inkscape:export-xdpi="96"
   inkscape:export-ydpi="96"
   xml:space="preserve"
   xmlns:inkscape="http://www.inkscape.org/namespaces/inkscape"
   xmlns:sodipodi="http://sodipodi.sourceforge.net/DTD/sodipodi-0.dtd"
   xmlns="http://www.w3.org/2000/svg"
   xmlns:svg="http://www.w3.org/2000/svg"><sodipodi:namedview
     id="namedview7"
     pagecolor="#505050"
     bordercolor="#eeeeee"
     borderopacity="1"
     inkscape:showpageshadow="0"
     inkscape:pageopacity="0"
     inkscape:pagecheckerboard="0"
     inkscape:deskcolor="#505050"
     inkscape:document-units="mm"
     showgrid="false"
     inkscape:zoom="2.0888418"
     inkscape:cx="142.90216"
     inkscape:cy="157.26418"
     inkscape:window-width="1920"
     inkscape:window-height="1009"
     inkscape:window-x="-8"
     inkscape:window-y="-8"
     inkscape:window-maximized="1"
     inkscape:current-layer="layer1" /><defs
     id="defs2" /><g
     inkscape:label="Layer 1"
     inkscape:groupmode="layer"
     id="layer1"><circle
       style="fill:none;stroke:#ffffff;stroke-width:1.119;stroke-opacity:1"
       id="path362"
       cx="25"
       cy="25"
       r="22.928829" /><path
       style="fill:#ffffff;fill-opacity:1;stroke-width:1.58861"
       d="m 19.095246,31.801043 c -3.115349,-3.310234 -5.94093,-6.431115 -6.279067,-6.935291 -2.043467,-3.046903 -1.646564,-6.961475 0.999364,-9.856542 2.657696,-2.907945 6.193802,-3.622212 9.49741,-1.918408 l 1.687048,0.870077 1.687045,-0.870077 c 3.303608,-1.703804 6.839714,-0.989537 9.497411,1.918408 2.645929,2.895067 3.04283,6.809639 0.999363,9.856542 -0.790662,1.178913 -11.865654,12.953898 -12.183819,12.953898 -0.132268,0 -2.789404,-2.708373 -5.904755,-6.018607 z m 8.706891,0.08426 c 1.464117,-1.566556 2.945749,-3.229469 3.292513,-3.695362 1.287749,-1.730149 0.498459,-4.556842 -1.506285,-5.394479 -1.283978,-0.536479 -2.393447,-0.29518 -3.62843,0.789151 l -0.959934,0.842832 -0.959935,-0.842832 c -1.234985,-1.084331 -2.344453,-1.32563 -3.628431,-0.789151 -2.113047,0.882888 -2.802202,3.688407 -1.366178,5.561649 0.886398,1.156276 5.744524,6.35 5.954544,6.365882 0.07706,0.0059 1.33802,-1.271134 2.802136,-2.83769 z M 16.10174,25.069923 c 0.118114,-0.617886 0.03736,-0.700534 -0.684404,-0.700534 -0.81741,0 -0.83917,0.155669 -0.146884,1.050801 0.413885,0.535155 0.683763,0.421439 0.831284,-0.350267 z m 18.926099,-0.0854 0.408428,-0.615124 h -0.835962 -0.835961 l 0.13616,0.71225 c 0.156446,0.818371 0.541501,0.785197 1.127342,-0.09713 z M 17.811605,21.976445 19.16973,20.726609 H 16.200376 13.23102 v 0.542185 c 0,0.298203 0.122975,0.865635 0.273278,1.260962 l 0.273279,0.718777 1.337951,-0.01112 1.337951,-0.01112 z m 18.684096,0.553311 C 36.646,22.134429 36.768979,21.566997 36.768979,21.268794 V 20.726609 H 33.799624 30.83027 l 1.358124,1.249836 1.358127,1.249835 1.337951,0.01112 1.337951,0.01112 z M 25.560427,21.006822 c 0.315186,-0.203688 0.175006,-0.271631 -0.560426,-0.271631 -0.735435,0 -0.875614,0.06794 -0.560428,0.271631 0.231176,0.149393 0.483369,0.271632 0.560428,0.271632 0.07706,0 0.329251,-0.122228 0.560426,-0.271632 z M 36.595448,18.835166 C 36.494127,18.411342 36.298151,17.84391 36.15993,17.574204 L 35.908619,17.083829 H 25.000001 14.09138 l -0.251311,0.490375 c -0.138225,0.269706 -0.334203,0.837138 -0.435518,1.260962 l -0.184208,0.770587 H 25.000001 36.779656 Z M 24.157444,15.89292 c -0.0057,-1.037993 -3.429821,-2.336227 -5.279468,-2.001661 -1.735941,0.313999 -3.849479,1.579627 -3.522207,2.109165 0.253404,0.410018 8.803933,0.30558 8.801675,-0.107502 z m 10.486787,0.107502 c 0.327271,-0.529537 -1.786266,-1.795165 -3.522208,-2.109164 -1.849646,-0.334567 -5.273793,0.963667 -5.279466,2.001661 -0.0022,0.413084 8.548269,0.517521 8.801674,0.107501 z"
       id="path1" /></g></svg>
