<?xml version="1.0" encoding="UTF-8" standalone="no"?>
<!-- Created with Inkscape (http://www.inkscape.org/) -->

<svg
   width="50mm"
   height="50mm"
   viewBox="0 0 50 50"
   version="1.1"
   id="svg5"
   inkscape:version="1.4.3 (0d15f75, 2025-12-25)"
   sodipodi:docname="Blast-Born.svg"
   inkscape:export-filename="circle50x50.png"
   inkscape:export-xdpi="96"
   inkscape:export-ydpi="96"
   xml:space="preserve"
   xmlns:inkscape="http://www.inkscape.org/namespaces/inkscape"
   xmlns:sodipodi="http://sodipodi.sourceforge.net/DTD/sodipodi-0.dtd"
   xmlns="http://www.w3.org/2000/svg"
   xmlns:svg="http://www.w3.org/2000/svg"><sodipodi:namedview
     id="namedview7"
     pagecolor="#505050"
     bordercolor="#eeeeee"
     borderopacity="1"
     inkscape:showpageshadow="0"
     inkscape:pageopacity="0"
     inkscape:pagecheckerboard="0"
     inkscape:deskcolor="#505050"
     inkscape:document-units="mm"
     showgrid="false"
     inkscape:zoom="2.0888418"
     inkscape:cx="142.90216"
     inkscape:cy="157.26418"
     inkscape:window-width="1920"
     inkscape:window-height="1009"
     inkscape:window-x="-8"
     inkscape:window-y="-8"
     inkscape:window-maximized="1"
     inkscape:current-layer="layer1" /><defs
     id="defs2" /><g
     inkscape:label="Layer 1"
     inkscape:groupmode="layer"
     id="layer1"><path
       style="baseline-shift:baseline;display:inline;overflow:visible;vector-effect:none;fill:currentColor;enable-background:accumulate;stop-color:#000000;stop-opacity:1;opacity:1"
       d="M 25,1.5117187 C 12.034381,1.5117187 1.5117188,12.034381 1.5117187,25 1.5117188,37.965619 12.034381,48.488281 25,48.488281 37.965619,48.488281 48.488281,37.965619 48.488281,25 48.488281,12.034381 37.965619,1.5117188 25,1.5117187 Z m 0,1.1191407 C 37.360866,2.6308594 47.369141,12.639134 47.369141,25 47.369141,37.360866 37.360866,47.369141 25,47.369141 12.639134,47.369141 2.6308594,37.360866 2.6308594,25 2.6308594,12.639134 12.639134,2.6308594 25,2.6308594 Z"
       id="path362" /><path
       style="fill:currentColor;stroke-width:1.62799;fill-opacity:1;stroke:none;stroke-opacity:1"
       d="m 22.494669,38.178778 c -5.431795,-1.00313 -9.848689,-5.530221 -10.722203,-10.98971 -0.189829,-1.186438 -0.167095,-3.539057 0.0449,-4.646619 1.039295,-5.429723 5.291005,-9.681433 10.720728,-10.720728 1.107562,-0.211996 3.460182,-0.234731 4.646619,-0.0449 5.58308,0.893288 10.150151,5.460359 11.043439,11.043439 0.171572,1.072328 0.171572,3.296482 0,4.36881 -0.438041,2.73777 -1.729751,5.22651 -3.77334,7.270099 -2.016628,2.016628 -4.411808,3.271911 -7.197327,3.772025 -1.018106,0.182792 -3.645799,0.153875 -4.762818,-0.05241 z m 5.079945,-0.651599 c 2.456106,-0.502734 4.554772,-1.650498 6.420305,-3.511275 l 1.220697,-1.217584 -0.513978,-0.08974 c -0.282687,-0.04936 -2.549796,-0.253787 -5.038018,-0.454282 -2.488223,-0.200496 -4.511249,-0.37733 -4.495614,-0.392965 0.01564,-0.01564 1.473229,-0.206807 3.239097,-0.424826 6.145037,-0.758686 8.083957,-1.055415 8.249717,-1.262519 0.329414,-0.411579 1.13918,-3.316561 0.952874,-3.418371 -0.04465,-0.0244 -2.104966,0.199682 -4.578483,0.497958 -2.473517,0.298276 -4.512645,0.530183 -4.531394,0.515347 -0.01875,-0.01484 2.011937,-1.20258 4.512637,-2.639434 l 4.546728,-2.612462 -0.169244,-0.715719 c -0.255237,-1.079375 -0.778385,-2.260045 -0.993588,-2.242388 -0.146646,0.01203 -8.631961,5.781083 -10.625073,7.223843 -0.579117,0.419207 -0.220903,0.0317 5.009861,-5.419501 2.226947,-2.320798 4.070302,-4.278407 4.096345,-4.350242 0.02604,-0.07184 -0.349804,-0.533384 -0.835214,-1.025666 -0.934355,-0.947586 -2.55372,-2.106866 -3.523969,-2.522764 l -0.582771,-0.249804 -2.087056,3.999646 c -3.370441,6.459132 -4.253982,8.118442 -4.257904,7.996441 -0.0043,-0.133907 1.726028,-6.583951 2.743843,-10.228041 0.430075,-1.5398 0.650294,-2.535405 0.571571,-2.584058 -0.395046,-0.244152 -4.055956,-0.19201 -4.309343,0.06138 -0.03335,0.03335 -0.45995,2.849946 -0.947995,6.259097 -0.488046,3.409151 -0.906471,6.217573 -0.929833,6.240935 -0.02336,0.02336 -0.350117,-2.486805 -0.72612,-5.578151 -0.376004,-3.091346 -0.720321,-5.662856 -0.76515,-5.714466 -0.232419,-0.267574 -3.864313,2.597343 -3.864313,3.048254 0,0.08836 0.666196,2.026813 1.480435,4.307665 0.814239,2.280854 1.461688,4.165753 1.438776,4.188665 -0.02291,0.02291 -0.843453,-1.66234 -1.823424,-3.745005 -0.979971,-2.082665 -1.827216,-3.786663 -1.882768,-3.786663 -0.190678,0 -1.140528,1.749989 -1.531874,2.822303 -0.603498,1.653623 -0.790089,2.714507 -0.791803,4.501878 -0.0025,2.601885 0.643341,4.820183 2.031286,6.976998 0.785031,1.21991 2.694558,3.094544 3.940271,3.868269 2.778829,1.725961 6.154381,2.331453 9.350486,1.677249 z M 18.537385,34.59279 c -1.148981,-0.428413 -1.971713,-1.223108 -2.336421,-2.256801 -0.278547,-0.789487 -0.246484,-2.001417 0.07158,-2.705527 0.290801,-0.643762 1.02567,-1.465922 1.561807,-1.747326 0.349173,-0.183272 0.350303,-0.182476 0.221594,0.156053 l -0.129368,0.340263 0.774237,-0.0876 0.774237,-0.0876 v 0.7131 0.7131 h 0.614371 c 0.578518,0 0.656524,0.04312 1.336705,0.738843 0.397283,0.406363 0.904784,1.105248 1.127779,1.553077 0.456267,0.916296 0.445176,0.966966 -0.394848,1.803948 -0.870018,0.866867 -2.545518,1.267719 -3.621672,0.86646 z m 4.21701,-4.917979 c -0.206501,-1.31238 -0.254083,-1.17344 0.47612,-1.390286 0.36501,-0.108397 0.700406,-0.153473 0.745324,-0.10017 0.117304,0.139202 0.782321,1.731807 0.739275,1.770441 -0.01982,0.01779 -0.451601,0.07324 -0.959508,0.123221 l -0.923468,0.09087 z M 19.989028,27.77669 c 0,-0.265311 1.519316,-2.837476 1.617836,-2.738956 0.03214,0.03214 -0.249802,1.638207 -0.390023,2.22176 -0.05323,0.221522 -0.895165,0.829035 -1.148937,0.829035 -0.04338,0 -0.07888,-0.140328 -0.07888,-0.311839 z"
       id="path1" /></g></svg>
