<?xml version="1.0" encoding="UTF-8" standalone="no"?>
<!-- Created with Inkscape (http://www.inkscape.org/) -->

<svg
   width="50mm"
   height="50mm"
   viewBox="0 0 50 50"
   version="1.1"
   id="svg5"
   inkscape:version="1.4.3 (0d15f75, 2025-12-25)"
   sodipodi:docname="Downed But Determined.svg"
   inkscape:export-filename="circle50x50.png"
   inkscape:export-xdpi="96"
   inkscape:export-ydpi="96"
   xml:space="preserve"
   xmlns:inkscape="http://www.inkscape.org/namespaces/inkscape"
   xmlns:sodipodi="http://sodipodi.sourceforge.net/DTD/sodipodi-0.dtd"
   xmlns="http://www.w3.org/2000/svg"
   xmlns:svg="http://www.w3.org/2000/svg"><sodipodi:namedview
     id="namedview7"
     pagecolor="#505050"
     bordercolor="#eeeeee"
     borderopacity="1"
     inkscape:showpageshadow="0"
     inkscape:pageopacity="0"
     inkscape:pagecheckerboard="0"
     inkscape:deskcolor="#505050"
     inkscape:document-units="mm"
     showgrid="false"
     inkscape:zoom="2.0888418"
     inkscape:cx="142.90216"
     inkscape:cy="157.26418"
     inkscape:window-width="1920"
     inkscape:window-height="1009"
     inkscape:window-x="-8"
     inkscape:window-y="-8"
     inkscape:window-maximized="1"
     inkscape:current-layer="layer1" /><defs
     id="defs2" /><g
     inkscape:label="Layer 1"
     inkscape:groupmode="layer"
     id="layer1"><circle
       style="fill:none;stroke:#ffffff;stroke-width:1.119;stroke-opacity:1"
       id="path362"
       cx="25"
       cy="25"
       r="22.928829" /><path
       style="fill:#ffffff;fill-opacity:1;stroke-width:1.6078"
       d="m 18.755433,31.635071 c -3.179377,-3.353548 -6.166276,-6.841536 -6.637554,-7.751082 -1.232661,-2.378978 -0.70829,-6.765991 1.031314,-8.628216 2.951079,-3.159096 6.15014,-3.807046 9.745691,-1.973931 2.06514,1.052869 2.145093,1.052869 4.210233,0 3.595551,-1.833115 6.794612,-1.185165 9.745692,1.973931 1.739602,1.862225 2.263974,6.249238 1.031313,8.628216 C 36.942764,25.696907 25.747057,37.732433 25,37.732433 c -0.255137,0 -3.065192,-2.743812 -6.244567,-6.097362 z m 8.229755,2.126987 C 27.19721,33.419 26.412724,33.194862 25,33.194862 c -1.412723,0 -2.197208,0.224138 -1.985187,0.567196 0.192801,0.311959 1.086135,0.567197 1.985187,0.567197 0.899054,0 1.792386,-0.255238 1.985188,-0.567197 z m 1.845636,-2.126987 c 0.172511,-0.522498 -0.822731,-0.708995 -3.783558,-0.708995 -3.725903,0 -4.627105,0.335863 -3.615521,1.347446 0.690398,0.6904 7.144207,0.133512 7.399079,-0.638451 z m 2.12474,-1.843387 C 31.181232,29.426543 29.05964,29.224487 25,29.224487 c -4.059639,0 -6.181231,0.202056 -5.955562,0.567197 0.195433,0.316216 2.830714,0.567195 5.955562,0.567195 3.124848,0 5.760131,-0.250979 5.955564,-0.567195 z m 1.84421,-2.126988 c 0.180961,-0.544782 -1.614619,-0.708995 -7.752508,-0.708995 -7.33001,0 -8.692996,0.240347 -7.594189,1.339154 0.734278,0.734278 15.089263,0.144847 15.346697,-0.630159 z m 1.558968,-1.843388 C 34.587225,25.451615 31.328426,25.254111 25,25.254111 c -6.328425,0 -9.587224,0.197504 -9.358741,0.567197 0.469804,0.76016 18.247678,0.76016 18.717483,0 z m 1.843839,-2.126986 c 0.18348,-0.551492 -2.294686,-0.708997 -11.155315,-0.708997 -10.430627,0 -12.130223,0.206299 -11.001188,1.335333 0.214503,0.214504 5.234394,0.320853 11.155314,0.236333 7.99616,-0.114138 10.825983,-0.336048 11.001189,-0.862669 z m 0.838211,-2.646288 C 37.3979,19.179938 36.231441,16.618976 34.349026,15.138269 32.204,13.450991 29.283478,13.536729 26.896927,15.357039 L 25,16.803896 23.103073,15.357039 c -2.812582,-2.145261 -5.626461,-1.977658 -8.085729,0.481612 -1.566016,1.566014 -1.928469,2.365542 -1.928469,4.253973 v 2.325506 h 11.845003 11.845003 z"
       id="path1" /></g></svg>
