<?xml version="1.0" encoding="UTF-8" standalone="no"?>
<!-- Created with Inkscape (http://www.inkscape.org/) -->

<svg
   width="50mm"
   height="50mm"
   viewBox="0 0 50 50"
   version="1.1"
   id="svg5"
   inkscape:version="1.4.3 (0d15f75, 2025-12-25)"
   sodipodi:docname="Effortless Swing.svg"
   inkscape:export-filename="circle50x50.png"
   inkscape:export-xdpi="96"
   inkscape:export-ydpi="96"
   xml:space="preserve"
   xmlns:inkscape="http://www.inkscape.org/namespaces/inkscape"
   xmlns:sodipodi="http://sodipodi.sourceforge.net/DTD/sodipodi-0.dtd"
   xmlns="http://www.w3.org/2000/svg"
   xmlns:svg="http://www.w3.org/2000/svg"><sodipodi:namedview
     id="namedview7"
     pagecolor="#505050"
     bordercolor="#eeeeee"
     borderopacity="1"
     inkscape:showpageshadow="0"
     inkscape:pageopacity="0"
     inkscape:pagecheckerboard="0"
     inkscape:deskcolor="#505050"
     inkscape:document-units="mm"
     showgrid="false"
     inkscape:zoom="2.0888418"
     inkscape:cx="142.90216"
     inkscape:cy="157.26418"
     inkscape:window-width="1920"
     inkscape:window-height="1009"
     inkscape:window-x="-8"
     inkscape:window-y="-8"
     inkscape:window-maximized="1"
     inkscape:current-layer="layer1" /><defs
     id="defs2" /><g
     inkscape:label="Layer 1"
     inkscape:groupmode="layer"
     id="layer1"><path
       style="baseline-shift:baseline;display:inline;overflow:visible;vector-effect:none;fill:currentColor;enable-background:accumulate;stop-color:#000000;stop-opacity:1;opacity:1"
       d="M 25,1.5117187 C 12.034381,1.5117187 1.5117188,12.034381 1.5117187,25 1.5117188,37.965619 12.034381,48.488281 25,48.488281 37.965619,48.488281 48.488281,37.965619 48.488281,25 48.488281,12.034381 37.965619,1.5117188 25,1.5117187 Z m 0,1.1191407 C 37.360866,2.6308594 47.369141,12.639134 47.369141,25 47.369141,37.360866 37.360866,47.369141 25,47.369141 12.639134,47.369141 2.6308594,37.360866 2.6308594,25 2.6308594,12.639134 12.639134,2.6308594 25,2.6308594 Z"
       id="path362" /><path
       style="fill:currentColor;stroke-width:1.62799;fill-opacity:1;stroke:none;stroke-opacity:1"
       d="m 30.092688,38.368473 c 0,-0.914494 0.09552,-1.051453 0.733307,-1.051453 0.403319,0 0.821874,-0.143302 0.93012,-0.318446 0.108252,-0.175146 -1.370831,-1.905637 -3.286836,-3.845537 -1.916007,-1.9399 -3.483648,-3.668263 -3.483648,-3.840806 0,-0.172542 0.250656,-0.540552 0.557013,-0.817802 0.531237,-0.480764 0.773646,-0.287121 5.238741,4.184846 4.791935,4.799311 5.670758,5.359758 5.855088,3.733931 0.0693,-0.611291 -0.715299,-1.546127 -4.280916,-5.100603 -2.401176,-2.393673 -4.365774,-4.546017 -4.365774,-4.782987 0,-0.23697 0.224001,-0.678371 0.497779,-0.980894 0.47474,-0.524583 0.662978,-0.382665 4.067046,3.066259 1.963096,1.988965 3.699303,3.535931 3.858238,3.437703 0.158938,-0.09822 0.288975,-0.576178 0.288975,-1.062111 0,-0.809456 0.08814,-0.883516 1.051454,-0.883516 h 1.051453 v 4.656434 4.656435 h -4.35602 -4.356019 z M 16.348696,32.609694 c -0.536993,-0.602101 -0.97635,-1.176139 -0.97635,-1.27564 0,-0.0995 2.838923,-3.017418 6.308718,-6.484261 3.469796,-3.466844 6.308718,-6.386043 6.308718,-6.487108 0,-0.101069 -1.487055,-1.64913 -3.304567,-3.440148 -3.56241,-3.51048 -3.994089,-4.342463 -2.253113,-4.342463 0.578299,0 1.051453,0.135196 1.051453,0.300414 0,0.165222 0.191824,0.300415 0.426277,0.300415 0.501282,0 2.382702,0.950285 2.527805,1.276765 0.05508,0.12392 0.309015,0.225312 0.564308,0.225312 0.572484,0 1.660755,0.903576 7.001975,5.813645 2.309987,2.123521 4.199977,4.021785 4.199977,4.218365 0,0.196582 -0.609689,0.955786 -1.354866,1.687121 l -1.354864,1.329699 -2.552574,-2.539313 -2.552574,-2.539315 -6.531988,6.525623 -6.531987,6.525622 z M 15.31161,20.00146 11.195272,15.910377 11.856837,15.358126 c 0.36386,-0.303739 0.74682,-0.556749 0.851019,-0.562247 0.104199,-0.0054 1.965116,1.769113 4.135366,3.943575 3.666651,3.673765 3.917185,3.996831 3.540025,4.564866 -0.223238,0.336213 -0.529503,0.651105 -0.680592,0.699761 -0.151086,0.04866 -2.127058,-1.752525 -4.391045,-4.002621 z m 2.770172,-2.95675 c -3.856766,-3.864721 -4.014536,-4.070319 -3.450599,-4.496672 0.325025,-0.245729 0.766567,-0.45108 0.981202,-0.456334 0.512691,-0.0126 7.87117,7.351037 7.87117,7.876637 0,0.484148 -0.59328,1.126262 -1.040606,1.126262 -0.175784,0 -2.138311,-1.822452 -4.361167,-4.049893 z m 14.745799,-1.175225 c -0.849254,-0.87621 -0.940261,-1.108416 -0.648249,-1.654045 0.312065,-0.583097 0.406035,-0.600435 1.155039,-0.21311 0.448437,0.231894 1.07255,0.705841 1.386917,1.053214 0.552062,0.610022 0.553011,0.652101 0.02783,1.232416 -0.711889,0.786629 -0.764643,0.77514 -1.921541,-0.418475 z"
       id="path1" /></g></svg>
