<?xml version="1.0" encoding="UTF-8" standalone="no"?>
<!-- Created with Inkscape (http://www.inkscape.org/) -->

<svg
   width="50mm"
   height="50mm"
   viewBox="0 0 50 50"
   version="1.1"
   id="svg5"
   inkscape:version="1.4.3 (0d15f75, 2025-12-25)"
   sodipodi:docname="Fight Or Flight.svg"
   inkscape:export-filename="circle50x50.png"
   inkscape:export-xdpi="96"
   inkscape:export-ydpi="96"
   xml:space="preserve"
   xmlns:inkscape="http://www.inkscape.org/namespaces/inkscape"
   xmlns:sodipodi="http://sodipodi.sourceforge.net/DTD/sodipodi-0.dtd"
   xmlns="http://www.w3.org/2000/svg"
   xmlns:svg="http://www.w3.org/2000/svg"><sodipodi:namedview
     id="namedview7"
     pagecolor="#505050"
     bordercolor="#eeeeee"
     borderopacity="1"
     inkscape:showpageshadow="0"
     inkscape:pageopacity="0"
     inkscape:pagecheckerboard="0"
     inkscape:deskcolor="#505050"
     inkscape:document-units="mm"
     showgrid="false"
     inkscape:zoom="11.816274"
     inkscape:cx="94.742221"
     inkscape:cy="78.070298"
     inkscape:window-width="1920"
     inkscape:window-height="1009"
     inkscape:window-x="-8"
     inkscape:window-y="-8"
     inkscape:window-maximized="1"
     inkscape:current-layer="layer1" /><defs
     id="defs2" /><g
     inkscape:label="Layer 1"
     inkscape:groupmode="layer"
     id="layer1"><path
       style="baseline-shift:baseline;display:inline;overflow:visible;vector-effect:none;fill:currentColor;enable-background:accumulate;stop-color:#000000;stop-opacity:1;opacity:1"
       d="M 25,1.5117187 C 12.034381,1.5117187 1.5117188,12.034381 1.5117187,25 1.5117188,37.965619 12.034381,48.488281 25,48.488281 37.965619,48.488281 48.488281,37.965619 48.488281,25 48.488281,12.034381 37.965619,1.5117188 25,1.5117187 Z m 0,1.1191407 C 37.360866,2.6308594 47.369141,12.639134 47.369141,25 47.369141,37.360866 37.360866,47.369141 25,47.369141 12.639134,47.369141 2.6308594,37.360866 2.6308594,25 2.6308594,12.639134 12.639134,2.6308594 25,2.6308594 Z"
       id="path362" /><path
       style="fill:currentColor;stroke-width:1.62799;fill-opacity:1;stroke:none;stroke-opacity:1"
       d="m 18.171884,31.392279 c -3.515723,-3.518331 -6.392225,-6.557574 -6.392225,-6.753871 0,-0.196297 -0.129321,-0.356904 -0.287399,-0.356904 -0.175468,0 -0.287399,-1.329464 -0.287399,-3.413594 0,-2.683695 0.09217,-3.490096 0.431098,-3.771376 0.237104,-0.196777 0.431099,-0.524946 0.431099,-0.729261 0,-0.428238 2.182844,-2.421111 3.195709,-2.917592 0.376295,-0.184449 1.169158,-0.415194 1.761918,-0.512767 1.548466,-0.254908 0.652804,-0.211155 1.872767,-0.211155 1.205169,0 0.513473,-0.06957 1.863415,0.202091 1.333779,0.26841 2.604346,0.887179 3.221098,1.568683 0.531398,0.587187 1.45942,0.791239 1.640731,0.360759 0.210292,-0.499286 2.22403,-1.617177 2.760838,-1.784339 1.078587,-0.335872 0.942763,-0.503934 2.651839,-0.503934 1.703981,0 1.57969,0.235237 2.574266,0.503934 1.099511,0.297047 4.323305,2.426328 4.323305,3.294131 0,0.204419 0.193993,0.532673 0.431097,0.72945 0.336974,0.279665 0.431098,1.071715 0.431098,3.627675 0,1.988332 -0.112637,3.269896 -0.287399,3.269896 -0.158063,0 -0.287399,0.227404 -0.287399,0.505342 0,0.612962 -12.615103,13.289797 -13.225081,13.289797 -0.237131,0 -3.307651,-2.878635 -6.823376,-6.396965 z m 7.512645,3.938961 c 0.119708,-0.311943 -1.764868,-2.387502 -6.262877,-6.897571 -3.538759,-3.548245 -6.511888,-6.451356 -6.606952,-6.451356 -0.349101,0 -0.157199,0.873167 0.424422,1.9312 0.77171,1.403815 11.174705,11.86394 11.799143,11.86394 0.261271,0 0.552089,-0.200796 0.646264,-0.446213 z m 2.419379,-2.197856 c 0.189681,-0.189682 0.344876,-0.546466 0.344876,-0.792853 0,-0.246385 -2.776279,-3.222002 -6.169508,-6.612478 -5.806785,-5.802072 -6.142108,-6.194783 -5.703433,-6.679513 0.256342,-0.283257 0.608909,-0.515011 0.783479,-0.515011 0.174569,0 2.902774,2.594827 6.06268,5.766284 3.159904,3.171456 5.971606,5.891923 6.248228,6.045485 0.579678,0.321797 1.652543,-0.125216 1.652543,-0.688548 0,-0.193879 -2.072938,-2.420262 -4.606528,-4.947518 -4.656996,-4.645352 -5.082918,-5.28712 -3.971223,-5.98375 0.393903,-0.246833 1.264884,0.498807 5.085293,4.353479 2.535492,2.55823 4.73595,4.651327 4.88991,4.651327 0.657877,0 1.189135,-0.385223 1.189135,-0.862262 0,-0.282351 -1.490074,-2.011755 -3.311275,-3.84312 -3.025169,-3.042048 -3.279937,-3.379937 -2.948555,-3.910565 0.199499,-0.319447 0.560147,-0.580812 0.80144,-0.580812 0.241293,0 1.85693,1.422624 3.590298,3.161387 1.733371,1.738761 3.295407,3.161385 3.471191,3.161385 0.175784,0 0.557896,-0.263308 0.849139,-0.585127 0.521432,-0.576176 0.499091,-0.615803 -1.460406,-2.590432 -1.669466,-1.682358 -1.939554,-2.085683 -1.677082,-2.504409 0.598785,-0.955252 1.427531,-0.752039 2.586253,0.634164 0.602088,0.720291 1.196648,1.309621 1.321244,1.309621 0.363394,0 0.260851,-2.169474 -0.137681,-2.912986 -0.831795,-1.551807 -1.478287,-2.27607 -2.773634,-3.107291 -1.143994,-0.734099 -1.654781,-0.877294 -3.129375,-0.877294 -2.125726,0 -3.654981,0.70641 -5.045148,2.330507 -0.952604,1.112905 -1.459021,2.612667 -1.374256,1.959458 0.111957,-0.86276 -2.007143,-3.426206 -2.530025,-3.436909 -0.245613,-0.0051 -0.697615,-0.199021 -1.004447,-0.431098 -0.821225,-0.621143 -3.365744,-0.539734 -4.68907,0.150031 -1.142228,0.595362 -2.80799,2.235094 -3.475504,3.421195 -0.375468,0.667168 -0.165788,0.909673 6.895779,7.975316 4.005662,4.007973 7.419768,7.287225 7.586903,7.287225 0.167136,0 0.45908,-0.155196 0.648764,-0.344879 z"
       id="path1"
       sodipodi:nodetypes="ssssssscsssssssssssssssssssscssssssssssssssssssssssssssscscssscc" /></g></svg>
