<?xml version="1.0" encoding="UTF-8" standalone="no"?>
<!-- Created with Inkscape (http://www.inkscape.org/) -->

<svg
   width="50mm"
   height="50mm"
   viewBox="0 0 50 50"
   version="1.1"
   id="svg5"
   inkscape:version="1.4.3 (0d15f75, 2025-12-25)"
   sodipodi:docname="Flyswatter.svg"
   inkscape:export-filename="circle50x50.png"
   inkscape:export-xdpi="96"
   inkscape:export-ydpi="96"
   xml:space="preserve"
   xmlns:inkscape="http://www.inkscape.org/namespaces/inkscape"
   xmlns:sodipodi="http://sodipodi.sourceforge.net/DTD/sodipodi-0.dtd"
   xmlns="http://www.w3.org/2000/svg"
   xmlns:svg="http://www.w3.org/2000/svg"><sodipodi:namedview
     id="namedview7"
     pagecolor="#505050"
     bordercolor="#eeeeee"
     borderopacity="1"
     inkscape:showpageshadow="0"
     inkscape:pageopacity="0"
     inkscape:pagecheckerboard="0"
     inkscape:deskcolor="#505050"
     inkscape:document-units="mm"
     showgrid="false"
     inkscape:zoom="2.0888418"
     inkscape:cx="142.90216"
     inkscape:cy="157.26418"
     inkscape:window-width="1920"
     inkscape:window-height="1009"
     inkscape:window-x="-8"
     inkscape:window-y="-8"
     inkscape:window-maximized="1"
     inkscape:current-layer="layer1" /><defs
     id="defs2" /><g
     inkscape:label="Layer 1"
     inkscape:groupmode="layer"
     id="layer1"><circle
       style="fill:none;stroke:#ffffff;stroke-width:1.119;stroke-opacity:1"
       id="path362"
       cx="25"
       cy="25"
       r="22.928829" /><path
       style="fill:#ffffff;stroke-width:1.63712;fill-opacity:1"
       d="M 12.52793,37.763526 11.829325,37.019897 24.59285,24.256368 37.356374,11.492843 l 0.722329,0.722329 0.722331,0.722329 -12.78725,12.784827 -12.787249,12.784829 z m 9.843332,-2.458473 c -0.490094,-0.7965 -0.891079,-1.66653 -0.891079,-1.933395 0,-0.48948 1.361861,-2.105045 1.774474,-2.105045 0.122408,0 0.565262,0.58476 0.984108,1.299467 l 0.761536,1.299464 h 4.11868 4.118681 l 1.066602,-1.728031 1.0666,-1.728031 -0.764226,-1.304053 -0.764226,-1.304055 1.687867,5.15e-4 c 1.683338,5.16e-4 1.690044,0.0039 2.499808,1.285728 l 0.811944,1.285212 -1.165169,1.962934 c -0.640843,1.079614 -1.490317,2.515209 -1.887721,3.190208 l -0.722552,1.227271 h -5.902124 -5.902123 z m 5.232646,-5.565993 -1.215774,-1.238781 1.238772,-1.215762 c 0.681324,-0.668669 1.369913,-1.215761 1.530199,-1.215761 0.374712,0 2.430026,2.097841 2.430026,2.480307 0,0.372959 -2.098149,2.428782 -2.478788,2.428782 -0.158768,0 -0.83576,-0.557453 -1.504435,-1.238785 z M 13.776867,24.18534 c -2.866912,-1.718425 -3.483879,-5.397157 -1.333723,-7.952472 1.303909,-1.549609 2.176002,-1.816661 6.365918,-1.94938 2.104411,-0.06666 3.826202,-0.01359 3.826202,0.117905 0,0.13151 -0.546843,0.796288 -1.215204,1.477297 l -1.215205,1.238202 h -2.413404 c -2.772998,0 -3.349969,0.221694 -3.778849,1.451979 -0.420137,1.205208 -0.113076,2.491742 0.758292,3.177164 0.593301,0.466691 1.173239,0.568718 3.232657,0.568718 2.300772,0 2.56586,0.05984 3.18502,0.718899 0.655692,0.697952 0.660061,0.735817 0.149961,1.299465 -0.460586,0.508943 -0.885041,0.580228 -3.440541,0.577833 -2.594057,-0.0025 -3.047967,-0.08235 -4.121129,-0.725603 z m 16.366415,0.194752 c 0,-0.134653 0.770031,-0.979301 1.711183,-1.877003 l 1.711181,-1.632192 h 1.898443 1.898441 v 1.877005 1.877002 h -3.609624 c -1.985294,0 -3.609624,-0.110162 -3.609624,-0.244812 z m -8.026003,-3.592897 -1.215774,-1.238784 1.300035,-1.275885 1.300033,-1.275887 1.300034,1.275887 1.300033,1.275885 -1.215772,1.238784 c -0.668675,0.68133 -1.291608,1.238781 -1.384295,1.238781 -0.09269,0 -0.715619,-0.557451 -1.384294,-1.238781 z m 3.543617,-4.862164 c -0.711157,-0.655523 -1.293013,-1.305256 -1.293013,-1.443851 0,-0.138599 1.494385,-0.251994 3.320854,-0.251994 1.82647,0 3.320854,0.102893 3.320854,0.228648 0,0.125748 -0.557191,0.775487 -1.238202,1.443848 -1.62147,1.591352 -2.404582,1.595802 -4.110493,0.02334 z"
       id="path1" /></g></svg>
