<?xml version="1.0" encoding="UTF-8" standalone="no"?>
<!-- Created with Inkscape (http://www.inkscape.org/) -->

<svg
   width="50mm"
   height="50mm"
   viewBox="0 0 50 50"
   version="1.1"
   id="svg5"
   inkscape:version="1.4.3 (0d15f75, 2025-12-25)"
   sodipodi:docname="Gentle Pressure.svg"
   inkscape:export-filename="circle50x50.png"
   inkscape:export-xdpi="96"
   inkscape:export-ydpi="96"
   xml:space="preserve"
   xmlns:inkscape="http://www.inkscape.org/namespaces/inkscape"
   xmlns:sodipodi="http://sodipodi.sourceforge.net/DTD/sodipodi-0.dtd"
   xmlns="http://www.w3.org/2000/svg"
   xmlns:svg="http://www.w3.org/2000/svg"><sodipodi:namedview
     id="namedview7"
     pagecolor="#505050"
     bordercolor="#eeeeee"
     borderopacity="1"
     inkscape:showpageshadow="0"
     inkscape:pageopacity="0"
     inkscape:pagecheckerboard="0"
     inkscape:deskcolor="#505050"
     inkscape:document-units="mm"
     showgrid="false"
     inkscape:zoom="2.0888418"
     inkscape:cx="142.90216"
     inkscape:cy="157.26418"
     inkscape:window-width="1920"
     inkscape:window-height="1009"
     inkscape:window-x="-8"
     inkscape:window-y="-8"
     inkscape:window-maximized="1"
     inkscape:current-layer="layer1" /><defs
     id="defs2" /><g
     inkscape:label="Layer 1"
     inkscape:groupmode="layer"
     id="layer1"><circle
       style="fill:none;stroke:#ffffff;stroke-width:1.119;stroke-opacity:1"
       id="path362"
       cx="25"
       cy="25"
       r="22.928829" /><path
       style="fill:#ffffff;fill-opacity:1;stroke-width:1.69468"
       d="m 23.667782,37.980961 c -0.277313,-0.423232 -0.554067,-0.994922 -0.615011,-1.270425 -0.216435,-0.978422 -1.311888,-3.692817 -1.659206,-4.111313 -0.480383,-0.578824 -1.294728,-0.534529 -1.802593,0.09806 -0.72476,0.902735 -1.167292,1.837665 -1.167292,2.466121 0,0.628453 -0.442533,1.563384 -1.167294,2.466118 -0.345968,0.430927 -0.912281,0.523117 -3.213427,0.523117 h -2.793446 v -1.644086 -1.64408 h 2.418971 c 1.971041,0 2.560535,-0.111358 3.183466,-0.601352 0.859449,-0.676044 1.57173,-1.892599 1.57173,-2.684471 0,-0.77976 0.790349,-2.531123 1.352942,-2.998034 0.353087,-0.293037 0.627696,-0.320848 0.979136,-0.09916 0.713864,0.450293 1.506932,1.927141 1.53208,2.853027 0.01203,0.442419 0.156368,0.887533 0.320771,0.989143 0.164402,0.101614 0.298924,0.492247 0.298924,0.868084 0,0.815796 0.736927,1.518948 1.875571,1.789607 1.052692,0.250229 2.04097,-0.732347 2.585484,-2.570572 0.208995,-0.705546 0.501396,-1.51639 0.649781,-1.801874 0.148386,-0.285481 0.269788,-0.701809 0.269788,-0.92517 0,-0.483472 0.945894,-1.395543 1.447294,-1.395543 0.313992,0 0.824599,0.962859 2.347801,4.427288 0.648861,1.475798 2.008764,2.189904 3.736813,1.96226 0.772185,-0.101732 1.747424,-0.09875 2.167196,0.0066 0.702214,0.176246 0.763221,0.322521 0.763221,1.829941 v 1.638386 h -2.824561 -2.82456 l -0.762522,-0.99971 c -0.419387,-0.549844 -0.762522,-1.224247 -0.762522,-1.498674 0,-0.274426 -0.118696,-0.732533 -0.263762,-1.018016 C 31.16749,34.35075 30.928844,33.713626 30.78224,33.220402 30.566478,32.494505 30.352392,32.32363 29.658693,32.32363 c -0.471346,0 -0.951633,0.201775 -1.067304,0.448387 -0.115679,0.24661 -0.365733,0.74922 -0.555694,1.116906 -0.189962,0.367687 -0.345385,0.940365 -0.345385,1.272616 0,0.332252 -0.362717,1.275686 -0.806038,2.09652 -0.707538,1.310051 -0.92251,1.492428 -1.759161,1.492428 -0.694143,0 -1.090126,-0.20909 -1.457329,-0.769512 z m 0.0896,-8.554969 c -0.791767,-1.4181 -1.447698,-3.01367 -1.447698,-3.521563 0,-0.829623 -1.166433,-2.100133 -1.928097,-2.100133 -0.84003,0 -1.172322,0.389479 -1.65771,1.943003 -0.205474,0.657631 -0.491591,1.42927 -0.635817,1.714754 -0.144235,0.285483 -0.262229,0.665009 -0.262229,0.843392 0,0.897574 -0.885369,1.178399 -3.715193,1.178399 h -2.861126 v -1.64408 -1.64408 h 2.401906 c 1.69805,0 2.615751,-0.140116 3.131652,-0.478147 0.80418,-0.52692 1.640609,-1.989029 1.640609,-2.867847 0,-0.310105 0.271765,-1.096532 0.603921,-1.747615 0.788476,-1.545539 1.824708,-1.627389 2.687514,-0.212285 0.325785,0.534326 0.594863,1.240533 0.597955,1.56935 0.01,1.067598 0.811625,2.947414 1.491646,3.498063 1.456902,1.179728 2.801453,0.350871 3.556296,-2.192297 0.213163,-0.718172 0.508971,-1.539343 0.657356,-1.824826 0.148387,-0.285484 0.269789,-0.66501 0.269789,-0.843392 0,-0.531347 0.860932,-1.229293 1.388323,-1.125495 0.535119,0.105325 0.725685,0.389535 1.467731,2.189023 1.486303,3.604339 1.434768,3.564873 4.819291,3.690669 l 2.78698,0.103579 v 1.764686 1.764687 h -2.78341 c -3.079895,0 -3.913076,-0.39665 -4.255733,-2.026008 -0.09412,-0.447571 -0.297526,-1.047344 -0.452003,-1.332827 -0.154471,-0.285483 -0.280869,-0.769068 -0.280869,-1.074633 0,-0.78244 -1.03237,-1.637129 -1.71556,-1.420292 -0.5859,0.185958 -1.559635,2.047222 -1.590243,3.039699 -0.0097,0.314674 -0.313317,1.177455 -0.674694,1.91729 -0.581327,1.190126 -0.783746,1.355714 -1.756348,1.436765 -0.890672,0.07423 -1.172349,-0.03923 -1.484241,-0.597846 z m 0.132186,-8.536202 c -0.708995,-1.053356 -1.579877,-2.969757 -1.579877,-3.476568 0,-0.215774 -0.211625,-0.816531 -0.470278,-1.335013 -0.36594,-0.733544 -0.663037,-0.942697 -1.339081,-0.942697 -0.711196,0 -0.978357,0.214745 -1.472725,1.183786 -0.332157,0.651081 -0.603921,1.46 -0.603921,1.797596 0,0.635541 -0.440005,1.568089 -1.167294,2.473973 -0.345968,0.430926 -0.912281,0.523117 -3.213428,0.523117 h -2.793445 v -1.89357 -1.89357 l 2.38574,0.138117 c 1.852716,0.107257 2.547841,0.03189 3.11128,-0.337283 0.77308,-0.506541 1.677147,-2.058312 1.677147,-2.878708 0,-0.994262 1.19351,-2.999457 1.785304,-2.999457 0.737832,0 2.100701,1.775886 2.100701,2.737314 0,0.405835 0.336609,1.435634 0.748017,2.288443 0.716187,1.484585 0.798834,1.550562 1.942295,1.550562 1.143463,0 1.22611,-0.06597 1.942297,-1.550562 0.411409,-0.852809 0.748015,-1.796244 0.748015,-2.096521 0,-0.996502 1.315132,-2.929236 1.993202,-2.929236 0.353535,0 0.791808,0.802862 2.284501,4.184931 0.740271,1.677267 0.998875,1.793541 3.989026,1.793541 h 2.793444 v 1.943003 1.943004 h -2.824562 -2.82456 l -0.762522,-0.999718 c -0.419387,-0.549844 -0.762521,-1.348998 -0.762521,-1.775899 0,-0.4269 -0.134508,-0.859318 -0.298924,-0.960927 -0.164402,-0.101614 -0.298924,-0.496626 -0.298924,-0.877812 0,-0.381185 -0.194368,-0.854378 -0.431931,-1.051536 -0.554213,-0.459956 -1.68781,-0.294731 -1.9572,0.285268 -0.114544,0.246612 -0.363683,0.74922 -0.553643,1.116907 -0.189963,0.367687 -0.345386,0.952252 -0.345386,1.299034 0,0.642514 -0.699662,2.096167 -1.462909,3.039414 -0.634941,0.784679 -1.700161,0.648477 -2.337838,-0.298924 z"
       id="path1" /></g></svg>
