<?xml version="1.0" encoding="UTF-8" standalone="no"?>
<!-- Created with Inkscape (http://www.inkscape.org/) -->

<svg
   width="50mm"
   height="50mm"
   viewBox="0 0 50 50"
   version="1.1"
   id="svg5"
   inkscape:version="1.4.3 (0d15f75, 2025-12-25)"
   sodipodi:docname="Loaded Arms.svg"
   inkscape:export-filename="circle50x50.png"
   inkscape:export-xdpi="96"
   inkscape:export-ydpi="96"
   xml:space="preserve"
   xmlns:inkscape="http://www.inkscape.org/namespaces/inkscape"
   xmlns:sodipodi="http://sodipodi.sourceforge.net/DTD/sodipodi-0.dtd"
   xmlns="http://www.w3.org/2000/svg"
   xmlns:svg="http://www.w3.org/2000/svg"><sodipodi:namedview
     id="namedview7"
     pagecolor="#505050"
     bordercolor="#eeeeee"
     borderopacity="1"
     inkscape:showpageshadow="0"
     inkscape:pageopacity="0"
     inkscape:pagecheckerboard="0"
     inkscape:deskcolor="#505050"
     inkscape:document-units="mm"
     showgrid="false"
     inkscape:zoom="2.0888418"
     inkscape:cx="142.66279"
     inkscape:cy="157.26418"
     inkscape:window-width="1920"
     inkscape:window-height="1009"
     inkscape:window-x="-8"
     inkscape:window-y="-8"
     inkscape:window-maximized="1"
     inkscape:current-layer="layer1" /><defs
     id="defs2" /><g
     inkscape:label="Layer 1"
     inkscape:groupmode="layer"
     id="layer1"><circle
       style="fill:none;stroke:#ffffff;stroke-width:1.119;stroke-opacity:1"
       id="path362"
       cx="25"
       cy="25"
       r="22.928829" /><path
       style="fill:#ffffff;fill-opacity:1;stroke-width:1.62419"
       d="m 11.569496,35.611325 c -0.23179,-0.146584 -0.317738,-0.370225 -0.190992,-0.496969 0.301169,-0.30117 26.994217,-0.30117 27.295386,0 0.126736,0.126736 0.0408,0.35038 -0.190993,0.496969 -0.559135,0.353609 -26.354265,0.353609 -26.913401,0 z m 0.206571,-3.18552 c -0.624875,-0.363956 -0.654181,-1.289553 -0.04819,-1.522092 0.591868,-0.227122 26.004775,-0.227122 26.596643,0 0.629105,0.24141 0.567545,1.177177 -0.100976,1.53496 -0.752549,0.402752 -25.754782,0.390587 -26.447472,-0.01283 z m 22.131298,-4.994502 c 0,-0.238492 -0.11449,-0.657483 -0.254428,-0.931091 -0.139941,-0.273608 -0.610906,-1.20653 -1.046602,-2.07316 -1.017541,-2.023962 -0.943302,-1.968653 -1.554624,-1.158206 -0.434081,0.575475 -0.774546,0.695415 -1.974017,0.695415 -2.022154,0 -2.619051,-0.587578 -2.619051,-2.578163 v -1.519702 l -2.363536,-0.08321 -2.363537,-0.08321 -0.08732,-1.360824 -0.08732,-1.360824 h -4.586966 c -2.614045,0 -4.825312,-0.127564 -5.14111,-0.296569 -0.83424,-0.446472 -0.769428,-2.157314 0.09045,-2.387754 0.985448,-0.264089 24.94438,-0.204668 25.36615,0.06292 0.26798,0.170012 0.346948,0.938753 0.286489,2.788883 l -0.08347,2.554175 -0.931976,0.08983 c -0.852309,0.08215 -0.916365,0.15563 -0.749367,0.859467 0.10044,0.423297 0.358675,0.97316 0.573865,1.221922 0.215191,0.248761 0.391255,0.60504 0.391255,0.791733 0,0.186691 0.114636,0.5633 0.254729,0.836908 1.341642,2.620159 1.330916,2.574987 0.76099,3.204746 -0.292349,0.323043 -0.761796,0.587351 -1.043213,0.587351 -0.281417,0 -0.591345,0.128912 -0.688729,0.28649 -0.296135,0.479157 -2.14867,0.352303 -2.14867,-0.147136 z m -4.144016,-4.612891 c 1.066863,-0.699035 0.990354,-2.169315 -0.134986,-2.594083 -1.699717,-0.641572 -2.679497,1.032636 -1.400843,2.3937 0.741376,0.789158 0.654538,0.777829 1.535831,0.200383 z"
       id="path1" /></g></svg>
