<?xml version="1.0" encoding="UTF-8" standalone="no"?>
<!-- Created with Inkscape (http://www.inkscape.org/) -->

<svg
   width="50mm"
   height="50mm"
   viewBox="0 0 50 50"
   version="1.1"
   id="svg5"
   inkscape:version="1.4.3 (0d15f75, 2025-12-25)"
   sodipodi:docname="Proficient Pryer.svg"
   inkscape:export-filename="circle50x50.png"
   inkscape:export-xdpi="96"
   inkscape:export-ydpi="96"
   xml:space="preserve"
   xmlns:inkscape="http://www.inkscape.org/namespaces/inkscape"
   xmlns:sodipodi="http://sodipodi.sourceforge.net/DTD/sodipodi-0.dtd"
   xmlns="http://www.w3.org/2000/svg"
   xmlns:svg="http://www.w3.org/2000/svg"><sodipodi:namedview
     id="namedview7"
     pagecolor="#505050"
     bordercolor="#eeeeee"
     borderopacity="1"
     inkscape:showpageshadow="0"
     inkscape:pageopacity="0"
     inkscape:pagecheckerboard="0"
     inkscape:deskcolor="#505050"
     inkscape:document-units="mm"
     showgrid="false"
     inkscape:zoom="2.0888418"
     inkscape:cx="142.90216"
     inkscape:cy="157.26418"
     inkscape:window-width="1920"
     inkscape:window-height="1009"
     inkscape:window-x="-8"
     inkscape:window-y="-8"
     inkscape:window-maximized="1"
     inkscape:current-layer="layer1" /><defs
     id="defs2" /><g
     inkscape:label="Layer 1"
     inkscape:groupmode="layer"
     id="layer1"><path
       style="baseline-shift:baseline;display:inline;overflow:visible;vector-effect:none;fill:currentColor;enable-background:accumulate;stop-color:#000000;stop-opacity:1;opacity:1"
       d="M 25,1.5117187 C 12.034381,1.5117187 1.5117188,12.034381 1.5117187,25 1.5117188,37.965619 12.034381,48.488281 25,48.488281 37.965619,48.488281 48.488281,37.965619 48.488281,25 48.488281,12.034381 37.965619,1.5117188 25,1.5117187 Z m 0,1.1191407 C 37.360866,2.6308594 47.369141,12.639134 47.369141,25 47.369141,37.360866 37.360866,47.369141 25,47.369141 12.639134,47.369141 2.6308594,37.360866 2.6308594,25 2.6308594,12.639134 12.639134,2.6308594 25,2.6308594 Z"
       id="path362" /><path
       style="fill:currentColor;stroke-width:1.62799;fill-opacity:1;stroke:none;stroke-opacity:1"
       d="m 27.024655,39.201858 c 0,-0.154778 -0.265241,-0.365586 -0.589426,-0.468478 -0.759598,-0.241086 -2.637244,-2.796414 -2.774694,-3.776138 -0.07174,-0.511342 -0.324524,-0.785398 -0.78473,-0.850758 -0.373396,-0.05303 -0.678903,-0.265244 -0.678903,-0.471584 0,-0.435692 1.556451,-2.000636 1.977784,-1.988577 0.284006,0.0082 2.548234,1.99747 2.548234,2.238865 0,0.06972 -0.373396,0.169728 -0.829769,0.22224 -0.745407,0.08577 -0.819684,0.198574 -0.730561,1.109525 0.06338,0.647824 0.437466,1.344705 1.035816,1.92961 0.816821,0.798468 1.163688,0.919611 2.71219,0.947225 1.71052,0.0305 1.818631,-0.01437 2.950291,-1.226289 1.321835,-1.415514 1.759129,-2.633283 1.2426,-3.460378 -0.190231,-0.304609 -0.345875,-0.733944 -0.345875,-0.954079 0,-0.680918 -1.686567,-2.057441 -2.83943,-2.317454 -0.65449,-0.147609 -1.508663,-0.120752 -2.119268,0.06665 -0.56258,0.17266 -1.271557,0.218502 -1.575501,0.101869 -0.50711,-0.194597 -0.490659,-0.259671 0.199741,-0.790101 1.673205,-1.285513 5.900899,-0.370145 6.821821,1.477039 0.191372,0.383853 0.499455,0.849423 0.68463,1.034597 0.185173,0.185173 0.336679,1.179891 0.336679,2.210482 0,1.855309 -0.01591,1.890449 -1.620615,3.560468 l -1.620615,1.686666 h -2.000199 c -1.100111,0 -2.0002,-0.126637 -2.0002,-0.281402 z m -14.482682,-2.886223 -1.332008,-1.357217 7.60561,-7.627063 c 4.183086,-4.194885 7.60561,-7.761277 7.60561,-7.925315 0,-0.164031 -1.833037,-2.127513 -4.073417,-4.363281 -2.240378,-2.235769 -4.073416,-4.168755 -4.073416,-4.295526 0,-0.126774 0.800156,-0.230492 1.778125,-0.230492 1.302209,0 1.824611,0.121146 1.951805,0.452601 0.09552,0.248931 0.394737,0.452601 0.664919,0.452601 0.559127,0 4.527929,2.612684 7.216182,4.75045 2.700965,2.147875 8.907247,8.296066 8.904651,8.821302 -0.0027,0.565209 -2.459981,3.023651 -3.022109,3.023651 -0.224437,0 -1.654184,-1.222025 -3.177219,-2.715611 -1.523032,-1.493586 -2.890296,-2.715612 -3.03836,-2.715612 -0.148072,0 -3.661686,3.394514 -7.808047,7.543364 -4.146359,4.148851 -7.613421,7.543365 -7.704578,7.543365 -0.09116,0 -0.765144,-0.610748 -1.497748,-1.357217 z m 14.784416,0.235318 c 0,-0.285136 0.356631,-0.824872 0.792514,-1.199415 0.673595,-0.578805 0.798102,-0.941745 0.829769,-2.418795 0.04465,-2.08223 0.474859,-2.312293 1.923098,-1.028398 0.828033,0.734069 0.980638,1.077425 0.980638,2.206409 0,1.888698 -1.124414,2.958629 -3.109291,2.958629 -1.138108,0 -1.416728,-0.101953 -1.416728,-0.51843 z M 32.518701,16.76631 c -1.424629,-1.45159 -1.504007,-1.719768 -0.719249,-2.429963 0.517264,-0.468118 0.626602,-0.433076 1.810407,0.580216 0.692942,0.593134 1.255577,1.305458 1.250298,1.582947 -0.0091,0.478036 -0.662182,1.560595 -0.941482,1.560595 -0.07162,0 -0.701606,-0.582207 -1.399974,-1.293795 z"
       id="path1" /></g></svg>
