<?xml version="1.0" encoding="UTF-8" standalone="no"?>
<!-- Created with Inkscape (http://www.inkscape.org/) -->

<svg
   width="50mm"
   height="50mm"
   viewBox="0 0 50 50"
   version="1.1"
   id="svg5"
   inkscape:version="1.4.3 (0d15f75, 2025-12-25)"
   sodipodi:docname="Sky-Clearing Swing.svg"
   inkscape:export-filename="circle50x50.png"
   inkscape:export-xdpi="96"
   inkscape:export-ydpi="96"
   xml:space="preserve"
   xmlns:inkscape="http://www.inkscape.org/namespaces/inkscape"
   xmlns:sodipodi="http://sodipodi.sourceforge.net/DTD/sodipodi-0.dtd"
   xmlns="http://www.w3.org/2000/svg"
   xmlns:svg="http://www.w3.org/2000/svg"><sodipodi:namedview
     id="namedview7"
     pagecolor="#505050"
     bordercolor="#eeeeee"
     borderopacity="1"
     inkscape:showpageshadow="0"
     inkscape:pageopacity="0"
     inkscape:pagecheckerboard="0"
     inkscape:deskcolor="#505050"
     inkscape:document-units="mm"
     showgrid="false"
     inkscape:zoom="2.0888418"
     inkscape:cx="142.90216"
     inkscape:cy="157.26418"
     inkscape:window-width="1920"
     inkscape:window-height="1009"
     inkscape:window-x="-8"
     inkscape:window-y="-8"
     inkscape:window-maximized="1"
     inkscape:current-layer="layer1" /><defs
     id="defs2" /><g
     inkscape:label="Layer 1"
     inkscape:groupmode="layer"
     id="layer1"><circle
       style="fill:none;stroke:#ffffff;stroke-width:1.119;stroke-opacity:1"
       id="path362"
       cx="25"
       cy="25"
       r="22.928829" /><path
       style="fill:#ffffff;fill-opacity:1;stroke-width:1.65153"
       d="m 30.580268,38.565919 c -1.089567,-0.6001 -2.958424,-2.552336 -2.958424,-3.090413 0,-0.270784 -0.196636,-0.567792 -0.436969,-0.660016 -0.57632,-0.221155 -0.569887,-2.461888 0.0092,-3.227598 0.235238,-0.31101 0.427705,-0.762206 0.427705,-1.002658 0,-0.697527 2.287575,-2.655896 3.102359,-2.655896 0.397651,0 0.945041,-0.118828 1.216419,-0.264067 0.491256,-0.262913 2.226923,0.08659 3.899999,0.785315 0.885081,0.369636 2.268469,2.357709 2.268469,3.260024 0,0.323628 0.131082,0.588413 0.291313,0.588413 0.160215,0 0.291311,0.393272 0.291311,0.873938 0,0.480666 -0.131099,0.873938 -0.291311,0.873938 -0.160216,0 -0.291313,0.365329 -0.291313,0.811845 0,0.899622 -2.262094,3.55784 -3.027658,3.55784 -0.238538,0 -0.514726,0.131083 -0.613747,0.291313 -0.254402,0.411632 -3.068895,0.308839 -3.887417,-0.141983 z m 4.164126,-2.500473 c 1.067853,-0.720685 1.325509,-1.060442 1.325509,-1.747874 0,-0.56428 -0.148011,-0.853298 -0.436969,-0.853298 -0.240333,0 -0.436968,0.131099 -0.436968,0.291312 0,0.160216 -0.22096,0.291313 -0.491021,0.291313 -0.270062,0 -0.789293,0.280211 -1.153844,0.62269 -0.576416,0.541513 -0.76875,0.577764 -1.475338,0.27807 -0.446884,-0.189541 -1.196857,-0.68061 -1.666612,-1.091265 l -0.854098,-0.746644 0.708443,-0.544542 c 0.389641,-0.299498 0.872304,-0.547456 1.072581,-0.551018 0.200277,-0.0036 0.36414,-0.137573 0.36414,-0.29779 0,-0.543 1.926194,-0.316389 2.476156,0.291313 0.289997,0.320442 0.843385,0.582623 1.22975,0.582623 0.594121,0 0.68826,-0.12327 0.610301,-0.799169 -0.06994,-0.60634 -0.385579,-0.944759 -1.308161,-1.402556 -0.66879,-0.331863 -1.410891,-0.765145 -1.64911,-0.96285 -0.29429,-0.244239 -0.493794,-0.261304 -0.622386,-0.05325 -0.104096,0.168424 -0.749779,0.561572 -1.43486,0.873662 -1.666171,0.759029 -2.05647,1.299428 -2.115362,2.92888 -0.04372,1.209668 0.06586,1.482186 0.91996,2.28779 0.533275,0.503 1.177519,0.914544 1.431652,0.914544 0.254134,0 0.46206,0.131083 0.46206,0.291313 0,0.608173 1.768436,0.257724 3.044177,-0.603265 z m -1.202905,-2.643015 c 0.225872,-0.358706 0.173389,-0.606923 -0.209225,-0.989537 -0.486759,-0.486761 -0.539327,-0.482125 -1.120238,0.09879 -0.516618,0.516619 -0.550651,0.680436 -0.223309,1.074861 0.461517,0.556094 1.137117,0.47599 1.552772,-0.18411 z M 12.245954,33.092992 c -0.515683,-0.532048 -0.937604,-1.18158 -0.937604,-1.443405 0,-0.261823 2.752902,-3.237573 6.117561,-6.612777 3.364657,-3.375203 6.117559,-6.237607 6.117559,-6.360898 0,-0.123287 -1.441996,-1.661688 -3.204437,-3.418664 -1.762438,-1.756973 -3.204435,-3.426143 -3.204435,-3.709264 0,-0.415883 0.251813,-0.514764 1.310906,-0.514764 0.720997,0 1.310906,0.131099 1.310906,0.291311 0,0.160216 0.254443,0.291313 0.565432,0.291313 0.310988,0 0.641683,0.123386 0.734879,0.274171 0.0932,0.150802 0.752743,0.565484 1.465659,0.921532 0.712917,0.356047 1.856991,1.146584 2.542386,1.756747 0.685394,0.610163 1.362105,1.113108 1.503801,1.117655 0.141701,0.0046 1.986589,1.707011 4.099763,3.783252 l 3.842137,3.774982 -1.552556,1.53327 -1.552557,1.533272 -2.407636,-2.39513 c -1.3242,-1.31732 -2.600442,-2.395129 -2.836093,-2.395129 -0.235649,0 -3.252118,2.821474 -6.703261,6.269943 l -6.274807,6.269945 z M 28.422953,16.329876 c -0.904069,-0.888827 -0.953337,-1.138565 -0.375155,-1.901683 0.389434,-0.513994 0.466217,-0.497294 1.738611,0.378135 1.490107,1.025222 1.555334,1.177361 0.798449,1.862334 -0.730518,0.661109 -1.223429,0.583867 -2.161905,-0.338786 z"
       id="path1" /></g></svg>
