<?xml version="1.0" encoding="UTF-8" standalone="no"?>
<!-- Created with Inkscape (http://www.inkscape.org/) -->

<svg
   width="50mm"
   height="50mm"
   viewBox="0 0 50 50"
   version="1.1"
   id="svg5"
   inkscape:version="1.4.3 (0d15f75, 2025-12-25)"
   sodipodi:docname="Survivor's Stamina.svg"
   inkscape:export-filename="circle50x50.png"
   inkscape:export-xdpi="96"
   inkscape:export-ydpi="96"
   xml:space="preserve"
   xmlns:inkscape="http://www.inkscape.org/namespaces/inkscape"
   xmlns:sodipodi="http://sodipodi.sourceforge.net/DTD/sodipodi-0.dtd"
   xmlns="http://www.w3.org/2000/svg"
   xmlns:svg="http://www.w3.org/2000/svg"><sodipodi:namedview
     id="namedview7"
     pagecolor="#505050"
     bordercolor="#eeeeee"
     borderopacity="1"
     inkscape:showpageshadow="0"
     inkscape:pageopacity="0"
     inkscape:pagecheckerboard="0"
     inkscape:deskcolor="#505050"
     inkscape:document-units="mm"
     showgrid="false"
     inkscape:zoom="2.0888418"
     inkscape:cx="142.90216"
     inkscape:cy="157.26418"
     inkscape:window-width="1920"
     inkscape:window-height="1009"
     inkscape:window-x="-8"
     inkscape:window-y="-8"
     inkscape:window-maximized="1"
     inkscape:current-layer="layer1" /><defs
     id="defs2" /><g
     inkscape:label="Layer 1"
     inkscape:groupmode="layer"
     id="layer1"><path
       style="baseline-shift:baseline;display:inline;overflow:visible;vector-effect:none;fill:currentColor;enable-background:accumulate;stop-color:#000000;stop-opacity:1;opacity:1"
       d="M 25,1.5117187 C 12.034381,1.5117187 1.5117188,12.034381 1.5117187,25 1.5117188,37.965619 12.034381,48.488281 25,48.488281 37.965619,48.488281 48.488281,37.965619 48.488281,25 48.488281,12.034381 37.965619,1.5117188 25,1.5117187 Z m 0,1.1191407 C 37.360866,2.6308594 47.369141,12.639134 47.369141,25 47.369141,37.360866 37.360866,47.369141 25,47.369141 12.639134,47.369141 2.6308594,37.360866 2.6308594,25 2.6308594,12.639134 12.639134,2.6308594 25,2.6308594 Z"
       id="path362" /><path
       style="fill:currentColor;stroke-width:1.62799;fill-opacity:1;stroke:none;stroke-opacity:1"
       d="m 24.32523,37.618324 c -0.239635,-0.222202 -0.435701,-0.462954 -0.435701,-0.535004 0,-0.07205 -0.767327,-0.92009 -1.705172,-1.884534 -0.937845,-0.964443 -1.705393,-1.803997 -1.705663,-1.865677 -2.69e-4,-0.06168 -0.230914,-0.265609 -0.512544,-0.453178 -0.281629,-0.187568 -0.555144,-0.475317 -0.60781,-0.639439 -0.05267,-0.164123 -0.205686,-0.298405 -0.340043,-0.298405 -0.134357,0 -0.244285,-0.07634 -0.244285,-0.169639 0,-0.0933 -0.661162,-0.841446 -1.469249,-1.662544 -0.808087,-0.821097 -1.939895,-2.024612 -2.515129,-2.674477 -0.575235,-0.649865 -1.180164,-1.321277 -1.344286,-1.492026 -0.164123,-0.170749 -0.298406,-0.368728 -0.298406,-0.439953 0,-0.07123 -0.153465,-0.225341 -0.341034,-0.342479 -0.187569,-0.117139 -0.341035,-0.319219 -0.341035,-0.449068 0,-0.129848 -0.115099,-0.280255 -0.255775,-0.334237 -0.140677,-0.05398 -0.255776,-0.256433 -0.255776,-0.449888 0,-0.193456 -0.1151,-0.395906 -0.255776,-0.449889 -0.160401,-0.06155 -0.258545,-0.329785 -0.263202,-0.719346 -0.0041,-0.341658 -0.07613,-0.966494 -0.160105,-1.388524 -0.185047,-0.929999 0.137876,-3.901145 0.460013,-4.232482 0.120488,-0.12393 0.21907,-0.375719 0.21907,-0.559533 0,-0.183814 0.108174,-0.375717 0.240387,-0.426452 0.132212,-0.05073 0.283281,-0.259341 0.335706,-0.46357 0.164146,-0.639453 2.001441,-2.33664 2.791622,-2.578741 0.211015,-0.06465 0.383664,-0.189111 0.383664,-0.276576 0,-0.08746 0.141676,-0.159026 0.314837,-0.159026 0.17316,0 0.557445,-0.121029 0.853966,-0.268954 0.840375,-0.419234 3.347012,-0.513363 4.287749,-0.161013 0.422031,0.158069 0.95916,0.330912 1.193621,0.384095 0.234461,0.05318 0.46466,0.143247 0.511552,0.200142 0.04689,0.05689 0.39219,0.328977 0.767327,0.604626 0.375139,0.275649 0.743432,0.601326 0.81843,0.723727 0.208133,0.339684 0.941891,0.266137 1.182091,-0.118486 0.11714,-0.187568 0.309622,-0.341034 0.427738,-0.341034 0.118118,0 0.214759,-0.06742 0.214759,-0.14983 0,-0.08241 0.230198,-0.245181 0.511552,-0.361722 0.281353,-0.11654 0.511552,-0.279315 0.511552,-0.361721 0,-0.08241 0.156165,-0.14983 0.347033,-0.14983 0.190869,0 0.552528,-0.134282 0.803686,-0.298406 0.368439,-0.240761 0.820195,-0.296172 2.338613,-0.286848 1.936206,0.01189 2.044644,0.03875 3.992228,0.988663 0.86751,0.423122 2.650158,2.084356 2.823811,2.631486 0.06554,0.206497 0.190725,0.37545 0.278189,0.37545 0.08747,0 0.159314,0.134282 0.159664,0.298405 3.51e-4,0.164123 0.167435,0.56697 0.371299,0.895216 0.339303,0.54632 0.370185,0.818268 0.365034,3.214538 -0.0037,1.722298 -0.07012,2.657586 -0.194168,2.734251 -0.103697,0.06409 -0.302052,0.3824 -0.44079,0.707359 -0.138738,0.324959 -0.430222,0.782667 -0.647744,1.017128 -0.217523,0.234461 -0.816764,0.917456 -1.331649,1.517766 -0.514885,0.60031 -1.5692,1.739902 -2.342921,2.532425 -0.773722,0.792523 -1.406768,1.463949 -1.406768,1.492058 0,0.0281 -0.767328,0.833605 -1.705172,1.789993 -0.937845,0.956388 -1.705393,1.788851 -1.705663,1.849918 -2.7e-4,0.06106 -0.230247,0.264496 -0.511062,0.452065 -0.280814,0.187569 -0.510791,0.392323 -0.511061,0.455008 -2.7e-4,0.06269 -0.288238,0.416513 -0.63993,0.786283 -0.351692,0.369769 -0.925415,1.003999 -1.27494,1.409399 -0.737786,0.855726 -1.137396,0.943461 -1.742334,0.38253 z m 1.273272,-3.213731 c 0.08705,-0.228965 0.236908,-0.416299 0.333014,-0.416299 0.09611,0 0.174738,-0.08126 0.174738,-0.180581 0,-0.09932 -0.0677,-0.138738 -0.150449,-0.0876 -0.08275,0.05114 -0.154669,-0.212896 -0.159829,-0.586746 -0.0052,-0.373852 0.04614,-0.67973 0.114009,-0.67973 0.06787,0 0.143671,-1.771782 0.168459,-3.937293 0.03111,-2.718568 -0.01038,-3.903022 -0.134079,-3.826575 -0.102374,0.06327 -0.179146,-0.03543 -0.179146,-0.230316 0,-0.187569 0.07673,-0.388458 0.170518,-0.44642 0.298326,-0.184375 0.183777,-1.104236 -0.202585,-1.626819 -0.43542,-0.588936 -0.855189,-0.640494 -1.332071,-0.163612 -0.327457,0.327458 -0.341034,0.568391 -0.341034,6.052065 0,5.461817 0.01484,5.728104 0.340178,6.10227 0.467431,0.537593 0.999728,0.549878 1.198277,0.02766 z m 4.351694,-4.606281 c 0.793152,-0.803938 1.442093,-1.494183 1.442093,-1.533877 0,-0.03969 0.633045,-0.712267 1.406767,-1.494606 2.095327,-2.118662 2.834574,-2.949138 3.054152,-3.43106 0.108783,-0.238753 0.252221,-0.434097 0.318749,-0.434097 0.263967,0 0.532359,-2.132705 0.416779,-3.311818 -0.116166,-1.185098 -0.791168,-2.997321 -1.116416,-2.997321 -0.08697,0 -0.1593,-0.09592 -0.160725,-0.213146 -0.0032,-0.266954 -1.616174,-1.463842 -2.154884,-1.599049 -0.220156,-0.05526 -0.400284,-0.168879 -0.400284,-0.252497 0,-0.08362 -0.844061,-0.152032 -1.87569,-0.152032 -1.112495,0 -1.87569,0.06806 -1.87569,0.167269 0,0.092 -0.211015,0.218101 -0.468922,0.28023 -0.257908,0.06213 -0.584022,0.215316 -0.724698,0.340417 -0.772728,0.687167 -1.955872,1.905136 -2.174755,2.238765 -0.13844,0.211016 -0.377167,0.383179 -0.530503,0.382585 -0.153337,-5.93e-4 -0.732669,-0.500299 -1.287405,-1.110457 -0.554735,-0.610158 -1.411799,-1.377 -1.904586,-1.704093 -0.871665,-0.578578 -0.941641,-0.594716 -2.578828,-0.594716 -1.725383,0 -2.052261,0.09074 -3.374873,0.936811 -0.731559,0.467978 -1.790431,1.589334 -1.790431,1.896083 0,0.143428 -0.108916,0.369693 -0.242037,0.502813 -0.545489,0.545489 -0.554232,4.71665 -0.01074,5.123696 0.139027,0.104123 0.252776,0.270253 0.252776,0.369178 0,0.293991 0.965318,1.367106 5.017671,5.577995 0.991661,1.030456 1.80302,1.932066 1.80302,2.003578 0,0.07151 0.152003,0.13002 0.337786,0.13002 0.443794,0 0.501665,-0.30488 0.566426,-2.984052 0.05133,-2.123393 -0.04472,-2.643017 -0.488523,-2.643017 -0.06612,0 -0.480905,0.366416 -0.921738,0.814258 -0.568898,0.577941 -0.896331,0.788266 -1.128208,0.724698 -0.516729,-0.141658 -1.094549,-0.729875 -1.088347,-1.10793 0.0064,-0.388837 0.547489,-1.113096 0.831617,-1.113096 0.102198,0 0.185814,-0.07324 0.185814,-0.162766 0,-0.211509 0.819346,-1.030854 1.030854,-1.030854 0.08952,0 0.162767,-0.1151 0.162767,-0.255776 0,-0.140677 0.115099,-0.255776 0.255776,-0.255776 0.140677,0 0.255776,-0.05886 0.255776,-0.130805 0,-0.140122 2.523782,-2.767988 2.658355,-2.767988 0.04419,0 0.316143,-0.268565 0.604346,-0.596811 0.288204,-0.328246 0.629546,-0.59681 0.758538,-0.59681 0.317075,0 6.785608,6.479486 6.842826,6.854411 0.04796,0.314286 -0.690159,1.100507 -1.179129,1.255966 -0.193574,0.06154 -0.520314,-0.151868 -0.980474,-0.640396 -0.379583,-0.402984 -0.690151,-0.790664 -0.690151,-0.861512 0,-0.07085 -0.230199,-0.128813 -0.511552,-0.128813 h -0.511552 v 2.984052 c 0,2.575636 0.03601,2.984052 0.263081,2.984052 0.144694,0 0.912022,-0.657768 1.705172,-1.461706 z"
       id="path1" /></g></svg>
