<?xml version="1.0" encoding="UTF-8" standalone="no"?>
<!-- Created with Inkscape (http://www.inkscape.org/) -->

<svg
   width="50mm"
   height="50mm"
   viewBox="0 0 50 50"
   version="1.1"
   id="svg5"
   inkscape:version="1.4.3 (0d15f75, 2025-12-25)"
   sodipodi:docname="Turtle Crawl.svg"
   inkscape:export-filename="circle50x50.png"
   inkscape:export-xdpi="96"
   inkscape:export-ydpi="96"
   xml:space="preserve"
   xmlns:inkscape="http://www.inkscape.org/namespaces/inkscape"
   xmlns:sodipodi="http://sodipodi.sourceforge.net/DTD/sodipodi-0.dtd"
   xmlns="http://www.w3.org/2000/svg"
   xmlns:svg="http://www.w3.org/2000/svg"><sodipodi:namedview
     id="namedview7"
     pagecolor="#505050"
     bordercolor="#eeeeee"
     borderopacity="1"
     inkscape:showpageshadow="0"
     inkscape:pageopacity="0"
     inkscape:pagecheckerboard="0"
     inkscape:deskcolor="#505050"
     inkscape:document-units="mm"
     showgrid="false"
     inkscape:zoom="2.0888418"
     inkscape:cx="142.90216"
     inkscape:cy="157.26418"
     inkscape:window-width="1920"
     inkscape:window-height="1009"
     inkscape:window-x="-8"
     inkscape:window-y="-8"
     inkscape:window-maximized="1"
     inkscape:current-layer="layer1" /><defs
     id="defs2" /><g
     inkscape:label="Layer 1"
     inkscape:groupmode="layer"
     id="layer1"><path
       style="baseline-shift:baseline;display:inline;overflow:visible;vector-effect:none;fill:currentColor;enable-background:accumulate;stop-color:#000000;stop-opacity:1;opacity:1"
       d="M 25,1.5117187 C 12.034381,1.5117187 1.5117188,12.034381 1.5117187,25 1.5117188,37.965619 12.034381,48.488281 25,48.488281 37.965619,48.488281 48.488281,37.965619 48.488281,25 48.488281,12.034381 37.965619,1.5117188 25,1.5117187 Z m 0,1.1191407 C 37.360866,2.6308594 47.369141,12.639134 47.369141,25 47.369141,37.360866 37.360866,47.369141 25,47.369141 12.639134,47.369141 2.6308594,37.360866 2.6308594,25 2.6308594,12.639134 12.639134,2.6308594 25,2.6308594 Z"
       id="path362" /><path
       style="fill:currentColor;stroke-width:1.62799;fill-opacity:1;stroke:none;stroke-opacity:1"
       d="m 18.855381,30.206448 v -2.926009 h 9.948431 9.94843 v 2.926009 2.926009 h -2.048206 c -1.794619,0 -2.048206,-0.181134 -2.048206,-1.463005 v -1.463004 h -5.852018 -5.852017 v 1.463004 c 0,1.281871 -0.253588,1.463005 -2.048207,1.463005 h -2.048206 z m -6.90538,-5.383856 c -0.386234,-0.386234 -0.702242,-1.702938 -0.702242,-2.926009 0,-2.184753 0.03902,-2.223767 2.223768,-2.223767 2.802754,0 3.628249,0.825495 3.628249,3.62825 0,2.184754 -0.03902,2.223768 -2.223767,2.223768 -1.223071,0 -2.539775,-0.316009 -2.926008,-0.702242 z m 7.467188,-0.971794 c 0.26406,-0.920719 0.795915,-2.264126 1.181898,-2.985345 l 0.701792,-1.311309 1.702814,1.631399 1.702814,1.631399 -1.271967,1.353945 c -0.732678,0.779901 -1.955737,1.353947 -2.884712,1.353947 -1.496232,0 -1.578059,-0.120946 -1.132639,-1.674036 z m 5.875412,0.796233 c 0.438699,-0.528601 1.719106,-0.877802 3.218609,-0.877802 1.499503,0 2.77991,0.349201 3.21861,0.877802 0.635319,0.765513 0.22359,0.877803 -3.21861,0.877803 -3.4422,0 -3.853929,-0.112287 -3.218609,-0.877803 z m 8.295279,-0.476144 -1.271965,-1.353945 1.640879,-1.572062 c 0.902485,-0.864635 1.814711,-1.572064 2.02717,-1.572064 0.50705,0 1.603873,2.076854 2.206469,4.177982 0.458142,1.597447 0.392936,1.674036 -1.42524,1.674036 -1.234797,0 -2.352991,-0.476495 -3.177313,-1.353947 z m -8.591577,-3.916728 c -1.277294,-1.333207 -1.521468,-1.923666 -1.007881,-2.437253 0.961574,-0.961575 6.542002,-1.296995 8.567044,-0.514937 l 1.703448,0.657861 -1.964546,2.026896 c -2.568989,2.650524 -4.931961,2.737114 -7.298065,0.267433 z"
       id="path1" /></g></svg>
