<?xml version="1.0" encoding="UTF-8" standalone="no"?>
<!-- Created with Inkscape (http://www.inkscape.org/) -->

<svg
   width="50mm"
   height="50mm"
   viewBox="0 0 50 50"
   version="1.1"
   id="svg5"
   inkscape:version="1.4.3 (0d15f75, 2025-12-25)"
   sodipodi:docname="Unburdened Roll.svg"
   inkscape:export-filename="circle50x50.png"
   inkscape:export-xdpi="96"
   inkscape:export-ydpi="96"
   xml:space="preserve"
   xmlns:inkscape="http://www.inkscape.org/namespaces/inkscape"
   xmlns:sodipodi="http://sodipodi.sourceforge.net/DTD/sodipodi-0.dtd"
   xmlns="http://www.w3.org/2000/svg"
   xmlns:svg="http://www.w3.org/2000/svg"><sodipodi:namedview
     id="namedview7"
     pagecolor="#505050"
     bordercolor="#eeeeee"
     borderopacity="1"
     inkscape:showpageshadow="0"
     inkscape:pageopacity="0"
     inkscape:pagecheckerboard="0"
     inkscape:deskcolor="#505050"
     inkscape:document-units="mm"
     showgrid="false"
     inkscape:zoom="2.0888418"
     inkscape:cx="142.90216"
     inkscape:cy="157.26418"
     inkscape:window-width="1920"
     inkscape:window-height="1009"
     inkscape:window-x="-8"
     inkscape:window-y="-8"
     inkscape:window-maximized="1"
     inkscape:current-layer="layer1" /><defs
     id="defs2" /><g
     inkscape:label="Layer 1"
     inkscape:groupmode="layer"
     id="layer1"><circle
       style="fill:none;stroke:#ffffff;stroke-width:1.119;stroke-opacity:1"
       id="path362"
       cx="25"
       cy="25"
       r="22.928829" /><path
       style="fill:#ffffff;fill-opacity:1;stroke-width:1.63332"
       d="m 22.407095,38.635874 c -3.912258,-1.334941 -6.728566,-4.603735 -7.4831,-8.685373 -0.16258,-0.879516 -0.295613,-5.464666 -0.295613,-10.189222 v -8.590101 h 5.041759 5.041759 v 1.296452 1.296453 h -3.617483 -3.617482 l 0.08825,8.282887 0.08825,8.282889 0.807606,1.440502 c 0.444182,0.792277 1.13414,1.781438 1.533238,2.198137 0.837428,0.874359 2.805202,1.915456 3.853315,2.038687 0.640558,0.07531 0.729967,0.236101 0.808062,1.453161 l 0.08781,1.368476 -0.952113,-0.02275 c -0.523661,-0.01258 -1.146579,-0.0891 -1.384263,-0.170204 z m 3.745306,-0.54168 c 0,-0.712281 0.05039,-0.732 1.656578,-0.648225 1.467495,0.07654 1.667086,0.160392 1.748642,0.734627 0.0868,0.611146 -0.008,0.648226 -1.65658,0.648226 -1.682274,0 -1.74864,-0.02789 -1.74864,-0.734628 z m 0,-3.73093 c 0,-0.717722 0.0096,-0.72025 2.736954,-0.72025 2.727352,0 2.736956,0.0025 2.736956,0.72025 0,0.717724 -0.0096,0.720252 -2.736956,0.720252 -2.72735,0 -2.736954,-0.0025 -2.736954,-0.720252 z m 0,-3.745305 v -0.72025 h 3.745307 3.745306 v 0.72025 0.720252 h -3.745305 -3.745307 z m 0,-3.889356 c 0,-0.550592 0.192068,-0.576202 4.321507,-0.576202 4.129441,0 4.321508,0.02561 4.321508,0.576202 0,0.550593 -0.192068,0.576201 -4.321508,0.576201 -4.129439,0 -4.321507,-0.02561 -4.321507,-0.576201 z m 0,-3.745307 c 0,-0.551417 0.192068,-0.5762 4.465557,-0.5762 4.273493,0 4.465558,0.02478 4.465558,0.5762 0,0.551419 -0.192066,0.576202 -4.465558,0.576202 -4.273489,0 -4.465557,-0.02478 -4.465557,-0.576202 z m 0,-3.889356 v -0.720252 h 4.609607 4.60961 v 0.720252 0.720252 h -4.60961 -4.609607 z m 0,-3.745305 v -0.720251 h 4.609607 4.60961 v 0.720251 0.72025 h -4.60961 -4.609607 z m 0,-3.457205 v -0.720252 h 4.609607 4.60961 v 0.720252 0.72025 h -4.60961 -4.609607 z"
       id="path1" /></g></svg>
