<?xml version="1.0" encoding="UTF-8" standalone="no"?>
<!-- Created with Inkscape (http://www.inkscape.org/) -->

<svg
   width="50mm"
   height="50mm"
   viewBox="0 0 50 50"
   version="1.1"
   id="svg5"
   inkscape:version="1.4.3 (0d15f75, 2025-12-25)"
   sodipodi:docname="Used To The Weight.svg"
   inkscape:export-filename="circle50x50.png"
   inkscape:export-xdpi="96"
   inkscape:export-ydpi="96"
   xml:space="preserve"
   xmlns:inkscape="http://www.inkscape.org/namespaces/inkscape"
   xmlns:sodipodi="http://sodipodi.sourceforge.net/DTD/sodipodi-0.dtd"
   xmlns="http://www.w3.org/2000/svg"
   xmlns:svg="http://www.w3.org/2000/svg"><sodipodi:namedview
     id="namedview7"
     pagecolor="#505050"
     bordercolor="#eeeeee"
     borderopacity="1"
     inkscape:showpageshadow="0"
     inkscape:pageopacity="0"
     inkscape:pagecheckerboard="0"
     inkscape:deskcolor="#505050"
     inkscape:document-units="mm"
     showgrid="false"
     inkscape:zoom="2.0888418"
     inkscape:cx="142.90216"
     inkscape:cy="157.26418"
     inkscape:window-width="1920"
     inkscape:window-height="1009"
     inkscape:window-x="-8"
     inkscape:window-y="-8"
     inkscape:window-maximized="1"
     inkscape:current-layer="layer1" /><defs
     id="defs2" /><g
     inkscape:label="Layer 1"
     inkscape:groupmode="layer"
     id="layer1"><circle
       style="fill:none;stroke:#ffffff;stroke-width:1.119;stroke-opacity:1"
       id="path362"
       cx="25"
       cy="25"
       r="22.928829" /><path
       style="fill:#ffffff;stroke-width:0.728849;fill-opacity:1"
       d="m 11.803618,38.153238 c -0.338994,-0.349752 -0.616352,-0.762205 -0.616352,-0.91656 0,-0.377894 24.50796,-24.86677 24.886149,-24.86677 0.163776,0 0.638615,0.349053 1.055198,0.775673 l 0.757424,0.775672 -12.432829,12.43395 c -6.838056,6.838673 -12.567921,12.43395 -12.733033,12.43395 -0.165112,0 -0.577563,-0.286161 -0.916557,-0.635915 z m 6.325931,-1.98259 c 0,-0.06136 1.410151,-1.579959 3.133669,-3.374657 l 3.13367,-3.263085 2.651567,-6.5e-5 c 2.403485,-6e-5 2.651566,0.03172 2.651566,0.339667 0,0.186853 -1.367749,1.705477 -3.039442,3.374721 l -3.039442,3.034989 h -2.745794 c -1.510186,0 -2.745794,-0.05021 -2.745794,-0.11157 z m -4.435348,-6.984425 v -2.660648 l 3.326511,-3.108972 3.326511,-3.108972 0.05375,2.724628 0.05375,2.724628 -3.04053,3.044991 c -1.672292,1.674746 -3.19341,3.044992 -3.380263,3.044992 -0.308,0 -0.339732,-0.248515 -0.339732,-2.660647 z M 26.421721,27.9171 c 0,-0.146182 0.572185,-0.883799 1.271524,-1.63915 l 1.271524,-1.373363 h 2.778141 c 2.184122,0 2.778141,0.05488 2.778141,0.256672 0,0.141169 -0.64159,0.878786 -1.425756,1.63915 l -1.425756,1.382478 H 29.04563 c -2.100801,0 -2.623909,-0.05299 -2.623909,-0.265787 z m -4.628189,-6.932703 v -2.5703 l 1.396697,-1.382944 c 0.768184,-0.760619 1.505801,-1.382944 1.63915,-1.382944 0.18339,0 0.242453,0.670785 0.242453,2.753558 v 2.753558 l -1.210446,1.199687 c -0.754976,0.748265 -1.371759,1.199686 -1.63915,1.199686 -0.421602,0 -0.428704,-0.04258 -0.428704,-2.570301 z m 9.256377,2.219802 c 0,-0.433682 7.649398,-7.845161 7.758668,-7.517351 0.04259,0.127758 -0.246915,1.656976 -0.643336,3.398262 -0.647955,2.846154 -0.784584,3.231819 -1.352521,3.817781 l -0.631756,0.651807 h -2.565527 c -2.351126,0 -2.565528,-0.02929 -2.565528,-0.350499 z M 26.421721,16.451694 V 13.97688 l 3.712193,-1.384023 c 2.041706,-0.761212 3.820666,-1.383116 3.953244,-1.382008 0.696254,0.0058 -0.08798,1.009532 -3.280204,4.198264 -2.469289,2.466582 -3.650312,3.517396 -3.953245,3.517396 -0.424983,0 -0.431988,-0.04013 -0.431988,-2.474815 z"
       id="path1" /></g></svg>
