<?xml version="1.0" encoding="UTF-8" standalone="no"?>
<!-- Created with Inkscape (http://www.inkscape.org/) -->

<svg
   width="50mm"
   height="50mm"
   viewBox="0 0 50 50"
   version="1.1"
   id="svg5"
   inkscape:version="1.4.3 (0d15f75, 2025-12-25)"
   sodipodi:docname="Agile Croucher.svg"
   inkscape:export-filename="circle50x50.png"
   inkscape:export-xdpi="96"
   inkscape:export-ydpi="96"
   xml:space="preserve"
   xmlns:inkscape="http://www.inkscape.org/namespaces/inkscape"
   xmlns:sodipodi="http://sodipodi.sourceforge.net/DTD/sodipodi-0.dtd"
   xmlns="http://www.w3.org/2000/svg"
   xmlns:svg="http://www.w3.org/2000/svg"><sodipodi:namedview
     id="namedview7"
     pagecolor="#505050"
     bordercolor="#eeeeee"
     borderopacity="1"
     inkscape:showpageshadow="0"
     inkscape:pageopacity="0"
     inkscape:pagecheckerboard="0"
     inkscape:deskcolor="#505050"
     inkscape:document-units="mm"
     showgrid="false"
     inkscape:zoom="2.0888418"
     inkscape:cx="142.66279"
     inkscape:cy="157.26418"
     inkscape:window-width="1920"
     inkscape:window-height="1009"
     inkscape:window-x="-8"
     inkscape:window-y="-8"
     inkscape:window-maximized="1"
     inkscape:current-layer="layer1" /><defs
     id="defs2" /><g
     inkscape:label="Layer 1"
     inkscape:groupmode="layer"
     id="layer1"><path
       style="baseline-shift:baseline;display:inline;overflow:visible;vector-effect:none;fill:currentColor;enable-background:accumulate;stop-color:#000000;stop-opacity:1;opacity:1"
       d="M 25,1.5117187 C 12.034381,1.5117187 1.5117188,12.034381 1.5117187,25 1.5117188,37.965619 12.034381,48.488281 25,48.488281 37.965619,48.488281 48.488281,37.965619 48.488281,25 48.488281,12.034381 37.965619,1.5117188 25,1.5117187 Z m 0,1.1191407 C 37.360866,2.6308594 47.369141,12.639134 47.369141,25 47.369141,37.360866 37.360866,47.369141 25,47.369141 12.639134,47.369141 2.6308594,37.360866 2.6308594,25 2.6308594,12.639134 12.639134,2.6308594 25,2.6308594 Z"
       id="path362" /><path
       style="fill:currentColor;fill-opacity:1;stroke-width:1.58522"
       d="m 26.312032,34.734638 -0.800895,-0.729309 4.906559,-4.473804 4.906561,-4.473804 -4.912608,-4.479318 -4.912606,-4.479317 0.895796,-0.781515 0.895797,-0.781517 5.776271,5.259971 5.776272,5.259974 -5.709141,5.203973 c -3.140026,2.862185 -5.779333,5.203974 -5.865126,5.203974 -0.08578,0 -0.516388,-0.32819 -0.95688,-0.729308 z m -2.92954,-2.667688 -0.800264,-0.728736 3.439496,-3.140246 3.439497,-3.140247 -3.445525,-3.14575 -3.445527,-3.14575 0.894987,-0.780812 0.894989,-0.780812 4.310703,3.925401 4.310704,3.925401 -4.242439,3.870142 c -2.333341,2.128579 -4.313071,3.870143 -4.399397,3.870143 -0.08633,0 -0.517078,-0.327931 -0.957224,-0.728734 z m -3.86643,-1.664855 -0.850442,-0.808327 0.842184,-0.800478 0.842185,-0.800479 h -4.596583 -4.596585 v -1.067306 -1.067304 h 5.824461 c 4.819832,0 5.887379,-0.06904 6.189234,-0.400239 0.29102,-0.319317 0.29102,-0.481165 0,-0.80048 -0.301855,-0.331204 -1.369402,-0.400239 -6.189234,-0.400239 h -5.824461 v -1.067305 -1.067306 h 4.596585 4.596583 l -0.788561,-0.749512 -0.788563,-0.749514 0.888833,-0.775441 0.888832,-0.77544 3.286265,2.99253 3.286264,2.992529 -3.378278,3.076318 -3.378278,3.076318 z"
       id="path1" /></g></svg>
