<?xml version="1.0" encoding="UTF-8" standalone="no"?>
<!-- Created with Inkscape (http://www.inkscape.org/) -->

<svg
   width="50mm"
   height="50mm"
   viewBox="0 0 50 50"
   version="1.1"
   id="svg5"
   inkscape:version="1.4.3 (0d15f75, 2025-12-25)"
   sodipodi:docname="Broad Shoulders.svg"
   inkscape:export-filename="circle50x50.png"
   inkscape:export-xdpi="96"
   inkscape:export-ydpi="96"
   xml:space="preserve"
   xmlns:inkscape="http://www.inkscape.org/namespaces/inkscape"
   xmlns:sodipodi="http://sodipodi.sourceforge.net/DTD/sodipodi-0.dtd"
   xmlns="http://www.w3.org/2000/svg"
   xmlns:svg="http://www.w3.org/2000/svg"><sodipodi:namedview
     id="namedview7"
     pagecolor="#505050"
     bordercolor="#eeeeee"
     borderopacity="1"
     inkscape:showpageshadow="0"
     inkscape:pageopacity="0"
     inkscape:pagecheckerboard="0"
     inkscape:deskcolor="#505050"
     inkscape:document-units="mm"
     showgrid="false"
     inkscape:zoom="2.0888418"
     inkscape:cx="142.66279"
     inkscape:cy="157.26418"
     inkscape:window-width="1920"
     inkscape:window-height="1009"
     inkscape:window-x="-8"
     inkscape:window-y="-8"
     inkscape:window-maximized="1"
     inkscape:current-layer="layer1" /><defs
     id="defs2" /><g
     inkscape:label="Layer 1"
     inkscape:groupmode="layer"
     id="layer1"><path
       style="baseline-shift:baseline;display:inline;overflow:visible;vector-effect:none;fill:currentColor;enable-background:accumulate;stop-color:#000000;stop-opacity:1;opacity:1"
       d="M 25,1.5117187 C 12.034381,1.5117187 1.5117188,12.034381 1.5117187,25 1.5117188,37.965619 12.034381,48.488281 25,48.488281 37.965619,48.488281 48.488281,37.965619 48.488281,25 48.488281,12.034381 37.965619,1.5117188 25,1.5117187 Z m 0,1.1191407 C 37.360866,2.6308594 47.369141,12.639134 47.369141,25 47.369141,37.360866 37.360866,47.369141 25,47.369141 12.639134,47.369141 2.6308594,37.360866 2.6308594,25 2.6308594,12.639134 12.639134,2.6308594 25,2.6308594 Z"
       id="path362" /><path
       style="fill:currentColor;fill-opacity:1;stroke-width:1.68556"
       d="m 11.059945,36.732743 c -0.201693,-0.491113 0.721348,-4.694236 2.051204,-9.340277 l 2.417917,-8.447344 2.581737,-0.176747 c 2.489468,-0.170427 2.581736,-0.246662 2.581736,-2.133057 0,-3.732245 4.397195,-5.625442 7.265823,-3.128273 0.87515,0.761823 1.346297,1.856013 1.346297,3.126626 0,1.841008 0.133151,1.965035 2.289853,2.133057 l 2.289854,0.178394 2.714897,8.434934 c 1.493193,4.639215 2.547583,8.842338 2.343089,9.340277 -0.322831,0.786076 -2.159707,0.90534 -13.943752,0.90534 -11.704211,0 -13.62241,-0.122883 -13.938655,-0.89293 z m 15.784108,-5.142326 c 0,-1.852088 0.146474,-2.011752 1.845454,-2.011752 1.558384,0 1.845455,-0.223527 1.845455,-1.436964 0,-1.213437 -0.287071,-1.436967 -1.845455,-1.436967 -1.698989,0 -1.845454,-0.159657 -1.845454,-2.011751 0,-1.852088 -0.146456,-2.011752 -1.845453,-2.011752 -1.698991,0 -1.845454,0.159657 -1.845454,2.011752 0,1.85209 -0.146474,2.011751 -1.845455,2.011751 -1.558383,0 -1.845454,0.22353 -1.845454,1.436967 0,1.213437 0.287071,1.436964 1.845454,1.436964 1.69899,0 1.845455,0.159657 1.845455,2.011752 0,1.85209 0.146456,2.011753 1.845454,2.011753 1.698988,0 1.845453,-0.159657 1.845453,-2.011753 z m 0.63027,-13.811889 c 1.312341,-1.477514 -0.179831,-3.719089 -2.475723,-3.719089 -1.39368,0 -2.048702,0.362719 -2.564234,1.419943 -0.892795,1.830895 0.194306,3.178347 2.564234,3.178347 0.932145,0 2.04622,-0.39564 2.475723,-0.879201 z"
       id="path1" /></g></svg>
