<?xml version="1.0" encoding="UTF-8" standalone="no"?>
<!-- Created with Inkscape (http://www.inkscape.org/) -->

<svg
   width="50mm"
   height="50mm"
   viewBox="0 0 50 50"
   version="1.1"
   id="svg5"
   inkscape:version="1.4.3 (0d15f75, 2025-12-25)"
   sodipodi:docname="Good As New.svg"
   inkscape:export-filename="circle50x50.png"
   inkscape:export-xdpi="96"
   inkscape:export-ydpi="96"
   xml:space="preserve"
   xmlns:inkscape="http://www.inkscape.org/namespaces/inkscape"
   xmlns:sodipodi="http://sodipodi.sourceforge.net/DTD/sodipodi-0.dtd"
   xmlns="http://www.w3.org/2000/svg"
   xmlns:svg="http://www.w3.org/2000/svg"><sodipodi:namedview
     id="namedview7"
     pagecolor="#505050"
     bordercolor="#eeeeee"
     borderopacity="1"
     inkscape:showpageshadow="0"
     inkscape:pageopacity="0"
     inkscape:pagecheckerboard="0"
     inkscape:deskcolor="#505050"
     inkscape:document-units="mm"
     showgrid="false"
     inkscape:zoom="2.0888418"
     inkscape:cx="142.90216"
     inkscape:cy="157.26418"
     inkscape:window-width="1920"
     inkscape:window-height="1009"
     inkscape:window-x="-8"
     inkscape:window-y="-8"
     inkscape:window-maximized="1"
     inkscape:current-layer="layer1" /><defs
     id="defs2" /><g
     inkscape:label="Layer 1"
     inkscape:groupmode="layer"
     id="layer1"><path
       style="baseline-shift:baseline;display:inline;overflow:visible;vector-effect:none;fill:currentColor;enable-background:accumulate;stop-color:#000000;stop-opacity:1;opacity:1"
       d="M 25,1.5117187 C 12.034381,1.5117187 1.5117188,12.034381 1.5117187,25 1.5117188,37.965619 12.034381,48.488281 25,48.488281 37.965619,48.488281 48.488281,37.965619 48.488281,25 48.488281,12.034381 37.965619,1.5117188 25,1.5117187 Z m 0,1.1191407 C 37.360866,2.6308594 47.369141,12.639134 47.369141,25 47.369141,37.360866 37.360866,47.369141 25,47.369141 12.639134,47.369141 2.6308594,37.360866 2.6308594,25 2.6308594,12.639134 12.639134,2.6308594 25,2.6308594 Z"
       id="path362" /><path
       style="fill:currentColor;fill-opacity:1;stroke-width:0.631357"
       d="m 24.160156,37.147657 c -1.846755,-1.946416 -4.547965,-4.628294 -4.604605,-4.571654 -0.03714,0.03714 -0.09257,0.611129 -0.123172,1.275537 -0.03611,0.783744 -0.135254,1.258454 -0.282307,1.351632 -0.307167,0.19463 -1.526232,0.186212 -2.053297,-0.01418 l -0.428492,-0.16291 v -3.766818 -3.766817 l 0.428492,-0.162912 c 0.542225,-0.206154 6.922044,-0.21033 7.247007,-0.0047 0.156213,0.09883 0.266012,0.531338 0.309912,1.220779 0.09152,1.437334 -0.123223,1.656713 -1.575691,1.609692 -0.58694,-0.019 -1.110299,0.0086 -1.163019,0.06131 -0.175045,0.175044 2.801431,3.297823 3.14332,3.297823 0.117037,0 0.776596,-0.597335 1.465686,-1.327413 1.290215,-1.366956 4.850239,-5.126954 6.180767,-6.527953 1.148367,-1.20919 2.414796,-2.684928 2.485734,-2.896565 0.03496,-0.104292 0.184928,-0.328651 0.333267,-0.498576 0.401283,-0.459679 0.360885,-3.312957 -0.0583,-4.11778 -0.523375,-1.004862 -1.089653,-1.638075 -1.982292,-2.216602 -0.867988,-0.562551 -2.558508,-1.025463 -3.201906,-0.876772 -1.32817,0.306943 -1.688301,0.455933 -2.352081,0.973079 -0.412105,0.321068 -0.960832,0.875798 -1.219394,1.232732 -0.50551,0.697836 -1.447136,1.555749 -1.707555,1.555749 -0.20009,0 -1.089889,-0.886978 -1.714508,-1.709072 -1.824628,-2.401493 -5.03169,-2.656999 -7.456967,-0.594095 -0.293612,0.249742 -0.777035,0.971571 -1.202541,1.795587 -0.390509,0.756243 -0.426921,3.447931 -0.05332,3.94187 0.134891,0.178342 0.247648,0.406489 0.25057,0.506993 0.0029,0.100503 0.375692,0.569032 0.828379,1.041175 1.090001,1.13685 1.169502,1.427821 0.571301,2.090939 -0.701038,0.777113 -1.112768,1.104001 -1.395795,1.108173 -0.538905,0.0079 -2.98691,-3.18492 -3.006951,-3.921881 -0.005,-0.183752 -0.119452,-0.48001 -0.254343,-0.658352 -0.335901,-0.444101 -0.331984,-3.345391 0.0053,-3.93543 0.131303,-0.229689 0.241395,-0.582723 0.244651,-0.784522 0.01482,-0.918619 2.594918,-4.216455 3.305089,-4.224508 0.114845,-0.0013 0.208809,-0.06747 0.208809,-0.147039 0,-0.07957 0.564521,-0.350563 1.25449,-0.602209 1.164374,-0.424671 1.395372,-0.452263 3.215647,-0.384105 2.240988,0.08391 2.978648,0.337045 4.254256,1.459879 0.420753,0.370362 0.846596,0.673386 0.946316,0.673386 0.09972,0 0.614382,-0.324542 1.143693,-0.721203 1.684987,-1.262719 2.434447,-1.48553 4.782584,-1.421841 1.881963,0.05105 2.103838,0.09288 3.112233,0.586815 1.293244,0.633462 3.263584,2.460587 3.664587,3.398224 0.09718,0.227223 0.243249,0.525891 0.324603,0.663704 0.639816,1.083851 0.870517,4.289703 0.408716,5.679584 -0.579841,1.745152 -1.04619,2.424692 -3.169602,4.618593 -0.472878,0.488576 -1.06505,1.133891 -1.315938,1.434034 -0.588244,0.70373 -2.634823,2.862685 -5.940851,6.26706 -1.756398,1.808646 -2.753106,2.714507 -2.986737,2.714507 -0.192857,0 -0.582445,-0.244306 -0.865752,-0.542901 z"
       id="path1" /></g></svg>
