<?xml version="1.0" encoding="UTF-8" standalone="no"?>
<!-- Created with Inkscape (http://www.inkscape.org/) -->

<svg
   width="50mm"
   height="50mm"
   viewBox="0 0 50 50"
   version="1.1"
   id="svg5"
   inkscape:version="1.4.3 (0d15f75, 2025-12-25)"
   sodipodi:docname="In-round Crafting.svg"
   inkscape:export-filename="circle50x50.png"
   inkscape:export-xdpi="96"
   inkscape:export-ydpi="96"
   xml:space="preserve"
   xmlns:inkscape="http://www.inkscape.org/namespaces/inkscape"
   xmlns:sodipodi="http://sodipodi.sourceforge.net/DTD/sodipodi-0.dtd"
   xmlns="http://www.w3.org/2000/svg"
   xmlns:svg="http://www.w3.org/2000/svg"><sodipodi:namedview
     id="namedview7"
     pagecolor="#505050"
     bordercolor="#eeeeee"
     borderopacity="1"
     inkscape:showpageshadow="0"
     inkscape:pageopacity="0"
     inkscape:pagecheckerboard="0"
     inkscape:deskcolor="#505050"
     inkscape:document-units="mm"
     showgrid="false"
     inkscape:zoom="2.0888418"
     inkscape:cx="142.90216"
     inkscape:cy="157.26418"
     inkscape:window-width="1920"
     inkscape:window-height="1009"
     inkscape:window-x="-8"
     inkscape:window-y="-8"
     inkscape:window-maximized="1"
     inkscape:current-layer="layer1" /><defs
     id="defs2" /><g
     inkscape:label="Layer 1"
     inkscape:groupmode="layer"
     id="layer1"><path
       style="baseline-shift:baseline;display:inline;overflow:visible;vector-effect:none;fill:currentColor;enable-background:accumulate;stop-color:#000000;stop-opacity:1;opacity:1"
       d="M 25,1.5117187 C 12.034381,1.5117187 1.5117188,12.034381 1.5117187,25 1.5117188,37.965619 12.034381,48.488281 25,48.488281 37.965619,48.488281 48.488281,37.965619 48.488281,25 48.488281,12.034381 37.965619,1.5117188 25,1.5117187 Z m 0,1.1191407 C 37.360866,2.6308594 47.369141,12.639134 47.369141,25 47.369141,37.360866 37.360866,47.369141 25,47.369141 12.639134,47.369141 2.6308594,37.360866 2.6308594,25 2.6308594,12.639134 12.639134,2.6308594 25,2.6308594 Z"
       id="path362" /><path
       style="fill:currentColor;fill-opacity:1;stroke-width:1.62179"
       d="m 32.889885,38.281449 c -0.09056,-0.236005 -0.355599,-0.429101 -0.588969,-0.429101 -0.233368,0 -0.881057,-0.4703 -1.439308,-1.045114 -0.895013,-0.921564 -1.015002,-1.21867 -1.015002,-2.513224 v -1.468109 l -5.238279,-5.210564 -5.238279,-5.210563 h -2.039526 c -1.121741,0 -2.119086,-0.128722 -2.216326,-0.286067 -0.09724,-0.15733 -0.362578,-0.286066 -0.589641,-0.286066 -0.632268,0 -2.414053,-2.039349 -2.414053,-2.763012 0,-0.352744 -0.202176,-0.754496 -0.449281,-0.892783 -0.31765,-0.177766 -0.422415,-0.580034 -0.357582,-1.373029 0.122315,-1.496197 0.740126,-1.380178 2.516548,0.472596 0.743279,0.775226 1.446198,1.409501 1.562043,1.409501 0.241908,0 3.307793,-3.08974 3.307793,-3.333531 0,-0.08866 -0.715408,-0.865288 -1.589797,-1.72582 -0.87439,-0.860529 -1.540217,-1.715516 -1.479615,-1.899969 0.178042,-0.541907 2.469203,-0.598365 2.673536,-0.06588 0.09406,0.245121 0.452255,0.445675 0.795984,0.445675 0.711081,0 2.746621,1.789071 2.746621,2.414055 0,0.227062 0.128722,0.492402 0.286066,0.589641 0.15733,0.09724 0.286067,1.094586 0.286067,2.216324 v 2.039528 l 5.210563,5.238278 5.210563,5.238278 h 1.468109 c 1.294553,0 1.591659,0.119997 2.513224,1.015002 0.574813,0.558252 1.045115,1.205941 1.045115,1.439311 0,0.233367 0.193094,0.498404 0.429099,0.588966 0.276869,0.106244 0.429099,0.548895 0.429099,1.247715 0,0.698819 -0.152222,1.14147 -0.429099,1.247713 -0.236005,0.09056 -0.429099,0.403721 -0.429099,0.695907 0,0.653337 -1.147238,1.77524 -1.815329,1.77524 -0.270137,0 -0.565255,0.193095 -0.655817,0.4291 -0.106244,0.276868 -0.548894,0.429099 -1.247715,0.429099 -0.698821,0 -1.14147,-0.152238 -1.247713,-0.4291 z m 3.120147,-2.275528 c 0.514081,-0.514081 0.702162,-1.012148 0.702162,-1.85943 0,-0.636497 -0.128722,-1.157268 -0.286067,-1.157268 -0.15733,0 -0.286066,-0.197135 -0.286066,-0.438077 0,-0.240943 -0.225277,-0.510075 -0.500615,-0.598072 -0.275338,-0.088 -0.811323,-0.309235 -1.191075,-0.491638 -0.536455,-0.25767 -0.71724,-0.251885 -0.810522,0.02593 -0.06604,0.196671 -0.341047,0.357584 -0.611142,0.357584 -0.629049,0 -1.177638,0.548589 -1.177638,1.177639 0,0.270093 -0.160915,0.545107 -0.357583,0.611141 -0.277824,0.09329 -0.283611,0.274065 -0.02595,0.81052 0.182405,0.379753 0.403642,0.915737 0.491639,1.191076 0.088,0.275339 0.35713,0.500616 0.598071,0.500616 0.240944,0 0.438079,0.128722 0.438079,0.286067 0,0.15733 0.52077,0.286066 1.157267,0.286066 0.847283,0 1.345349,-0.188081 1.859431,-0.702163 z"
       id="path1" /></g></svg>
