<?xml version="1.0" encoding="UTF-8" standalone="no"?>
<!-- Created with Inkscape (http://www.inkscape.org/) -->

<svg
   width="50mm"
   height="50mm"
   viewBox="0 0 50 50"
   version="1.1"
   id="svg5"
   inkscape:version="1.4.3 (0d15f75, 2025-12-25)"
   sodipodi:docname="Looter’s Luck.svg"
   inkscape:export-filename="circle50x50.png"
   inkscape:export-xdpi="96"
   inkscape:export-ydpi="96"
   xml:space="preserve"
   xmlns:inkscape="http://www.inkscape.org/namespaces/inkscape"
   xmlns:sodipodi="http://sodipodi.sourceforge.net/DTD/sodipodi-0.dtd"
   xmlns="http://www.w3.org/2000/svg"
   xmlns:svg="http://www.w3.org/2000/svg"><sodipodi:namedview
     id="namedview7"
     pagecolor="#505050"
     bordercolor="#eeeeee"
     borderopacity="1"
     inkscape:showpageshadow="0"
     inkscape:pageopacity="0"
     inkscape:pagecheckerboard="0"
     inkscape:deskcolor="#505050"
     inkscape:document-units="mm"
     showgrid="false"
     inkscape:zoom="2.0888418"
     inkscape:cx="142.90216"
     inkscape:cy="157.26418"
     inkscape:window-width="1920"
     inkscape:window-height="1009"
     inkscape:window-x="-8"
     inkscape:window-y="-8"
     inkscape:window-maximized="1"
     inkscape:current-layer="layer1" /><defs
     id="defs2" /><g
     inkscape:label="Layer 1"
     inkscape:groupmode="layer"
     id="layer1"><path
       style="baseline-shift:baseline;display:inline;overflow:visible;vector-effect:none;fill:currentColor;enable-background:accumulate;stop-color:#000000;stop-opacity:1;opacity:1"
       d="M 25,1.5117187 C 12.034381,1.5117187 1.5117188,12.034381 1.5117187,25 1.5117188,37.965619 12.034381,48.488281 25,48.488281 37.965619,48.488281 48.488281,37.965619 48.488281,25 48.488281,12.034381 37.965619,1.5117188 25,1.5117187 Z m 0,1.1191407 C 37.360866,2.6308594 47.369141,12.639134 47.369141,25 47.369141,37.360866 37.360866,47.369141 25,47.369141 12.639134,47.369141 2.6308594,37.360866 2.6308594,25 2.6308594,12.639134 12.639134,2.6308594 25,2.6308594 Z"
       id="path362" /><path
       style="fill:currentColor;fill-opacity:1;stroke-width:1.62086"
       d="m 21.283277,38.437409 c 0,-0.157239 -0.168913,-0.285901 -0.375362,-0.285901 -0.4636,0 -1.911851,-1.476666 -1.911851,-1.94936 0,-0.190087 -0.153722,-0.591765 -0.341609,-0.892618 -0.486417,-0.778876 0.547087,-2.676764 2.517101,-4.622308 1.375919,-1.358827 1.613283,-1.491214 2.113535,-1.178801 0.729451,0.455549 2.700851,0.452445 3.454478,-0.0055 0.533016,-0.323847 0.74539,-0.190988 2.263536,1.416053 2.043241,2.162882 2.819525,3.626562 2.334938,4.402512 -0.183759,0.294244 -0.334108,0.690515 -0.334108,0.880601 0,0.472695 -1.448252,1.94936 -1.91185,1.94936 -0.206451,0 -0.375364,0.128648 -0.375364,0.285902 0,0.15724 -0.385967,0.285902 -0.857704,0.285902 -0.471738,0 -0.857705,-0.113655 -0.857705,-0.252558 0,-0.138907 -0.225147,-0.328154 -0.500329,-0.420551 -0.27518,-0.0924 -0.725474,-0.331892 -1.000656,-0.532211 -0.405271,-0.295019 -0.595382,-0.295019 -1.000656,0 -0.275179,0.200319 -0.725475,0.439814 -1.000655,0.532211 -0.27518,0.09239 -0.500327,0.281645 -0.500327,0.420551 0,0.138908 -0.385968,0.252558 -0.857706,0.252558 -0.471738,0 -0.857706,-0.128648 -0.857706,-0.285902 z m -6.71869,-7.147542 c -0.09719,-0.157239 -0.38721,-0.285902 -0.644507,-0.285902 -0.56705,0 -2.071558,-1.388517 -2.071558,-1.911851 0,-0.206449 -0.128648,-0.375362 -0.285902,-0.375362 -0.15724,0 -0.285902,-0.385967 -0.285902,-0.857706 0,-0.471738 0.113655,-0.857705 0.252558,-0.857705 0.138907,0 0.328154,-0.225148 0.420551,-0.500327 0.09241,-0.27518 0.331892,-0.725476 0.532211,-1.000656 0.295019,-0.405274 0.295019,-0.595384 0,-1.000656 -0.200319,-0.275181 -0.439814,-0.725476 -0.532211,-1.000656 -0.0924,-0.275181 -0.281645,-0.500328 -0.420551,-0.500328 -0.138908,0 -0.252558,-0.385968 -0.252558,-0.857706 0,-0.471737 0.128664,-0.857704 0.285902,-0.857704 0.15724,0 0.285902,-0.153787 0.285902,-0.341734 0,-0.471772 1.451172,-1.945479 1.91573,-1.945479 0.208584,0 0.619987,-0.150351 0.914231,-0.334108 0.770202,-0.480999 2.354363,0.34315 4.387805,2.282725 1.529314,1.458717 2.041209,2.339907 1.359285,2.339907 -0.158828,0 -0.285902,0.762404 -0.285902,1.71541 0,0.953006 0.127076,1.715411 0.285902,1.715411 0.650571,0 0.197447,0.820708 -1.215082,2.20079 -2.162119,2.112449 -4.172522,3.139584 -4.645904,2.373637 z M 33.29115,30.959633 c -0.550362,-0.31656 -1.676099,-1.235792 -2.50164,-2.042736 -1.412591,-1.380768 -1.865567,-2.201457 -1.215083,-2.201457 0.158828,0 0.285902,-0.762405 0.285902,-1.715411 0,-0.953006 -0.127076,-1.71541 -0.285902,-1.71541 -0.681923,0 -0.170028,-0.88119 1.359286,-2.339907 2.03344,-1.939575 3.617602,-2.763724 4.387804,-2.282725 0.294244,0.183758 0.705648,0.334108 0.914231,0.334108 0.464558,0 1.915731,1.473707 1.915731,1.945479 0,0.187953 0.128647,0.341734 0.285901,0.341734 0.15724,0 0.285901,0.385967 0.285901,0.857704 0,0.471738 -0.113655,0.857706 -0.252556,0.857706 -0.138908,0 -0.328155,0.225147 -0.420552,0.500328 -0.0924,0.27518 -0.331892,0.725475 -0.53221,1.000656 -0.29502,0.405272 -0.29502,0.595382 0,1.000656 0.200319,0.27518 0.439812,0.725476 0.53221,1.000656 0.09239,0.275179 0.281647,0.500327 0.420552,0.500327 0.138908,0 0.252556,0.385967 0.252556,0.857705 0,0.471739 -0.128664,0.857706 -0.285901,0.857706 -0.157239,0 -0.285901,0.153787 -0.285901,0.341732 0,0.533067 -1.479531,1.945481 -2.037929,1.945481 -0.275792,0 -0.580955,0.128648 -0.678138,0.285902 -0.265392,0.429415 -1.027669,0.312017 -2.144262,-0.330234 z m -9.509586,-3.576975 c -0.434271,-0.228652 -0.974492,-0.858283 -1.200493,-1.39918 -0.567454,-1.358107 0.01362,-2.766207 1.416067,-3.431729 0.935486,-0.443918 1.070236,-0.443918 2.005722,0 1.399073,0.663903 1.983317,2.074113 1.418922,3.4249 -0.239824,0.573979 -0.782342,1.163338 -1.315895,1.42951 -1.064839,0.531211 -1.274814,0.529087 -2.324323,-0.0235 z m -2.88469,-8.390274 c -1.974613,-2.132818 -2.710247,-3.552748 -2.234916,-4.313872 0.183759,-0.294244 0.334106,-0.705648 0.334106,-0.914231 0,-0.464558 1.473709,-1.91573 1.945481,-1.91573 0.187953,0 0.341732,-0.128648 0.341732,-0.285902 0,-0.15724 0.385968,-0.2859 0.857706,-0.2859 0.471738,0 0.857706,0.113654 0.857706,0.252556 0,0.138907 0.225147,0.328154 0.500327,0.420551 0.27518,0.09241 0.725476,0.331892 1.000655,0.532211 0.405274,0.295019 0.595385,0.295019 1.000656,0 0.275182,-0.200319 0.725476,-0.439812 1.000656,-0.532211 0.275182,-0.09239 0.500329,-0.281645 0.500329,-0.420551 0,-0.138908 0.385967,-0.252556 0.857705,-0.252556 0.471737,0 0.857704,0.128663 0.857704,0.2859 0,0.157239 0.168914,0.285902 0.375364,0.285902 0.463598,0 1.91185,1.476666 1.91185,1.949359 0,0.190088 0.153722,0.591765 0.341611,0.892618 0.486417,0.778878 -0.547088,2.676766 -2.517102,4.622308 -1.375919,1.358827 -1.613284,1.491216 -2.113537,1.178802 -0.675837,-0.422067 -3.038,-0.469518 -3.287366,-0.06603 -0.363887,0.588781 -0.983572,0.237829 -2.530667,-1.43322 z"
       id="path1" /></g></svg>
