<?xml version="1.0" encoding="UTF-8" standalone="no"?>
<!-- Created with Inkscape (http://www.inkscape.org/) -->

<svg
   width="50mm"
   height="50mm"
   viewBox="0 0 50 50"
   version="1.1"
   id="svg5"
   inkscape:version="1.4.3 (0d15f75, 2025-12-25)"
   sodipodi:docname="Looter’s Instincts.svg"
   inkscape:export-filename="circle50x50.png"
   inkscape:export-xdpi="96"
   inkscape:export-ydpi="96"
   xml:space="preserve"
   xmlns:inkscape="http://www.inkscape.org/namespaces/inkscape"
   xmlns:sodipodi="http://sodipodi.sourceforge.net/DTD/sodipodi-0.dtd"
   xmlns="http://www.w3.org/2000/svg"
   xmlns:svg="http://www.w3.org/2000/svg"><sodipodi:namedview
     id="namedview7"
     pagecolor="#505050"
     bordercolor="#eeeeee"
     borderopacity="1"
     inkscape:showpageshadow="0"
     inkscape:pageopacity="0"
     inkscape:pagecheckerboard="0"
     inkscape:deskcolor="#505050"
     inkscape:document-units="mm"
     showgrid="false"
     inkscape:zoom="2.0888418"
     inkscape:cx="142.90216"
     inkscape:cy="157.26418"
     inkscape:window-width="1920"
     inkscape:window-height="1009"
     inkscape:window-x="-8"
     inkscape:window-y="-8"
     inkscape:window-maximized="1"
     inkscape:current-layer="layer1" /><defs
     id="defs2" /><g
     inkscape:label="Layer 1"
     inkscape:groupmode="layer"
     id="layer1"><path
       style="baseline-shift:baseline;display:inline;overflow:visible;vector-effect:none;fill:currentColor;enable-background:accumulate;stop-color:#000000;stop-opacity:1;opacity:1"
       d="M 25,1.5117187 C 12.034381,1.5117187 1.5117188,12.034381 1.5117187,25 1.5117188,37.965619 12.034381,48.488281 25,48.488281 37.965619,48.488281 48.488281,37.965619 48.488281,25 48.488281,12.034381 37.965619,1.5117188 25,1.5117187 Z m 0,1.1191407 C 37.360866,2.6308594 47.369141,12.639134 47.369141,25 47.369141,37.360866 37.360866,47.369141 25,47.369141 12.639134,47.369141 2.6308594,37.360866 2.6308594,25 2.6308594,12.639134 12.639134,2.6308594 25,2.6308594 Z"
       id="path362" /><path
       style="fill:currentColor;stroke-width:1.62571;fill-opacity:1"
       d="m 29.739679,36.794113 c -0.672239,-0.356256 -1.478624,-0.880372 -1.791966,-1.164702 -0.688908,-0.625125 -1.424579,-2.044434 -1.424579,-2.7484 0,-0.282271 -0.12886,-0.593079 -0.286375,-0.690685 -0.157499,-0.09761 -0.286374,-0.485246 -0.286374,-0.861425 0,-0.37618 0.128877,-0.763821 0.286374,-0.861425 0.1575,-0.09761 0.286375,-0.537453 0.286375,-0.977439 0,-0.439988 0.257737,-1.033851 0.572749,-1.319696 0.315011,-0.285845 0.572749,-0.697569 0.572749,-0.91494 0,-0.217372 0.225518,-0.475028 0.501153,-0.572568 0.275636,-0.09754 0.782439,-0.430876 1.126232,-0.740747 0.502139,-0.452594 1.042026,-0.563402 2.745082,-0.563402 1.258743,0 2.400898,0.158784 2.811416,0.390832 1.03334,0.584117 2.266465,1.744216 2.266465,2.132245 0,0.188008 0.191885,0.501509 0.426408,0.696669 0.234525,0.195159 0.352285,0.475092 0.26169,0.62207 -0.09059,0.146983 0.03969,0.580039 0.289528,0.962359 0.602016,0.921254 0.577701,1.184451 -0.262889,2.84577 -0.393105,0.776924 -0.714737,1.525777 -0.714737,1.664118 0,0.422868 -1.377873,1.661135 -1.848415,1.661135 -0.243419,0 -0.442579,0.129205 -0.442579,0.287142 0,0.157921 -0.250132,0.287142 -0.555847,0.287142 -0.305716,0 -0.635492,0.129222 -0.732837,0.28714 -0.30735,0.498638 -2.528552,0.252415 -3.799623,-0.421193 z m 6.166713,-5.550537 c 0.06495,-0.195407 -0.144252,-0.345388 -0.481793,-0.345388 -0.328136,0 -0.596613,-0.114147 -0.596613,-0.253653 0,-0.233031 -0.899197,-0.645622 -1.569442,-0.720133 -0.27038,-0.03005 -0.238256,2.319206 0.03785,2.767132 0.170666,0.276883 2.458554,-0.99237 2.61001,-1.447958 z m -5.114706,0.749907 c 1.241029,-0.6642 1.501203,-1.091108 0.671402,-1.10168 -0.275634,-0.0036 -0.823325,-0.259065 -1.217089,-0.567899 -1.1535,-0.904698 -1.431872,-0.737228 -1.431872,0.861426 0,1.664692 0.213858,1.752088 1.977559,0.808153 z m -18.858468,3.948013 c -0.244362,-0.295229 -0.337761,-2.395785 -0.328757,-7.3939 l 0.0125,-6.981516 4.446119,-0.07908 4.446118,-0.07908 v 0.868717 0.868717 h 3.293305 3.293303 v -0.861426 -0.861424 h 4.438801 4.438799 v 1.435708 c 0,1.403805 -0.01909,1.435708 -0.859121,1.435708 -0.472518,0 -0.859123,-0.129205 -0.859123,-0.287141 0,-0.163848 -0.85349,-0.287141 -1.987719,-0.287141 -1.093246,0 -2.067364,0.129205 -2.164708,0.287141 -0.09735,0.157922 -0.487391,0.287141 -0.866772,0.287141 -0.885585,0 -4.293723,3.216628 -4.058727,3.830659 0.08855,0.231357 -0.01937,0.659331 -0.239799,0.951055 -0.57002,0.754382 -0.564442,4.502617 0.0075,4.978484 0.234525,0.19516 0.364812,0.454767 0.289527,0.576906 -0.07528,0.12214 0.055,0.381748 0.289528,0.576908 0.234524,0.19516 0.426407,0.532834 0.426407,0.750389 0,0.598636 -13.521179,0.582399 -14.017167,-0.01683 z m 10.415487,-14.90365 c -0.08763,-0.229003 -0.118551,-0.914509 -0.06868,-1.523347 l 0.09067,-1.106979 h 1.420841 1.42084 l 0.01104,1.43571 0.01104,1.435709 -1.363198,0.08763 c -0.987294,0.06347 -1.407139,-0.02717 -1.522546,-0.32873 z M 11.614977,18.192165 c -0.0092,-0.03948 -0.0414,-1.331659 -0.0716,-2.871506 l -0.0549,-2.799719 12.242497,8.6e-5 12.242499,8.8e-5 v 2.871418 2.871419 H 31.534684 27.095883 V 17.402525 16.541099 H 23.80258 20.509275 v 0.861426 0.861426 h -4.438799 c -2.441341,0 -4.446315,-0.0323 -4.455499,-0.07179 z"
       id="path1" /></g></svg>
