<?xml version="1.0" encoding="UTF-8" standalone="no"?>
<!-- Created with Inkscape (http://www.inkscape.org/) -->

<svg
   width="50mm"
   height="50mm"
   viewBox="0 0 50 50"
   version="1.1"
   id="svg5"
   inkscape:version="1.4.3 (0d15f75, 2025-12-25)"
   sodipodi:docname="Revitalizing Squat.svg"
   inkscape:export-filename="circle50x50.png"
   inkscape:export-xdpi="96"
   inkscape:export-ydpi="96"
   xml:space="preserve"
   xmlns:inkscape="http://www.inkscape.org/namespaces/inkscape"
   xmlns:sodipodi="http://sodipodi.sourceforge.net/DTD/sodipodi-0.dtd"
   xmlns="http://www.w3.org/2000/svg"
   xmlns:svg="http://www.w3.org/2000/svg"><sodipodi:namedview
     id="namedview7"
     pagecolor="#505050"
     bordercolor="#eeeeee"
     borderopacity="1"
     inkscape:showpageshadow="0"
     inkscape:pageopacity="0"
     inkscape:pagecheckerboard="0"
     inkscape:deskcolor="#505050"
     inkscape:document-units="mm"
     showgrid="false"
     inkscape:zoom="2.0888418"
     inkscape:cx="142.90216"
     inkscape:cy="157.26418"
     inkscape:window-width="1920"
     inkscape:window-height="1009"
     inkscape:window-x="-8"
     inkscape:window-y="-8"
     inkscape:window-maximized="1"
     inkscape:current-layer="layer1" /><defs
     id="defs2" /><g
     inkscape:label="Layer 1"
     inkscape:groupmode="layer"
     id="layer1"><path
       style="baseline-shift:baseline;display:inline;overflow:visible;vector-effect:none;fill:currentColor;enable-background:accumulate;stop-color:#000000;stop-opacity:1;opacity:1"
       d="M 25,1.5117187 C 12.034381,1.5117187 1.5117188,12.034381 1.5117187,25 1.5117188,37.965619 12.034381,48.488281 25,48.488281 37.965619,48.488281 48.488281,37.965619 48.488281,25 48.488281,12.034381 37.965619,1.5117188 25,1.5117187 Z m 0,1.1191407 C 37.360866,2.6308594 47.369141,12.639134 47.369141,25 47.369141,37.360866 37.360866,47.369141 25,47.369141 12.639134,47.369141 2.6308594,37.360866 2.6308594,25 2.6308594,12.639134 12.639134,2.6308594 25,2.6308594 Z"
       id="path362" /><path
       style="fill:currentColor;fill-opacity:1;stroke-width:1.7111"
       d="m 12.75968,31.909238 c -0.203111,-0.639945 0.653306,-3.810779 1.104593,-4.089689 0.141611,-0.08752 0.257488,-0.347751 0.257488,-0.57828 0,-0.292719 -0.477084,-0.44666 -1.581725,-0.510371 -1.283681,-0.07404 -1.602658,-0.201211 -1.692824,-0.674917 -0.173898,-0.913595 0.78892,-1.378136 2.856349,-1.378136 1.61112,0 2.022807,-0.119075 2.869526,-0.830002 l 0.988548,-0.830003 -3.153577,-0.150903 -3.153581,-0.150902 v -0.905472 -0.905458 l 10.639129,-0.07932 c 11.095189,-0.08272 11.250303,-0.103264 10.129253,-1.342013 -0.481726,-0.532303 -0.469077,-0.604194 0.229164,-1.302437 l 0.739034,-0.739032 3.090849,3.011943 c 1.699966,1.656567 3.090848,3.144107 3.090848,3.305641 0,0.308252 -6.055869,6.347681 -6.366879,6.349595 -0.332897,0.0021 -1.178601,-1.099112 -1.178601,-1.534612 0,-0.237499 0.271636,-0.601455 0.603638,-0.808794 1.274089,-0.795681 0.588064,-0.9755 -3.721588,-0.9755 -3.937511,0 -4.450427,0.06338 -5.721915,0.707093 -1.989391,1.007158 -2.27847,1.306934 -3.155225,3.27199 -0.710841,1.593195 -0.8697,1.755479 -1.718426,1.755479 -0.87102,0 -0.929439,-0.0673 -0.85153,-0.98091 0.166063,-1.947385 0.45304,-2.915694 1.014768,-3.424052 0.73636,-0.666396 0.733428,-1.3296 -0.0059,-1.3296 -0.694685,0 -2.742078,2.667514 -2.742078,3.572609 0,0.34345 -0.157626,0.970393 -0.350266,1.393206 -0.450192,0.988065 -1.92183,1.089427 -2.21909,0.152835 z m 22.93198,-7.521971 c 0.985094,-1.088517 0.430274,-1.443844 -2.609863,-1.671451 -4.600789,-0.34445 -8.892694,-0.06854 -10.828971,0.696115 -3.77394,1.490393 -3.589271,1.547635 5.026747,1.558134 7.449475,0.0091 7.905006,-0.02248 8.412087,-0.582798 z"
       id="path1" /></g></svg>
