<?xml version="1.0" encoding="UTF-8" standalone="no"?>
<!-- Created with Inkscape (http://www.inkscape.org/) -->

<svg
   width="50mm"
   height="50mm"
   viewBox="0 0 50 50"
   version="1.1"
   id="svg5"
   inkscape:version="1.4.3 (0d15f75, 2025-12-25)"
   sodipodi:docname="Security Breach.svg"
   inkscape:export-filename="circle50x50.png"
   inkscape:export-xdpi="96"
   inkscape:export-ydpi="96"
   xml:space="preserve"
   xmlns:inkscape="http://www.inkscape.org/namespaces/inkscape"
   xmlns:sodipodi="http://sodipodi.sourceforge.net/DTD/sodipodi-0.dtd"
   xmlns="http://www.w3.org/2000/svg"
   xmlns:svg="http://www.w3.org/2000/svg"><sodipodi:namedview
     id="namedview7"
     pagecolor="#505050"
     bordercolor="#eeeeee"
     borderopacity="1"
     inkscape:showpageshadow="0"
     inkscape:pageopacity="0"
     inkscape:pagecheckerboard="0"
     inkscape:deskcolor="#505050"
     inkscape:document-units="mm"
     showgrid="false"
     inkscape:zoom="2.0888418"
     inkscape:cx="142.90216"
     inkscape:cy="157.26418"
     inkscape:window-width="1920"
     inkscape:window-height="1009"
     inkscape:window-x="-8"
     inkscape:window-y="-8"
     inkscape:window-maximized="1"
     inkscape:current-layer="layer1" /><defs
     id="defs2" /><g
     inkscape:label="Layer 1"
     inkscape:groupmode="layer"
     id="layer1"><path
       style="baseline-shift:baseline;display:inline;overflow:visible;vector-effect:none;fill:currentColor;enable-background:accumulate;stop-color:#000000;stop-opacity:1;opacity:1"
       d="M 25,1.5117187 C 12.034381,1.5117187 1.5117188,12.034381 1.5117187,25 1.5117188,37.965619 12.034381,48.488281 25,48.488281 37.965619,48.488281 48.488281,37.965619 48.488281,25 48.488281,12.034381 37.965619,1.5117188 25,1.5117187 Z m 0,1.1191407 C 37.360866,2.6308594 47.369141,12.639134 47.369141,25 47.369141,37.360866 37.360866,47.369141 25,47.369141 12.639134,47.369141 2.6308594,37.360866 2.6308594,25 2.6308594,12.639134 12.639134,2.6308594 25,2.6308594 Z"
       id="path362" /><path
       style="fill:currentColor;fill-opacity:1;stroke-width:0.914149"
       d="m 25.643996,36.647702 c 0,-2.438066 0.113495,-3.279618 0.483738,-3.586892 0.266055,-0.220807 0.483737,-0.873852 0.483737,-1.451211 0,-0.57736 -0.217682,-1.230405 -0.483737,-1.451211 -0.344183,-0.285646 -0.483738,-1.041329 -0.483738,-2.619418 v -2.217952 h 3.85161 c 5.104836,0 4.855657,-0.372362 4.855657,7.256054 0,7.628418 0.249179,7.256056 -4.855657,7.256056 h -3.85161 z m -9.495207,-1.40121 c -0.408835,-0.583693 -0.502023,-1.784888 -0.502023,-6.471027 0,-3.349862 0.139494,-6.014935 0.333838,-6.37807 0.302644,-0.565498 0.709434,-0.623782 4.353633,-0.623782 h 4.019794 v 2.056706 c 0,1.43476 -0.146281,2.17811 -0.483736,2.458172 -0.266056,0.220808 -0.483737,0.873852 -0.483737,1.451211 0,0.57736 0.217681,1.230405 0.483737,1.451212 0.370243,0.307275 0.483736,1.148825 0.483736,3.586892 v 3.185425 h -3.851608 c -3.614563,0 -3.882507,-0.04411 -4.353634,-0.716739 z M 30.803858,20.225655 c 0,-2.028113 -0.138649,-3.299064 -0.386989,-3.547405 -0.225112,-0.225112 -1.304298,-0.386989 -2.579932,-0.386989 h -2.192941 v -1.12872 -1.12872 h 3.321662 c 2.153524,0 3.457753,0.136094 3.708649,0.386991 0.262196,0.262195 0.386991,1.770118 0.386991,4.676124 v 4.289134 h -1.128721 -1.128719 z m -13.867127,-4.83737 c 0,-3.031418 0.123388,-4.573769 0.386989,-4.83737 0.250897,-0.250896 1.555125,-0.386989 3.708651,-0.386989 h 3.32166 v 1.128719 1.12872 H 22.16109 c -1.275632,0 -2.354818,0.161878 -2.57993,0.38699 -0.250896,0.250895 -0.38699,1.555124 -0.38699,3.70865 v 3.32166 h -1.128719 -1.12872 z"
       id="path1" /></g></svg>
