<?xml version="1.0" encoding="UTF-8" standalone="no"?>
<!-- Created with Inkscape (http://www.inkscape.org/) -->

<svg
   width="50mm"
   height="50mm"
   viewBox="0 0 50 50"
   version="1.1"
   id="svg5"
   inkscape:version="1.4.3 (0d15f75, 2025-12-25)"
   sodipodi:docname="Silent Scavenger.svg"
   inkscape:export-filename="circle50x50.png"
   inkscape:export-xdpi="96"
   inkscape:export-ydpi="96"
   xml:space="preserve"
   xmlns:inkscape="http://www.inkscape.org/namespaces/inkscape"
   xmlns:sodipodi="http://sodipodi.sourceforge.net/DTD/sodipodi-0.dtd"
   xmlns="http://www.w3.org/2000/svg"
   xmlns:svg="http://www.w3.org/2000/svg"><sodipodi:namedview
     id="namedview7"
     pagecolor="#505050"
     bordercolor="#eeeeee"
     borderopacity="1"
     inkscape:showpageshadow="0"
     inkscape:pageopacity="0"
     inkscape:pagecheckerboard="0"
     inkscape:deskcolor="#505050"
     inkscape:document-units="mm"
     showgrid="false"
     inkscape:zoom="2.0888418"
     inkscape:cx="142.90216"
     inkscape:cy="157.26418"
     inkscape:window-width="1920"
     inkscape:window-height="1009"
     inkscape:window-x="-8"
     inkscape:window-y="-8"
     inkscape:window-maximized="1"
     inkscape:current-layer="layer1" /><defs
     id="defs2" /><g
     inkscape:label="Layer 1"
     inkscape:groupmode="layer"
     id="layer1"><path
       style="baseline-shift:baseline;display:inline;overflow:visible;vector-effect:none;fill:currentColor;enable-background:accumulate;stop-color:#000000;stop-opacity:1;opacity:1"
       d="M 25,1.5117187 C 12.034381,1.5117187 1.5117188,12.034381 1.5117187,25 1.5117188,37.965619 12.034381,48.488281 25,48.488281 37.965619,48.488281 48.488281,37.965619 48.488281,25 48.488281,12.034381 37.965619,1.5117188 25,1.5117187 Z m 0,1.1191407 C 37.360866,2.6308594 47.369141,12.639134 47.369141,25 47.369141,37.360866 37.360866,47.369141 25,47.369141 12.639134,47.369141 2.6308594,37.360866 2.6308594,25 2.6308594,12.639134 12.639134,2.6308594 25,2.6308594 Z"
       id="path362" /><path
       style="fill:currentColor;fill-opacity:1;stroke-width:1.62839"
       d="m 21.41006,38.498727 c -0.09764,-0.15797 -0.413621,-0.28723 -0.702192,-0.28723 -2.431317,0 -8.919989,-6.488672 -8.919989,-8.919988 0,-0.288572 -0.129245,-0.604558 -0.287229,-0.702193 -0.384107,-0.237391 -0.384107,-7.037116 0,-7.037116 0.15797,0 0.287229,-0.303276 0.287229,-0.673945 0,-0.792034 0.693558,-2.275703 1.298492,-2.777754 0.233686,-0.193943 0.424883,-0.502097 0.424883,-0.684787 0,-0.406878 3.264635,-3.599519 4.452055,-4.353872 1.479656,-0.940008 2.201453,-1.275439 2.744559,-1.275439 0.288571,0 0.604558,-0.129245 0.702192,-0.287229 0.23496,-0.380173 6.945772,-0.380173 7.180732,0 0.09764,0.157969 0.413622,0.287229 0.702193,0.287229 2.534764,0 8.919988,6.500162 8.919988,9.080556 0,0.376881 0.129245,0.685241 0.28723,0.685241 0.175449,0 0.287228,1.334752 0.287228,3.429799 0,1.976703 -0.12169,3.505009 -0.287228,3.607317 -0.15797,0.09764 -0.28723,0.408538 -0.28723,0.690895 0,0.655049 -0.746003,2.158664 -1.298491,2.617188 -0.233687,0.193943 -0.424886,0.502097 -0.424886,0.684787 0,0.40688 -3.264633,3.599519 -4.452052,4.353873 -1.479656,0.940008 -2.201453,1.275438 -2.744559,1.275438 -0.288571,0 -0.604558,0.129245 -0.702193,0.28723 -0.10223,0.165409 -1.624965,0.287229 -3.590366,0.287229 -1.965402,0 -3.488137,-0.12182 -3.590366,-0.287229 z m 7.85846,-4.930833 c 0.970046,-0.500291 1.76372,-1.017303 1.76372,-1.148916 0,-0.131606 -1.098651,-0.239296 -2.441448,-0.239296 -1.436147,0 -2.44145,-0.11827 -2.44145,-0.287228 0,-0.15797 0.195635,-0.28723 0.434742,-0.28723 0.955539,0 4.004776,-2.427833 3.689642,-2.937729 -0.08814,-0.142614 -0.987558,-0.229321 -1.998693,-0.192664 -1.011135,0.03666 -1.915401,-0.01026 -2.009479,-0.104413 -0.09407,-0.09407 0.24628,-0.543938 0.756354,-0.999687 0.822111,-0.734557 0.927406,-0.99988 0.927406,-2.336907 0,-1.319974 -0.119394,-1.631448 -0.956331,-2.494951 -0.525981,-0.542676 -0.834035,-0.996865 -0.684563,-1.009309 0.149469,-0.01238 1.066754,-0.0041 2.038404,0.01876 0.97165,0.02276 1.839513,-0.07653 1.928584,-0.220648 0.298878,-0.483594 -2.192928,-2.360547 -3.133816,-2.360547 -0.248432,0 -0.37181,-0.129245 -0.274175,-0.287229 0.09764,-0.15797 1.203913,-0.28723 2.458399,-0.28723 1.254487,0 2.280883,-0.07834 2.280883,-0.174084 0,-0.291379 -1.491172,-1.367975 -2.842103,-2.051943 -1.83013,-0.926583 -5.698211,-0.926583 -7.52834,0 -1.350932,0.683968 -2.842104,1.760564 -2.842104,2.051943 0,0.09575 1.026398,0.174084 2.280884,0.174084 1.254485,0 2.360765,0.129245 2.4584,0.28723 0.09764,0.15797 -0.02575,0.287229 -0.274175,0.287229 -0.940888,0 -3.432696,1.876953 -3.133818,2.360547 0.08907,0.144112 0.956934,0.243411 1.928584,0.220648 0.971652,-0.02276 1.888933,-0.0312 2.038404,-0.01876 0.14947,0.01237 -0.158588,0.466633 -0.684562,1.009309 -0.83694,0.863503 -0.95633,1.174977 -0.95633,2.494951 0,1.337027 0.105291,1.60235 0.927405,2.336907 0.510073,0.455749 0.850431,0.905609 0.756353,0.999687 -0.09407,0.09407 -0.998344,0.141068 -2.009479,0.104413 -1.011136,-0.03665 -1.910547,0.05004 -1.998692,0.192664 -0.315133,0.509896 2.734102,2.937729 3.689642,2.937729 0.239108,0 0.43474,0.129245 0.43474,0.28723 0,0.168958 -1.005302,0.287228 -2.441448,0.287228 -1.342796,0 -2.441449,0.108792 -2.441449,0.24176 0,0.132974 0.743205,0.637541 1.651568,1.121274 1.476489,0.786279 1.928943,0.882447 4.268094,0.907158 2.403176,0.02539 2.760338,-0.04652 4.380247,-0.88198 z M 18.394152,27.4404 c 0,-0.534271 -0.129245,-1.051283 -0.28723,-1.148918 -0.157969,-0.09764 -0.287227,-0.686902 -0.287227,-1.309483 0,-0.622581 0.129261,-1.131965 0.287227,-1.131965 0.15797,0 0.28723,-0.38776 0.28723,-0.861688 0,-0.842539 -0.03192,-0.861689 -1.436146,-0.861689 h -1.436147 v 2.837123 c 0,3.078286 0.124458,3.357048 1.579761,3.53857 1.178677,0.147011 1.292532,0.05348 1.292532,-1.06195 z m 15.725803,0.646818 c 0.243674,-0.194317 0.359037,-1.197925 0.359037,-3.123438 v -2.837123 h -1.436146 c -1.404232,0 -1.436147,0.01915 -1.436147,0.861689 0,0.473928 0.129245,0.861688 0.287229,0.861688 0.15797,0 0.28723,0.509384 0.28723,1.131965 0,0.622581 -0.129245,1.211848 -0.28723,1.309483 -0.290722,0.179676 -0.406844,1.938863 -0.145252,2.200456 0.217116,0.217118 1.965748,-0.08134 2.371276,-0.40472 z"
       id="path1" /></g></svg>
