<?xml version="1.0" encoding="UTF-8" standalone="no"?>
<!-- Created with Inkscape (http://www.inkscape.org/) -->

<svg
   width="50mm"
   height="50mm"
   viewBox="0 0 50 50"
   version="1.1"
   id="svg5"
   inkscape:version="1.4.3 (0d15f75, 2025-12-25)"
   sodipodi:docname="Stubborn Mule.svg"
   inkscape:export-filename="circle50x50.png"
   inkscape:export-xdpi="96"
   inkscape:export-ydpi="96"
   xml:space="preserve"
   xmlns:inkscape="http://www.inkscape.org/namespaces/inkscape"
   xmlns:sodipodi="http://sodipodi.sourceforge.net/DTD/sodipodi-0.dtd"
   xmlns="http://www.w3.org/2000/svg"
   xmlns:svg="http://www.w3.org/2000/svg"><sodipodi:namedview
     id="namedview7"
     pagecolor="#505050"
     bordercolor="#eeeeee"
     borderopacity="1"
     inkscape:showpageshadow="0"
     inkscape:pageopacity="0"
     inkscape:pagecheckerboard="0"
     inkscape:deskcolor="#505050"
     inkscape:document-units="mm"
     showgrid="false"
     inkscape:zoom="2.0888418"
     inkscape:cx="142.90216"
     inkscape:cy="157.26418"
     inkscape:window-width="1920"
     inkscape:window-height="1009"
     inkscape:window-x="-8"
     inkscape:window-y="-8"
     inkscape:window-maximized="1"
     inkscape:current-layer="layer1" /><defs
     id="defs2" /><g
     inkscape:label="Layer 1"
     inkscape:groupmode="layer"
     id="layer1"><path
       style="baseline-shift:baseline;display:inline;overflow:visible;vector-effect:none;fill:currentColor;enable-background:accumulate;stop-color:#000000;stop-opacity:1;opacity:1"
       d="M 25,1.5117187 C 12.034381,1.5117187 1.5117188,12.034381 1.5117187,25 1.5117188,37.965619 12.034381,48.488281 25,48.488281 37.965619,48.488281 48.488281,37.965619 48.488281,25 48.488281,12.034381 37.965619,1.5117188 25,1.5117187 Z m 0,1.1191407 C 37.360866,2.6308594 47.369141,12.639134 47.369141,25 47.369141,37.360866 37.360866,47.369141 25,47.369141 12.639134,47.369141 2.6308594,37.360866 2.6308594,25 2.6308594,12.639134 12.639134,2.6308594 25,2.6308594 Z"
       id="path362" /><path
       style="fill:currentColor;fill-opacity:1;stroke-width:1.6433"
       d="m 22.243026,38.623425 c -0.09853,-0.159416 -0.595365,-0.301674 -1.104081,-0.316115 -1.400983,-0.03977 -6.287346,-3.098701 -6.287346,-3.935972 0,-0.20477 0.341905,-0.596333 0.759789,-0.870142 0.713643,-0.467598 0.781605,-0.468002 1.11893,-0.0067 0.197527,0.270134 0.475197,0.491312 0.617045,0.491506 0.141849,1.95e-4 0.641179,0.32997 1.109627,0.732833 0.468447,0.402863 1.185851,0.811534 1.59423,0.908157 0.408378,0.09663 0.938161,0.336495 1.177296,0.533051 0.239135,0.196554 1.152194,0.441923 2.029019,0.545262 2.802463,0.33029 2.746652,0.304941 2.8445,1.291844 l 0.09083,0.916119 h -1.885344 c -1.036941,0 -1.965962,-0.130429 -2.064491,-0.28986 z m 7.557063,-1.325073 c -0.689044,-0.689045 -0.552234,-1.192946 0.461138,-1.698484 0.504148,-0.251502 0.928069,-0.424101 0.942045,-0.383553 0.01397,0.04054 0.197367,0.379699 0.407533,0.75367 0.328527,0.584585 0.312062,0.757366 -0.117397,1.231905 -0.607446,0.671221 -1.091022,0.698768 -1.693327,0.09646 z m 4.530096,-3.370658 c -0.421206,-0.421205 -0.461628,-1.391328 -0.05798,-1.391328 0.159417,0 0.28986,-0.195654 0.28986,-0.43479 0,-0.553826 0.28693,-0.54952 1.094945,0.01643 1.021598,0.715556 0.677253,2.157514 -0.515224,2.157514 -0.255077,0 -0.6203,-0.156525 -0.811608,-0.347833 z M 18.700729,31.014603 c -0.334461,-0.432966 -0.131776,-2.826135 0.239353,-2.826135 0.142672,0 0.264038,-0.423921 0.269686,-0.942045 0.0056,-0.518125 0.196683,-1.268136 0.424518,-1.666694 0.227837,-0.398559 0.418871,-1.075654 0.424519,-1.504659 0.0056,-0.429003 0.140716,-0.860622 0.300132,-0.959151 0.159417,-0.09853 0.289859,-0.432318 0.289859,-0.741757 0,-0.463141 0.204992,-0.562613 1.15944,-0.562613 1.148072,0 1.159441,-0.01068 1.159441,-1.09502 0,-1.308984 0.760315,-2.093438 2.029019,-2.093438 1.261499,0 2.029019,0.785269 2.029019,2.07594 0,1.035906 0.04199,1.080998 1.086974,1.167486 0.959786,0.07944 1.098232,0.188668 1.183173,0.933495 0.05291,0.463943 0.28163,1.126542 0.508271,1.472437 0.226641,0.3459 0.328729,0.712249 0.226864,0.814116 -0.101868,0.101869 0.02812,0.510784 0.288843,0.908709 0.26073,0.397923 0.474055,1.028092 0.474055,1.400374 0,0.372281 0.113453,0.800792 0.252108,0.952243 0.422691,0.461684 0.59487,2.355973 0.245866,2.704978 -0.483481,0.48348 -12.215641,0.447823 -12.59114,-0.03827 z m 7.399607,-10.434958 c -0.08665,-1.197676 -0.117321,-1.231905 -1.10364,-1.231905 -0.986321,0 -1.016986,0.03423 -1.103642,1.231905 l -0.08913,1.231903 h 1.192773 1.192772 z m -13.957483,9.687482 c -0.263842,-0.291542 -0.479714,-0.936028 -0.479714,-1.432192 0,-0.496164 -0.130429,-0.982728 -0.28986,-1.081257 -0.159416,-0.09853 -0.28986,-1.33768 -0.28986,-2.75367 0,-1.41599 0.130445,-2.655139 0.28986,-2.753668 0.159417,-0.09853 0.28986,-0.607758 0.28986,-1.131623 0,-0.9025 0.70495,-1.911907 1.335239,-1.911907 0.29601,0 1.273501,1.041832 1.273501,1.357325 0,0.105187 -0.204102,0.416787 -0.45356,0.692434 -0.643422,0.710974 -0.631525,6.797052 0.01463,7.511103 0.55499,0.613257 0.549805,0.737913 -0.06033,1.450502 -0.618277,0.722094 -1.012657,0.734909 -1.629817,0.05295 z m 25.036011,-1.466535 c -0.513429,-0.143065 -0.717003,-0.401955 -0.718025,-0.913152 -0.0013,-0.63176 0.138924,-0.723691 1.223853,-0.802613 0.673904,-0.04902 1.225279,0.02279 1.225279,0.159614 0,0.37249 -0.702808,1.813104 -0.869579,1.782459 -0.07972,-0.01463 -0.467399,-0.116478 -0.861528,-0.226301 z m -0.611927,-5.902068 c -0.287494,-0.862485 -0.06777,-1.433121 0.69916,-1.815714 0.47762,-0.238269 0.879836,-0.40004 0.893812,-0.359493 0.01397,0.04054 0.188459,0.365435 0.387737,0.721975 0.654042,1.170174 0.468295,1.525697 -0.797114,1.525697 -0.637692,0 -1.170309,-0.0326 -1.183595,-0.07247 z M 34.562073,17.89844 c 0,-0.239134 -0.130429,-0.43479 -0.28986,-0.43479 -0.482253,0 -0.325106,-1.037693 0.233738,-1.54344 0.47325,-0.428285 0.584738,-0.431024 1.15944,-0.02849 0.815498,0.571196 0.811943,1.415709 -0.0084,1.990281 -0.808014,0.565956 -1.094944,0.570263 -1.094944,0.01643 z M 15.495814,16.432704 c -0.936734,-0.656113 -0.805811,-1.057235 0.709639,-2.174179 2.223691,-1.638946 3.952307,-2.537967 4.933492,-2.565818 0.508716,-0.01446 1.005552,-0.156689 1.104081,-0.316115 0.09853,-0.159417 1.02755,-0.289859 2.064491,-0.289859 h 1.885349 l -0.09083,0.916117 c -0.09784,0.986902 -0.04203,0.961556 -2.8445,1.291845 -0.876826,0.103347 -1.789884,0.348707 -2.029019,0.545262 -0.239135,0.196555 -0.768918,0.436427 -1.177297,0.533049 -0.408378,0.09663 -1.125782,0.505293 -1.594229,0.908157 -0.468448,0.402863 -1.000813,0.732639 -1.183035,0.732833 -0.182222,1.95e-4 -0.406393,0.196009 -0.498158,0.435144 -0.211345,0.550757 -0.475036,0.547372 -1.279984,-0.01643 z M 30.14171,14.373557 c -0.869577,-0.458025 -0.951767,-0.717088 -0.497058,-1.56672 0.354878,-0.663095 1.07513,-0.707888 1.858314,-0.115574 0.437793,0.331102 0.486482,0.504316 0.217393,0.773403 -0.19071,0.19071 -0.346746,0.581533 -0.346746,0.868494 0,0.605665 -0.149425,0.610564 -1.231903,0.04039 z"
       id="path1" /></g></svg>
