<?xml version="1.0" encoding="UTF-8" standalone="no"?>
<!-- Created with Inkscape (http://www.inkscape.org/) -->

<svg
   width="50mm"
   height="50mm"
   viewBox="0 0 50 50"
   version="1.1"
   id="svg5"
   inkscape:version="1.4.3 (0d15f75, 2025-12-25)"
   sodipodi:docname="Suffer In Silence.svg"
   inkscape:export-filename="circle50x50.png"
   inkscape:export-xdpi="96"
   inkscape:export-ydpi="96"
   xml:space="preserve"
   xmlns:inkscape="http://www.inkscape.org/namespaces/inkscape"
   xmlns:sodipodi="http://sodipodi.sourceforge.net/DTD/sodipodi-0.dtd"
   xmlns="http://www.w3.org/2000/svg"
   xmlns:svg="http://www.w3.org/2000/svg"><sodipodi:namedview
     id="namedview7"
     pagecolor="#505050"
     bordercolor="#eeeeee"
     borderopacity="1"
     inkscape:showpageshadow="0"
     inkscape:pageopacity="0"
     inkscape:pagecheckerboard="0"
     inkscape:deskcolor="#505050"
     inkscape:document-units="mm"
     showgrid="false"
     inkscape:zoom="2.0888418"
     inkscape:cx="142.90216"
     inkscape:cy="157.26418"
     inkscape:window-width="1920"
     inkscape:window-height="1009"
     inkscape:window-x="-8"
     inkscape:window-y="-8"
     inkscape:window-maximized="1"
     inkscape:current-layer="layer1" /><defs
     id="defs2" /><g
     inkscape:label="Layer 1"
     inkscape:groupmode="layer"
     id="layer1"><path
       style="baseline-shift:baseline;display:inline;overflow:visible;vector-effect:none;fill:currentColor;enable-background:accumulate;stop-color:#000000;stop-opacity:1;opacity:1"
       d="M 25,1.5117187 C 12.034381,1.5117187 1.5117188,12.034381 1.5117187,25 1.5117188,37.965619 12.034381,48.488281 25,48.488281 37.965619,48.488281 48.488281,37.965619 48.488281,25 48.488281,12.034381 37.965619,1.5117188 25,1.5117187 Z m 0,1.1191407 C 37.360866,2.6308594 47.369141,12.639134 47.369141,25 47.369141,37.360866 37.360866,47.369141 25,47.369141 12.639134,47.369141 2.6308594,37.360866 2.6308594,25 2.6308594,12.639134 12.639134,2.6308594 25,2.6308594 Z"
       id="path362" /><path
       style="fill:currentColor;fill-opacity:1;stroke-width:1.69555"
       d="m 22.455315,35.606415 c -3.974743,-1.056739 -7.28368,-4.704313 -7.931507,-8.743223 L 14.317325,25.575858 H 12.423837 10.53035 V 21.48668 17.397502 h 1.328846 1.328846 v 2.004679 2.00468 l 2.783057,-2.729125 C 19.751284,14.970809 21.248241,14.234065 25,14.234065 c 2.467922,0 3.00914,0.101609 4.499764,0.844741 3.073422,1.532228 5.449321,4.711837 5.976428,7.998111 l 0.206484,1.287334 h 1.893486 1.893488 v 4.089178 4.089178 H 38.140805 36.811959 V 30.537928 28.53325 l -2.783058,2.729123 c -3.455525,3.38856 -5.217987,4.327397 -8.412119,4.481009 -1.232509,0.05928 -2.65517,-0.0024 -3.161467,-0.136967 z m 6.33787,-2.733896 c 1.259933,-0.662358 6.24698,-5.311653 6.24698,-5.823896 0,-0.14363 -0.863749,-0.261156 -1.919442,-0.261156 h -1.919444 v -1.211609 -1.211607 h 1.21406 1.21406 l -0.205167,-1.121794 c -0.453969,-2.482164 -2.281936,-4.917578 -4.667012,-6.217894 -1.809534,-0.986538 -5.722182,-0.976784 -7.550405,0.01882 -1.275159,0.694419 -6.24698,5.348783 -6.24698,5.848102 0,0.14363 0.863749,0.261156 1.919444,0.261156 h 1.919444 v 1.211609 1.211607 h -1.181197 c -1.338443,0 -1.430316,0.269214 -0.754803,2.211795 0.883991,2.542108 2.867065,4.58301 5.390403,5.547589 1.623954,0.620779 4.92304,0.387361 6.540059,-0.462723 z m -5.771629,-6.16559 c -2.005234,-2.14201 -2.35878,-2.926021 -1.867778,-4.141927 0.442494,-1.095779 1.498767,-1.671693 2.569898,-1.401194 0.458356,0.115759 1.032702,0.21046 1.276324,0.21046 0.243622,0 0.817968,-0.09471 1.276326,-0.21046 1.609071,-0.40635 3.195817,1.328136 2.695178,2.946123 C 28.758899,24.79704 25.394488,28.604879 25,28.604879 c -0.110928,0 -1.001227,-0.854078 -1.978444,-1.89795 z"
       id="path1" /></g></svg>
