<?xml version="1.0" encoding="UTF-8" standalone="no"?>
<!-- Created with Inkscape (http://www.inkscape.org/) -->

<svg
   width="50mm"
   height="50mm"
   viewBox="0 0 50 50"
   version="1.1"
   id="svg5"
   inkscape:version="1.4.3 (0d15f75, 2025-12-25)"
   sodipodi:docname="Three Deep Breaths.svg"
   inkscape:export-filename="circle50x50.png"
   inkscape:export-xdpi="96"
   inkscape:export-ydpi="96"
   xml:space="preserve"
   xmlns:inkscape="http://www.inkscape.org/namespaces/inkscape"
   xmlns:sodipodi="http://sodipodi.sourceforge.net/DTD/sodipodi-0.dtd"
   xmlns="http://www.w3.org/2000/svg"
   xmlns:svg="http://www.w3.org/2000/svg"><sodipodi:namedview
     id="namedview7"
     pagecolor="#505050"
     bordercolor="#eeeeee"
     borderopacity="1"
     inkscape:showpageshadow="0"
     inkscape:pageopacity="0"
     inkscape:pagecheckerboard="0"
     inkscape:deskcolor="#505050"
     inkscape:document-units="mm"
     showgrid="false"
     inkscape:zoom="2.0888418"
     inkscape:cx="142.90216"
     inkscape:cy="157.26418"
     inkscape:window-width="1920"
     inkscape:window-height="1009"
     inkscape:window-x="-8"
     inkscape:window-y="-8"
     inkscape:window-maximized="1"
     inkscape:current-layer="layer1" /><defs
     id="defs2" /><g
     inkscape:label="Layer 1"
     inkscape:groupmode="layer"
     id="layer1"><path
       style="baseline-shift:baseline;display:inline;overflow:visible;vector-effect:none;fill:currentColor;enable-background:accumulate;stop-color:#000000;stop-opacity:1;opacity:1"
       d="M 25,1.5117187 C 12.034381,1.5117187 1.5117188,12.034381 1.5117187,25 1.5117188,37.965619 12.034381,48.488281 25,48.488281 37.965619,48.488281 48.488281,37.965619 48.488281,25 48.488281,12.034381 37.965619,1.5117188 25,1.5117187 Z m 0,1.1191407 C 37.360866,2.6308594 47.369141,12.639134 47.369141,25 47.369141,37.360866 37.360866,47.369141 25,47.369141 12.639134,47.369141 2.6308594,37.360866 2.6308594,25 2.6308594,12.639134 12.639134,2.6308594 25,2.6308594 Z"
       id="path362" /><path
       style="fill:currentColor;fill-opacity:1;stroke-width:1.66039"
       d="M 25.220613,38.429339 C 20.208464,36.976703 13.877768,30.214675 13.877768,26.313668 c 0,-1.096504 -0.232673,-1.30947 -1.1222,-1.027145 -2.363192,0.750048 -1.888767,-1.059678 1.047566,-3.996011 l 3.003376,-3.003376 3.075177,3.083689 c 2.453261,2.460051 2.903144,3.191203 2.224525,3.615304 -0.467861,0.292388 -1.060931,0.401658 -1.317934,0.24282 -0.74593,-0.461008 -0.542457,0.864638 0.417699,2.721376 1.055634,2.04137 4.73062,4.673697 6.524941,4.673697 1.94002,0 3.133549,0.611005 3.133549,1.604163 0,0.704081 -0.496762,0.826449 -2.34738,0.578229 -5.508079,-0.738789 -9.667266,-4.775358 -10.432488,-10.124928 -0.284026,-1.985591 -0.687424,-2.893807 -1.285327,-2.893807 -2.222759,0 -0.783579,6.767511 2.190936,10.302523 1.802756,2.142451 6.015911,4.345608 9.384829,4.907541 1.557422,0.259778 2.48943,0.724905 2.48943,1.242373 0,0.947542 -2.713466,1.038517 -5.643854,0.189223 z m 4.743818,-9.927295 c -2.318909,-2.35431 -2.734354,-3.056635 -2.056066,-3.47584 0.467528,-0.288947 1.060325,-0.395401 1.317328,-0.236565 0.745928,0.46101 0.542457,-0.864636 -0.417699,-2.721376 -1.055634,-2.04137 -4.73062,-4.673695 -6.524941,-4.673695 -1.94002,0 -3.133551,-0.611007 -3.133551,-1.604165 0,-0.704081 0.496764,-0.826448 2.34738,-0.578229 5.508079,0.738789 9.667267,4.77536 10.43249,10.12493 0.284026,1.985589 0.687424,2.893805 1.285325,2.893805 2.222761,0 0.783581,-6.76751 -2.190936,-10.302521 -1.802754,-2.142453 -6.015911,-4.345608 -9.384828,-4.907541 -1.680544,-0.280316 -2.489431,-0.710507 -2.489431,-1.323963 0,-0.744903 0.522307,-0.846866 2.897249,-0.56559 5.193476,0.615091 9.703951,3.614703 12.33588,8.20376 0.958418,1.671105 1.74505,3.649206 1.748074,4.39578 0.0043,1.070007 0.243094,1.281994 1.127698,1.001232 2.295859,-0.728678 1.891785,1.029063 -0.884536,3.847769 -1.556221,1.579979 -2.981105,2.87269 -3.166408,2.87269 -0.185301,0 -1.644663,-1.327717 -3.243028,-2.950481 z"
       id="path1" /></g></svg>
