<?xml version="1.0" encoding="UTF-8" standalone="no"?>
<!-- Created with Inkscape (http://www.inkscape.org/) -->

<svg
   width="50mm"
   height="50mm"
   viewBox="0 0 50 50"
   version="1.1"
   id="svg5"
   inkscape:version="1.4.3 (0d15f75, 2025-12-25)"
   sodipodi:docname="Traveling Tinkerer.svg"
   inkscape:export-filename="circle50x50.png"
   inkscape:export-xdpi="96"
   inkscape:export-ydpi="96"
   xml:space="preserve"
   xmlns:inkscape="http://www.inkscape.org/namespaces/inkscape"
   xmlns:sodipodi="http://sodipodi.sourceforge.net/DTD/sodipodi-0.dtd"
   xmlns="http://www.w3.org/2000/svg"
   xmlns:svg="http://www.w3.org/2000/svg"><sodipodi:namedview
     id="namedview7"
     pagecolor="#505050"
     bordercolor="#eeeeee"
     borderopacity="1"
     inkscape:showpageshadow="0"
     inkscape:pageopacity="0"
     inkscape:pagecheckerboard="0"
     inkscape:deskcolor="#505050"
     inkscape:document-units="mm"
     showgrid="false"
     inkscape:zoom="2.0888418"
     inkscape:cx="142.90216"
     inkscape:cy="157.26418"
     inkscape:window-width="1920"
     inkscape:window-height="1009"
     inkscape:window-x="-8"
     inkscape:window-y="-8"
     inkscape:window-maximized="1"
     inkscape:current-layer="layer1" /><defs
     id="defs2" /><g
     inkscape:label="Layer 1"
     inkscape:groupmode="layer"
     id="layer1"><path
       style="baseline-shift:baseline;display:inline;overflow:visible;vector-effect:none;fill:currentColor;enable-background:accumulate;stop-color:#000000;stop-opacity:1;opacity:1"
       d="M 25,1.5117187 C 12.034381,1.5117187 1.5117188,12.034381 1.5117187,25 1.5117188,37.965619 12.034381,48.488281 25,48.488281 37.965619,48.488281 48.488281,37.965619 48.488281,25 48.488281,12.034381 37.965619,1.5117188 25,1.5117187 Z m 0,1.1191407 C 37.360866,2.6308594 47.369141,12.639134 47.369141,25 47.369141,37.360866 37.360866,47.369141 25,47.369141 12.639134,47.369141 2.6308594,37.360866 2.6308594,25 2.6308594,12.639134 12.639134,2.6308594 25,2.6308594 Z"
       id="path362" /><path
       style="fill:currentColor;fill-opacity:1;stroke-width:1.61359"
       d="m 33.392223,38.372414 c -0.09675,-0.156534 -0.398509,-0.284619 -0.670581,-0.284619 -0.272074,0 -0.968947,-0.485695 -1.548607,-1.079321 -0.955378,-0.978396 -1.05393,-1.224834 -1.05393,-2.635463 V 32.81687 l -5.550098,-5.544624 c -5.062662,-5.057669 -5.599751,-5.513617 -6.115447,-5.19156 -0.674922,0.421495 -2.850024,0.473732 -2.850024,0.06845 0,-0.156534 -0.224137,-0.29398 -0.498082,-0.305422 -1.361167,-0.05685 -3.134234,-1.89987 -3.181162,-3.306672 -0.01146,-0.342978 -0.148885,-0.702753 -0.305421,-0.799499 -0.418268,-0.258505 -0.346541,-1.444315 0.110305,-1.823456 0.315214,-0.261605 0.715303,0.0042 1.982389,1.317089 l 1.587474,1.644842 1.783237,-1.776141 1.783238,-1.776141 -1.628977,-1.590468 c -1.408009,-1.374726 -1.574095,-1.645353 -1.224386,-1.995061 0.467137,-0.467137 1.468462,-0.536738 1.726036,-0.119971 0.09675,0.156535 0.456523,0.293982 0.799499,0.305422 1.406803,0.04692 3.249826,1.819996 3.306674,3.181161 0.01146,0.273947 0.148886,0.498084 0.305422,0.498084 0.405286,0 0.353049,2.175102 -0.06845,2.850022 -0.322057,0.515697 0.133896,1.052786 5.19156,6.115447 l 5.544625,5.550099 h 1.581533 c 1.455648,0 1.665424,0.08591 2.635463,1.079322 0.579661,0.593626 1.05393,1.2905 1.05393,1.548608 0,0.258106 0.12807,0.548442 0.284619,0.645188 0.156534,0.09675 0.284617,0.488543 0.284617,0.870655 0,0.382112 -0.128086,0.694749 -0.284617,0.694749 -0.156534,0 -0.284619,0.310345 -0.284619,0.689654 0,0.897849 -1.543307,2.441156 -2.441156,2.441156 -0.379309,0 -0.689654,0.12807 -0.689654,0.284619 0,0.156534 -0.312637,0.284619 -0.694749,0.284619 -0.382114,0 -0.773908,-0.12807 -0.870655,-0.284619 z m 2.619176,-2.332785 c 1.506533,-1.460189 1.218842,-3.422225 -0.643466,-4.388401 -1.17643,-0.610339 -1.716637,-0.482561 -2.959892,0.700118 -1.226811,1.167038 -1.385999,1.801952 -0.756171,3.015946 0.955372,1.841482 2.851562,2.133917 4.359529,0.672337 z M 23.246108,35.31276 c -0.06438,-0.326118 -0.1535,-1.013982 -0.200336,-1.546224 -0.02317,-0.263398 -0.330318,-0.559623 -0.682534,-0.658281 -0.352217,-0.09866 -0.929033,-0.321298 -1.281816,-0.494755 -0.537906,-0.264479 -0.757343,-0.206474 -1.359711,0.359421 l -0.71829,0.6748 -0.758645,-0.758645 -0.758644,-0.758644 0.624106,-0.541286 c 0.65978,-0.572224 0.795377,-1.179078 0.363589,-1.627223 -0.143287,-0.148708 -0.303384,-0.590585 -0.355774,-0.981935 -0.07963,-0.594878 -0.281928,-0.734882 -1.233732,-0.853857 -1.114757,-0.13935 -1.138475,-0.166029 -1.138475,-1.280786 0,-1.135909 0.0027,-1.138673 1.209631,-1.225996 0.823603,-0.05959 1.20963,-0.218541 1.20963,-0.498082 0,-0.592651 0.380402,-0.50595 1.088864,0.248173 0.463177,0.49303 0.618851,1.01284 0.618851,2.066414 0,1.263612 0.119857,1.531174 1.171231,2.614382 0.834231,0.859497 1.427961,1.221822 2.063487,1.259244 0.490742,0.0289 1.159668,0.0673 1.486503,0.08536 0.326836,0.01804 0.962295,0.322319 1.412135,0.676163 0.669955,0.526986 0.74265,0.690936 0.401919,0.906454 -0.228783,0.144706 -0.512026,0.265065 -0.629432,0.267463 -0.117405,0.0024 -0.213463,0.516673 -0.213463,1.142835 v 1.138475 h -1.138477 c -0.626162,0 -1.157439,-0.09606 -1.180617,-0.213465 z m 8.894521,-9.290199 c -0.471372,-0.501752 -0.695027,-1.137257 -0.779117,-2.213819 -0.102738,-1.315318 -0.271495,-1.666488 -1.308677,-2.723301 -1.085184,-1.105722 -1.317917,-1.214058 -2.625716,-1.222255 -1.10451,-0.0069 -1.615246,-0.167649 -2.217692,-0.697895 -0.927871,-0.816674 -0.97016,-1.000825 -0.229828,-1.000825 0.446963,0 0.569638,-0.231717 0.640392,-1.209631 0.08733,-1.206902 0.09009,-1.209631 1.225996,-1.209631 1.114757,0 1.141441,0.02372 1.280786,1.138477 0.11897,0.951804 0.258979,1.154095 0.853856,1.233732 0.391351,0.05239 0.833223,0.212488 0.981936,0.355773 0.446989,0.430673 1.054518,0.296744 1.622001,-0.357568 l 0.536061,-0.618085 0.853372,0.817581 0.853372,0.817583 -0.78077,0.622562 c -0.687845,0.54847 -0.741274,0.702565 -0.448926,1.294755 0.182514,0.369705 0.412518,0.960226 0.511122,1.312269 0.133782,0.477635 0.46337,0.685509 1.298673,0.81908 1.079241,0.172577 1.119396,0.218533 1.119396,1.281097 0,1.097504 -0.0048,1.1021 -1.147648,1.1021 -0.895385,0 -1.194881,0.127683 -1.362533,0.580892 -0.210425,0.568833 -0.228612,0.566282 -0.876056,-0.122891 z"
       id="path1" /></g></svg>
