<?xml version="1.0" encoding="UTF-8" standalone="no"?>
<!-- Created with Inkscape (http://www.inkscape.org/) -->

<svg
   width="50mm"
   height="50mm"
   viewBox="0 0 50 50"
   version="1.1"
   id="svg5"
   inkscape:version="1.4.3 (0d15f75, 2025-12-25)"
   sodipodi:docname="Calming Stroll.svg"
   inkscape:export-filename="circle50x50.png"
   inkscape:export-xdpi="96"
   inkscape:export-ydpi="96"
   xml:space="preserve"
   xmlns:inkscape="http://www.inkscape.org/namespaces/inkscape"
   xmlns:sodipodi="http://sodipodi.sourceforge.net/DTD/sodipodi-0.dtd"
   xmlns="http://www.w3.org/2000/svg"
   xmlns:svg="http://www.w3.org/2000/svg"><sodipodi:namedview
     id="namedview7"
     pagecolor="#505050"
     bordercolor="#eeeeee"
     borderopacity="1"
     inkscape:showpageshadow="0"
     inkscape:pageopacity="0"
     inkscape:pagecheckerboard="0"
     inkscape:deskcolor="#505050"
     inkscape:document-units="mm"
     showgrid="false"
     inkscape:zoom="2.0888418"
     inkscape:cx="142.90216"
     inkscape:cy="157.26418"
     inkscape:window-width="1920"
     inkscape:window-height="1009"
     inkscape:window-x="-8"
     inkscape:window-y="-8"
     inkscape:window-maximized="1"
     inkscape:current-layer="layer1" /><defs
     id="defs2" /><g
     inkscape:label="Layer 1"
     inkscape:groupmode="layer"
     id="layer1"><circle
       style="fill:none;stroke:#ffffff;stroke-width:1.119;stroke-opacity:1"
       id="path362"
       cx="25"
       cy="25"
       r="22.928829" /><path
       style="fill:#ffffff;stroke-width:1.66341;fill-opacity:1"
       d="m 20.620595,38.118429 c -1.853853,-0.632042 -4.254721,-2.151872 -5.402098,-3.419708 -0.551886,-0.609827 -0.548763,-0.626788 0.27347,-1.485012 l 0.831731,-0.868142 1.243003,1.145761 c 2.015898,1.858191 4.822295,2.947893 7.591942,2.947893 0.903615,0 0.989853,0.08111 1.101318,1.035893 0.06652,0.569742 0.05895,1.097876 -0.0168,1.173631 -0.386785,0.386785 -3.906263,0.05483 -5.622566,-0.530316 z m 8.842122,-1.261063 c -0.208606,-0.576891 -0.334156,-1.072016 -0.278997,-1.100279 0.05516,-0.02826 0.395569,-0.216427 0.756472,-0.418144 0.922992,-0.515886 1.059184,-0.47689 1.79086,0.512752 l 0.650251,0.879513 -0.961834,0.586428 c -1.311337,0.79952 -1.518857,0.750708 -1.956752,-0.46027 z m 4.682918,-3.183797 c -0.676469,-0.720066 -0.647489,-0.995886 0.209576,-1.994679 0.409354,-0.477047 0.482165,-0.471719 1.275706,0.09333 1.019103,0.725667 1.05307,1.138536 0.162499,1.975188 -0.842407,0.7914 -0.834599,0.791751 -1.647778,-0.07384 z m -8.961035,-2.507022 -0.851606,-0.888884 0.843307,-0.880221 0.843307,-0.880223 h -4.456006 -4.456006 v -1.320334 -1.320334 h 5.832224 c 4.910176,0 5.8919,-0.07191 6.209704,-0.454837 0.310479,-0.374105 0.298402,-0.533915 -0.06803,-0.900353 -0.35698,-0.35698 -1.576441,-0.473775 -6.136352,-0.587711 l -5.690837,-0.142188 -0.09022,-1.15801 -0.09022,-1.158009 h 4.472876 4.472877 l -0.849578,-0.886769 -0.849577,-0.886767 0.873149,-0.873148 0.873148,-0.873149 3.512733,3.521907 3.512733,3.521908 -3.528006,3.528005 -3.528005,3.528005 z M 12.289858,30.60907 c -0.454215,-0.734934 -1.050412,-3.920637 -1.050412,-5.612742 0,-1.875336 0.669973,-5.187056 1.145813,-5.663828 0.129431,-0.12968 0.704372,-0.01214 1.277649,0.26126 l 1.042323,0.497048 -0.451893,1.205778 c -0.599427,1.599441 -0.599427,5.800043 0,7.399484 l 0.451893,1.205778 -1.009329,0.481315 c -1.172124,0.558947 -1.197677,0.563052 -1.406044,0.225907 z m 24.703065,-1.610465 c -0.975157,-0.256937 -1.075559,-0.369855 -0.929068,-1.044894 0.300848,-1.386325 0.38532,-1.490373 1.206297,-1.485852 1.310385,0.0072 1.61879,0.355234 1.390967,1.569638 -0.110716,0.59016 -0.285356,1.112653 -0.388094,1.161097 -0.102732,0.04844 -0.678782,-0.04155 -1.280102,-0.199989 z m -0.65184,-5.836073 c -0.523646,-1.699745 -0.472273,-1.876868 0.643714,-2.219375 1.263527,-0.387786 1.428377,-0.275472 1.690425,1.151689 0.172775,0.940967 0.117869,1.080045 -0.490632,1.242975 -1.069687,0.286411 -1.720328,0.224546 -1.843507,-0.175289 z m -2.359295,-5.390887 c -0.49041,-0.748461 -0.48346,-0.790598 0.25165,-1.52571 l 0.755991,-0.75599 0.741531,0.696633 c 0.912407,0.857161 0.93359,1.306763 0.08942,1.898036 -0.906387,0.634859 -1.256625,0.57524 -1.838602,-0.312969 z M 15.497286,16.784501 c -0.728138,-0.760013 -0.777479,-0.922242 -0.414921,-1.364241 0.972865,-1.186033 3.967826,-3.073136 5.751749,-3.624133 1.71159,-0.528656 5.053233,-0.80803 5.409047,-0.452216 0.07575,0.07575 0.08332,0.603889 0.0168,1.173631 -0.111465,0.954779 -0.197703,1.035895 -1.101318,1.035895 -2.769647,0 -5.576044,1.089702 -7.591942,2.947892 l -1.243003,1.14576 z M 29.870821,14.63646 c -0.322747,-0.192227 -0.632982,-0.373667 -0.689408,-0.403198 -0.251107,-0.131426 0.624445,-2.146747 0.932218,-2.145767 0.189203,6.04e-4 0.78086,0.267442 1.314796,0.592973 l 0.970791,0.591876 -0.677383,0.857832 c -0.750875,0.950898 -0.993219,1.017183 -1.851014,0.506284 z"
       id="path1" /></g></svg>
