<?xml version="1.0" encoding="UTF-8" standalone="no"?>
<!-- Created with Inkscape (http://www.inkscape.org/) -->

<svg
   width="50mm"
   height="50mm"
   viewBox="0 0 50 50"
   version="1.1"
   id="svg5"
   inkscape:version="1.4.3 (0d15f75, 2025-12-25)"
   sodipodi:docname="Carry The Momentum.svg"
   inkscape:export-filename="circle50x50.png"
   inkscape:export-xdpi="96"
   inkscape:export-ydpi="96"
   xml:space="preserve"
   xmlns:inkscape="http://www.inkscape.org/namespaces/inkscape"
   xmlns:sodipodi="http://sodipodi.sourceforge.net/DTD/sodipodi-0.dtd"
   xmlns="http://www.w3.org/2000/svg"
   xmlns:svg="http://www.w3.org/2000/svg"><sodipodi:namedview
     id="namedview7"
     pagecolor="#505050"
     bordercolor="#eeeeee"
     borderopacity="1"
     inkscape:showpageshadow="0"
     inkscape:pageopacity="0"
     inkscape:pagecheckerboard="0"
     inkscape:deskcolor="#505050"
     inkscape:document-units="mm"
     showgrid="false"
     inkscape:zoom="2.0888418"
     inkscape:cx="142.90216"
     inkscape:cy="157.26418"
     inkscape:window-width="1920"
     inkscape:window-height="1009"
     inkscape:window-x="-8"
     inkscape:window-y="-8"
     inkscape:window-maximized="1"
     inkscape:current-layer="layer1" /><defs
     id="defs2" /><g
     inkscape:label="Layer 1"
     inkscape:groupmode="layer"
     id="layer1"><path
       style="baseline-shift:baseline;display:inline;overflow:visible;vector-effect:none;fill:currentColor;enable-background:accumulate;stop-color:#000000;stop-opacity:1;opacity:1"
       d="M 25,1.5117187 C 12.034381,1.5117187 1.5117188,12.034381 1.5117187,25 1.5117188,37.965619 12.034381,48.488281 25,48.488281 37.965619,48.488281 48.488281,37.965619 48.488281,25 48.488281,12.034381 37.965619,1.5117188 25,1.5117187 Z m 0,1.1191407 C 37.360866,2.6308594 47.369141,12.639134 47.369141,25 47.369141,37.360866 37.360866,47.369141 25,47.369141 12.639134,47.369141 2.6308594,37.360866 2.6308594,25 2.6308594,12.639134 12.639134,2.6308594 25,2.6308594 Z"
       id="path362" /><path
       style="fill:currentColor;stroke-width:1.62799;fill-opacity:1;stroke:none;stroke-opacity:1"
       d="M 24.05454,38.195464 C 23.883193,38.08672 23.841107,37.319301 23.877998,34.976267 l 0.04844,-3.076417 0.763353,-0.05492 c 1.24384,-0.0895 1.266886,-0.02909 1.266886,3.32051 v 2.957538 l -0.551695,0.110339 c -0.727158,0.145431 -1.077099,0.135623 -1.35044,-0.03785 z m 3.832922,-0.03526 c -0.184749,-0.114181 -0.253193,-5.887139 -0.07325,-6.178293 0.150358,-0.243284 1.562043,-0.21098 1.814547,0.04152 0.245802,0.245803 0.300687,5.553761 0.06133,5.931083 -0.150701,0.237561 -1.501637,0.391708 -1.802626,0.205687 z m 4.127964,-5.686586 C 31.427,31.85138 31.434705,31.639402 32.073666,30.87119 c 0.228293,-0.27447 0.415078,-0.566835 0.415078,-0.6497 0,-0.08286 -3.237349,-0.176922 -7.194108,-0.209016 -6.269072,-0.05085 -7.273559,-0.09618 -7.812007,-0.35253 -0.339845,-0.161799 -0.737065,-0.342817 -0.882713,-0.402264 -0.285349,-0.116464 -0.666726,-0.341454 -1.500612,-0.88527 -1.375425,-0.89698 -3.442579,-3.845621 -3.442579,-4.910585 0,-0.223713 -0.0911,-0.497855 -0.202454,-0.609205 -0.352993,-0.352993 -0.407577,-2.74782 -0.0851,-3.733734 0.158156,-0.483532 0.287555,-1.033245 0.287555,-1.221582 0,-0.188338 0.119166,-0.441331 0.264814,-0.562208 0.145648,-0.120877 0.264814,-0.411152 0.264814,-0.645057 0,-0.233904 0.119166,-0.471008 0.264814,-0.526898 0.145647,-0.05589 0.264814,-0.193789 0.264814,-0.306442 0,-0.417431 1.664885,-2.089191 2.799953,-2.811512 1.767766,-1.124951 2.689706,-1.376964 5.047734,-1.379804 1.484014,-0.0018 2.152384,0.07008 2.546301,0.273778 0.293762,0.151911 0.68722,0.276201 0.87435,0.276201 0.187129,0 0.439135,0.119167 0.560011,0.264814 0.120877,0.145648 0.28551,0.264814 0.365851,0.264814 0.327755,0 1.777749,1.123554 2.530529,1.960826 0.899683,1.000663 1.958153,3.05685 2.125959,4.129892 0.06074,0.388393 0.15572,1.278493 0.211072,1.977999 0.09822,1.241276 0.09017,1.274457 -0.335176,1.381212 -0.239698,0.06016 -0.705001,0.08367 -1.034006,0.05224 -0.52099,-0.04977 -0.604488,-0.125497 -0.646976,-0.586771 -0.114333,-1.241288 -0.616664,-3.410548 -0.952521,-4.113364 -0.541124,-1.132355 -2.056512,-2.596337 -3.147445,-3.040673 -0.242746,-0.09887 -0.632901,-0.27743 -0.867013,-0.396799 -0.671433,-0.342352 -4.208691,-0.268024 -4.870619,0.102345 -0.291295,0.162989 -0.597639,0.296833 -0.680765,0.297431 -0.489331,0.0035 -2.533313,1.972476 -2.795992,2.693361 -0.0973,0.267021 -0.241595,0.485492 -0.32066,0.485492 -0.07906,0 -0.197372,0.31736 -0.262905,0.705245 -0.06553,0.387885 -0.191682,0.750072 -0.280331,0.804861 -0.08865,0.05479 -0.161181,0.767506 -0.161181,1.583818 0,1.45257 0.05808,1.683562 0.864152,3.436501 0.447587,0.973361 2.147948,2.577768 3.307402,3.12076 l 1.03645,0.485386 8.326583,0.0073 c 4.579621,0.004 8.363209,-0.03241 8.407975,-0.08096 0.31451,-0.341095 0.283139,-0.88634 -0.06992,-1.215265 -0.37584,-0.350149 -0.613393,-0.361706 -8.450167,-0.411083 -7.403715,-0.04665 -8.088722,-0.07608 -8.372252,-0.359755 -0.169837,-0.169922 -0.451721,-0.30895 -0.626411,-0.30895 -0.342525,0 -1.466307,-1.069842 -1.863527,-1.774081 -0.955277,-1.69363 -1.172531,-2.875622 -0.725293,-3.946015 0.155935,-0.373205 0.283519,-0.829213 0.283519,-1.01335 0,-0.428725 2.184391,-2.623308 2.611126,-2.623308 0.177436,0 0.476823,-0.11664 0.665304,-0.259199 0.474317,-0.358756 3.035747,-0.358756 3.510064,0 0.188481,0.142559 0.441573,0.259199 0.562428,0.259199 0.267607,0 1.739549,1.318276 2.211779,1.980877 0.430871,0.60457 0.855308,2.208599 0.855308,3.232378 0,0.675169 -0.05717,0.796813 -0.416928,0.887106 -0.22931,0.05756 -0.686113,0.07893 -1.015119,0.0475 -0.591119,-0.05647 -0.599254,-0.06906 -0.687973,-1.064946 -0.04938,-0.554291 -0.188407,-1.106427 -0.308949,-1.22697 -0.120543,-0.120543 -0.221811,-0.342307 -0.225042,-0.49281 -0.0084,-0.390292 -0.505313,-0.924573 -1.284151,-1.380658 -1.530678,-0.896358 -3.569004,-0.222281 -4.375506,1.446986 -0.733295,1.517745 -0.234868,3.08436 1.283505,4.034211 0.418479,0.261788 1.190427,0.2968 6.708616,0.304263 3.429647,0.0047 6.335027,0.0065 6.4564,0.0042 0.366342,-0.0071 0.250532,-0.340052 -0.308218,-0.886248 l -0.528896,-0.517013 0.693046,-0.728542 c 0.555491,-0.583943 0.754329,-0.694247 1.001812,-0.555749 0.435007,0.243442 5.895008,5.719209 5.895008,5.91203 0,0.266852 -5.762579,5.951484 -6.03309,5.951484 -0.139248,0 -0.497341,-0.258194 -0.795763,-0.573764 z"
       id="path1" /></g></svg>
