<?xml version="1.0" encoding="UTF-8" standalone="no"?>
<!-- Created with Inkscape (http://www.inkscape.org/) -->

<svg
   width="50mm"
   height="50mm"
   viewBox="0 0 50 50"
   version="1.1"
   id="svg5"
   inkscape:version="1.4.3 (0d15f75, 2025-12-25)"
   sodipodi:docname="Effortless Roll.svg"
   inkscape:export-filename="circle50x50.png"
   inkscape:export-xdpi="96"
   inkscape:export-ydpi="96"
   xml:space="preserve"
   xmlns:inkscape="http://www.inkscape.org/namespaces/inkscape"
   xmlns:sodipodi="http://sodipodi.sourceforge.net/DTD/sodipodi-0.dtd"
   xmlns="http://www.w3.org/2000/svg"
   xmlns:svg="http://www.w3.org/2000/svg"><sodipodi:namedview
     id="namedview7"
     pagecolor="#505050"
     bordercolor="#eeeeee"
     borderopacity="1"
     inkscape:showpageshadow="0"
     inkscape:pageopacity="0"
     inkscape:pagecheckerboard="0"
     inkscape:deskcolor="#505050"
     inkscape:document-units="mm"
     showgrid="false"
     inkscape:zoom="2.0888418"
     inkscape:cx="142.90216"
     inkscape:cy="157.26418"
     inkscape:window-width="1920"
     inkscape:window-height="1009"
     inkscape:window-x="-8"
     inkscape:window-y="-8"
     inkscape:window-maximized="1"
     inkscape:current-layer="layer1" /><defs
     id="defs2" /><g
     inkscape:label="Layer 1"
     inkscape:groupmode="layer"
     id="layer1"><path
       style="baseline-shift:baseline;display:inline;overflow:visible;vector-effect:none;fill:currentColor;enable-background:accumulate;stop-color:#000000;stop-opacity:1;opacity:1"
       d="M 25,1.5117187 C 12.034381,1.5117187 1.5117188,12.034381 1.5117187,25 1.5117188,37.965619 12.034381,48.488281 25,48.488281 37.965619,48.488281 48.488281,37.965619 48.488281,25 48.488281,12.034381 37.965619,1.5117188 25,1.5117187 Z m 0,1.1191407 C 37.360866,2.6308594 47.369141,12.639134 47.369141,25 47.369141,37.360866 37.360866,47.369141 25,47.369141 12.639134,47.369141 2.6308594,37.360866 2.6308594,25 2.6308594,12.639134 12.639134,2.6308594 25,2.6308594 Z"
       id="path362" /><path
       style="fill:currentColor;stroke-width:1.62799;fill-opacity:1;stroke:none;stroke-opacity:1"
       d="m 34.114845,33.862702 c -0.425286,-0.469936 -0.426057,-0.565865 -0.008,-0.984001 1.021821,-1.021823 0.586513,-1.155591 -3.429359,-1.053825 -2.140962,0.05425 -3.892469,-0.01664 -3.892236,-0.157672 2.32e-4,-0.140969 0.368414,-0.545167 0.81818,-0.898209 0.745677,-0.585316 1.179751,-0.641895 4.924583,-0.641895 4.570541,0 5.519113,-0.30281 4.161647,-1.328506 -0.583496,-0.440886 -1.340531,-0.557501 -3.882759,-0.598112 -1.73687,-0.02774 -3.199063,-0.09156 -3.24932,-0.141818 -0.05026,-0.05026 -0.0065,-0.312758 0.0974,-0.583334 0.153055,-0.398844 0.636066,-0.491958 2.551973,-0.491958 1.299754,0 2.36319,-0.09044 2.36319,-0.200976 0,-0.110535 -0.220692,-0.444838 -0.490426,-0.742892 -0.399814,-0.441789 -0.420699,-0.625927 -0.113047,-0.996634 0.20756,-0.250096 0.471121,-0.454721 0.585689,-0.454721 0.296971,0 5.022642,4.763349 4.823533,4.861991 -0.09076,0.04496 -1.205614,1.17334 -2.477462,2.507505 -2.161229,2.267123 -2.343267,2.391704 -2.783677,1.905057 z M 10.617996,30.87561 v -0.898209 h 6.293411 c 6.100626,0 6.327756,-0.02168 7.414616,-0.707786 3.59891,-2.271892 4.125339,-6.806948 1.162564,-10.015208 -1.062572,-1.150611 -2.575312,-1.701471 -4.611313,-1.679194 -2.804988,0.03069 -4.44347,1.041161 -5.545704,3.420103 -0.343337,0.741021 -0.704327,1.817422 -0.802199,2.391999 -0.112588,0.661014 -0.368704,1.081424 -0.697349,1.144715 -0.442229,0.08516 -0.5194,-0.145264 -0.5194,-1.550973 0,-0.908049 0.134723,-1.734268 0.299404,-1.836041 0.164665,-0.101776 0.299403,-0.427008 0.299403,-0.722747 0,-0.700171 2.999752,-3.533477 4.009331,-3.786865 0.429613,-0.107819 0.781114,-0.316173 0.781114,-0.462994 0,-0.146825 1.010486,-0.266943 2.245523,-0.266943 1.297412,0 2.24552,0.126405 2.24552,0.299401 0,0.164665 0.217729,0.299403 0.483843,0.299403 0.548848,0 3.408395,2.012977 3.408395,2.399338 0,0.138881 0.168417,0.430554 0.374254,0.648156 0.882374,0.932795 1.222562,2.125935 1.222562,4.287877 0,2.568183 -0.305568,3.348255 -2.030237,5.182897 -1.126586,1.198422 -1.593297,1.490762 -3.847157,2.409802 -0.525392,0.214234 -2.951945,0.341478 -6.512014,0.341478 h -5.674567 z m 0,-3.293432 c 0,-0.578223 0.199603,-0.598806 5.807341,-0.598806 h 5.807341 l 0.902804,-1.028237 c 1.380815,-1.57266 1.452976,-2.144576 0.450881,-3.57348 -0.809943,-1.154912 -0.9728,-1.242705 -2.464282,-1.328438 -1.941524,-0.111604 -2.872393,0.583413 -3.17423,2.369969 -0.165106,0.977308 -0.313152,1.164963 -0.919009,1.164963 -1.20198,0 -0.953877,-1.930635 0.475422,-3.699544 1.021551,-1.264279 4.141043,-2.198837 4.640743,-1.390305 0.101776,0.164665 0.421346,0.299403 0.710163,0.299403 0.586471,0 1.926073,1.324977 2.270306,2.245522 0.324991,0.869084 0.292347,3.371683 -0.04975,3.813459 -0.161067,0.208 -0.371214,0.599149 -0.466996,0.869219 -0.09578,0.27007 -0.608957,0.707946 -1.140388,0.973058 -0.790686,0.394446 -2.045826,0.482023 -6.908295,0.482023 -5.742455,0 -5.942058,-0.02011 -5.942058,-0.598806 z"
       id="path1" /></g></svg>
