<?xml version="1.0" encoding="UTF-8" standalone="no"?>
<!-- Created with Inkscape (http://www.inkscape.org/) -->

<svg
   width="50mm"
   height="50mm"
   viewBox="0 0 50 50"
   version="1.1"
   id="svg5"
   inkscape:version="1.4.3 (0d15f75, 2025-12-25)"
   sodipodi:docname="Heroic Leap.svg"
   inkscape:export-filename="circle50x50.png"
   inkscape:export-xdpi="96"
   inkscape:export-ydpi="96"
   xml:space="preserve"
   xmlns:inkscape="http://www.inkscape.org/namespaces/inkscape"
   xmlns:sodipodi="http://sodipodi.sourceforge.net/DTD/sodipodi-0.dtd"
   xmlns="http://www.w3.org/2000/svg"
   xmlns:svg="http://www.w3.org/2000/svg"><sodipodi:namedview
     id="namedview7"
     pagecolor="#505050"
     bordercolor="#eeeeee"
     borderopacity="1"
     inkscape:showpageshadow="0"
     inkscape:pageopacity="0"
     inkscape:pagecheckerboard="0"
     inkscape:deskcolor="#505050"
     inkscape:document-units="mm"
     showgrid="false"
     inkscape:zoom="2.0888418"
     inkscape:cx="142.90216"
     inkscape:cy="157.26418"
     inkscape:window-width="1920"
     inkscape:window-height="1009"
     inkscape:window-x="-8"
     inkscape:window-y="-8"
     inkscape:window-maximized="1"
     inkscape:current-layer="layer1" /><defs
     id="defs2" /><g
     inkscape:label="Layer 1"
     inkscape:groupmode="layer"
     id="layer1"><circle
       style="fill:none;stroke:#ffffff;stroke-width:1.119;stroke-opacity:1"
       id="path362"
       cx="25"
       cy="25"
       r="22.928829" /><path
       style="fill:#ffffff;stroke-width:1.65594;fill-opacity:1"
       d="m 21.02025,31.341979 c -0.531011,-1.65247 -0.880927,-2.229464 -1.822975,-3.005978 -0.915571,-0.754691 -1.281087,-0.864205 -2.884422,-0.864205 -1.009794,0 -2.12268,0.164303 -2.473075,0.365112 -0.885156,0.507282 -1.983793,1.591816 -1.983793,1.958326 0,0.167951 -0.131432,0.305365 -0.29209,0.305365 -0.160642,0 -0.292089,-0.255122 -0.292089,-0.56694 0,-0.311817 0.131448,-0.648174 0.292089,-0.747461 0.160643,-0.09929 0.29209,-0.475556 0.29209,-0.836155 0,-0.770306 1.300773,-3.48718 1.91274,-3.99507 0.233187,-0.193526 0.423973,-0.528786 0.423973,-0.74502 0,-0.65664 4.212874,-3.624564 5.144949,-3.624564 0.222612,0 0.404747,-0.13145 0.404747,-0.29209 0,-0.160643 0.384932,-0.292088 0.855404,-0.292088 0.470472,0 1.052563,-0.197161 1.293537,-0.438136 0.317712,-0.31771 1.091859,-0.438133 2.816575,-0.438133 1.724717,0 2.498863,0.12042 2.816575,0.438133 0.240975,0.240975 0.823066,0.438136 1.293538,0.438136 0.470472,0 0.855404,0.131431 0.855404,0.292088 0,0.160643 0.184739,0.29209 0.410533,0.29209 1.384287,0 5.262059,3.042927 6.354277,4.986267 0.354746,0.631183 0.752229,1.147607 0.883296,1.147607 0.131068,0 0.238303,0.198943 0.238303,0.442096 0,0.243153 0.131431,0.703193 0.29209,1.022312 0.160642,0.319119 0.423529,0.841312 0.584178,1.160432 0.160643,0.319118 0.29209,1.244132 0.29209,2.055585 v 1.475369 l -2.701826,-0.08399 -2.701825,-0.08399 -0.0792,-1.460445 c -0.04357,-0.803246 -0.190274,-1.723327 -0.326031,-2.044624 -0.828869,-1.961676 -1.167334,-2.487409 -2.499778,-3.882855 -0.811982,-0.850376 -2.194811,-1.898365 -3.072951,-2.328865 -1.440165,-0.706024 -1.905966,-0.781365 -4.753564,-0.768852 -2.012092,0.0088 -3.281477,0.138402 -3.500338,0.357261 -0.188866,0.188865 -0.547125,0.346314 -0.796132,0.349888 -0.249006,0.0036 -0.781337,0.263529 -1.18296,0.577682 l -0.730224,0.57119 0.786007,0.0065 c 0.432304,0.0036 0.867241,-0.124941 0.966528,-0.285595 0.225584,-0.365002 4.354734,-0.386663 5.042503,-0.02646 0.278956,0.146104 0.901513,0.44307 1.383461,0.659933 1.635802,0.736065 3.337202,2.056416 4.006464,3.109168 0.366829,0.577023 0.887376,1.383964 1.15677,1.793203 0.269394,0.409237 0.499414,1.07924 0.511156,1.488896 0.01176,0.409654 0.179077,0.902555 0.371856,1.095334 0.634011,0.634013 -0.180262,0.968749 -2.13271,0.876727 l -1.868912,-0.08808 -0.09384,-1.022312 c -0.05162,-0.562272 -0.215916,-1.147179 -0.365111,-1.299796 -0.1492,-0.152611 -0.271264,-0.499919 -0.271264,-0.771783 0,-0.651579 -3.382047,-3.770205 -4.08866,-3.770205 -0.302661,0 -0.631526,-0.131432 -0.730813,-0.29209 -0.250914,-0.405988 -2.709389,-0.357749 -3.945565,0.07741 -0.563571,0.198394 -1.535832,0.663423 -2.160583,1.033397 -0.854322,0.505928 -1.052858,0.755734 -0.800883,1.007709 0.251972,0.251974 0.421913,0.248136 0.685532,-0.0154 0.203579,-0.203579 1.179363,-0.350505 2.327829,-0.350505 1.896777,0 3.225458,0.449194 4.573657,1.546246 0.618539,0.503316 1.857942,3.146282 1.685799,3.594882 -0.238162,0.620638 -2.196805,0.536995 -2.402332,-0.102585 z"
       id="path1" /></g></svg>
