<?xml version="1.0" encoding="UTF-8" standalone="no"?>
<!-- Created with Inkscape (http://www.inkscape.org/) -->

<svg
   width="50mm"
   height="50mm"
   viewBox="0 0 50 50"
   version="1.1"
   id="svg5"
   inkscape:version="1.4.3 (0d15f75, 2025-12-25)"
   sodipodi:docname="Marathon Runner.svg"
   inkscape:export-filename="circle50x50.png"
   inkscape:export-xdpi="96"
   inkscape:export-ydpi="96"
   xml:space="preserve"
   xmlns:inkscape="http://www.inkscape.org/namespaces/inkscape"
   xmlns:sodipodi="http://sodipodi.sourceforge.net/DTD/sodipodi-0.dtd"
   xmlns="http://www.w3.org/2000/svg"
   xmlns:svg="http://www.w3.org/2000/svg"><sodipodi:namedview
     id="namedview7"
     pagecolor="#505050"
     bordercolor="#eeeeee"
     borderopacity="1"
     inkscape:showpageshadow="0"
     inkscape:pageopacity="0"
     inkscape:pagecheckerboard="0"
     inkscape:deskcolor="#505050"
     inkscape:document-units="mm"
     showgrid="false"
     inkscape:zoom="2.0888418"
     inkscape:cx="142.90216"
     inkscape:cy="157.26418"
     inkscape:window-width="1920"
     inkscape:window-height="1009"
     inkscape:window-x="-8"
     inkscape:window-y="-8"
     inkscape:window-maximized="1"
     inkscape:current-layer="layer1" /><defs
     id="defs2" /><g
     inkscape:label="Layer 1"
     inkscape:groupmode="layer"
     id="layer1"><path
       style="baseline-shift:baseline;display:inline;overflow:visible;vector-effect:none;fill:currentColor;enable-background:accumulate;stop-color:#000000;stop-opacity:1;opacity:1"
       d="M 25,1.5117187 C 12.034381,1.5117187 1.5117188,12.034381 1.5117187,25 1.5117188,37.965619 12.034381,48.488281 25,48.488281 37.965619,48.488281 48.488281,37.965619 48.488281,25 48.488281,12.034381 37.965619,1.5117188 25,1.5117187 Z m 0,1.1191407 C 37.360866,2.6308594 47.369141,12.639134 47.369141,25 47.369141,37.360866 37.360866,47.369141 25,47.369141 12.639134,47.369141 2.6308594,37.360866 2.6308594,25 2.6308594,12.639134 12.639134,2.6308594 25,2.6308594 Z"
       id="path362" /><path
       style="fill:currentColor;fill-opacity:1;stroke-width:1.67979"
       d="m 15.401358,38.333405 c -0.234914,-0.325927 -0.57153,-0.592596 -0.748031,-0.592596 -0.371455,0 -1.894499,-1.617668 -2.437172,-2.588585 -0.203705,-0.364458 -0.370372,-0.931128 -0.370372,-1.259266 0,-0.32814 -0.133326,-0.596616 -0.296299,-0.596616 -0.169311,0 -0.296295,-0.888894 -0.296295,-2.074085 0,-1.185193 0.126975,-2.074086 0.296295,-2.074086 0.162958,0 0.296299,-0.317009 0.296299,-0.704465 0,-0.387455 0.200002,-0.87045 0.444448,-1.073323 0.244444,-0.202871 0.444446,-0.527586 0.444446,-0.72159 0,-0.450756 1.548983,-1.945091 2.016224,-1.945091 0.194788,0 0.354158,-0.133342 0.354158,-0.296299 0,-0.162956 0.26667,-0.296295 0.592598,-0.296295 0.325927,0 0.592595,-0.133325 0.592595,-0.296298 0,-0.162957 0.325466,-0.296299 0.723259,-0.296299 0.397791,0 0.805663,-0.133342 0.906379,-0.296297 0.113589,-0.183781 2.798153,-0.296298 7.069376,-0.296298 4.960913,0 6.985667,-0.09941 7.241812,-0.355559 0.195558,-0.195555 0.355558,-0.768892 0.355558,-1.27408 0,-0.505188 -0.16,-1.078524 -0.355558,-1.274082 -0.255315,-0.255315 -2.221008,-0.355556 -6.972299,-0.355556 -6.03316,0 -6.633172,0.04572 -6.80303,0.518521 -0.249179,0.693568 -1.158386,1.555563 -1.640764,1.555563 -0.213916,0 -1.571696,-1.188262 -3.017287,-2.640582 l -2.62835,-2.640584 2.708211,-2.692778 c 1.489516,-1.481028 2.954388,-2.69278 3.255274,-2.69278 0.811755,0 1.72748,1.104033 1.283762,1.54775 -0.191707,0.191707 -0.348556,0.455224 -0.348556,0.585595 0,0.130369 3.392149,0.237038 7.53811,0.237038 4.705793,0 7.606915,0.111337 7.721232,0.296298 0.100717,0.162957 0.492262,0.296298 0.870101,0.296298 0.377837,0 0.864492,0.213892 1.081453,0.475314 0.216961,0.261423 0.702347,0.592366 1.078635,0.735432 0.376288,0.143067 0.817083,0.56251 0.979545,0.932102 0.162453,0.36959 0.550327,1.071985 0.861923,1.560876 0.831528,1.304654 0.845142,5.637168 0.02232,7.102138 -0.323144,0.575329 -0.498199,1.046055 -0.389012,1.046055 0.532596,0 -1.687851,1.871294 -2.990993,2.520677 -1.45172,0.723422 -1.62336,0.738599 -8.35313,0.738599 -5.500513,0 -7.040229,0.08781 -7.719644,0.440304 -0.466778,0.242169 -0.85073,0.542169 -0.853224,0.66667 -0.0025,0.124507 -0.113974,0.398874 -0.247732,0.609717 -0.134098,0.211383 -0.110145,0.543678 0.05342,0.740746 0.163141,0.196566 0.300118,0.472488 0.304402,0.613161 0.0043,0.140665 0.364203,0.440673 0.799812,0.666669 0.62755,0.325575 2.784646,0.410904 10.387828,0.410904 h 9.595813 v 1.037041 1.037043 H 28.227465 17.646032 l -1.270483,-1.246882 c -1.10664,-1.086085 -1.270481,-1.411394 -1.270481,-2.522553 0,-1.81914 0.894232,-3.301646 2.463823,-4.08466 0.705418,-0.35191 2.219552,-0.442247 7.412568,-0.442247 4.459027,0 6.861195,-0.117316 7.584126,-0.370372 1.294692,-0.453203 3.576633,-2.65832 3.576633,-3.456215 0,-0.320599 0.133326,-0.66531 0.296299,-0.766028 0.385087,-0.237997 0.385087,-2.132387 0,-2.370383 -0.162958,-0.100717 -0.296299,-0.44543 -0.296299,-0.766029 0,-0.923724 -2.492093,-3.233994 -3.488517,-3.233994 -0.460588,0 -0.972988,-0.13556 -1.13867,-0.301238 -0.193224,-0.193225 -3.161367,-0.272908 -8.277595,-0.222224 -7.324592,0.07256 -7.984502,0.121382 -8.076086,0.597538 -0.09303,0.483683 0.448016,0.51852 8.052698,0.51852 5.115342,0 8.220651,0.11038 8.335553,0.296298 0.100717,0.162958 0.446365,0.296298 0.768108,0.296298 0.736776,0 2.639318,1.872431 2.639318,2.597546 0,0.298765 0.163328,0.70654 0.362953,0.906166 0.286406,0.286404 0.286406,0.485524 0,0.944133 -0.199623,0.319649 -0.362953,0.787433 -0.362953,1.039523 0,0.495092 -1.562342,2.133911 -2.607274,2.734899 -0.465194,0.267555 -2.579149,0.370373 -7.615002,0.370373 -7.640116,0 -7.465444,-0.03496 -9.555608,1.912854 l -1.259266,1.173508 v 2.245809 c 0,2.025399 0.07998,2.337726 0.814819,3.182365 0.44815,0.515105 1.318877,1.210072 1.934949,1.54437 1.069628,0.580413 1.593965,0.607818 11.629693,0.607818 H 38.8089 v 1.18519 1.185192 H 27.318693 c -11.150304,0 -11.502843,-0.01754 -11.917326,-0.592596 z"
       id="path1" /></g></svg>
