<?xml version="1.0" encoding="UTF-8" standalone="no"?>
<!-- Created with Inkscape (http://www.inkscape.org/) -->

<svg
   width="50mm"
   height="50mm"
   viewBox="0 0 50 50"
   version="1.1"
   id="svg5"
   inkscape:version="1.4.3 (0d15f75, 2025-12-25)"
   sodipodi:docname="Nimble Climber.svg"
   inkscape:export-filename="circle50x50.png"
   inkscape:export-xdpi="96"
   inkscape:export-ydpi="96"
   xml:space="preserve"
   xmlns:inkscape="http://www.inkscape.org/namespaces/inkscape"
   xmlns:sodipodi="http://sodipodi.sourceforge.net/DTD/sodipodi-0.dtd"
   xmlns="http://www.w3.org/2000/svg"
   xmlns:svg="http://www.w3.org/2000/svg"><sodipodi:namedview
     id="namedview7"
     pagecolor="#505050"
     bordercolor="#eeeeee"
     borderopacity="1"
     inkscape:showpageshadow="0"
     inkscape:pageopacity="0"
     inkscape:pagecheckerboard="0"
     inkscape:deskcolor="#505050"
     inkscape:document-units="mm"
     showgrid="false"
     inkscape:zoom="2.0888418"
     inkscape:cx="142.90216"
     inkscape:cy="157.26418"
     inkscape:window-width="1920"
     inkscape:window-height="1009"
     inkscape:window-x="-8"
     inkscape:window-y="-8"
     inkscape:window-maximized="1"
     inkscape:current-layer="layer1" /><defs
     id="defs2" /><g
     inkscape:label="Layer 1"
     inkscape:groupmode="layer"
     id="layer1"><path
       style="baseline-shift:baseline;display:inline;overflow:visible;vector-effect:none;fill:currentColor;enable-background:accumulate;stop-color:#000000;stop-opacity:1;opacity:1"
       d="M 25,1.5117187 C 12.034381,1.5117187 1.5117188,12.034381 1.5117187,25 1.5117188,37.965619 12.034381,48.488281 25,48.488281 37.965619,48.488281 48.488281,37.965619 48.488281,25 48.488281,12.034381 37.965619,1.5117188 25,1.5117187 Z m 0,1.1191407 C 37.360866,2.6308594 47.369141,12.639134 47.369141,25 47.369141,37.360866 37.360866,47.369141 25,47.369141 12.639134,47.369141 2.6308594,37.360866 2.6308594,25 2.6308594,12.639134 12.639134,2.6308594 25,2.6308594 Z"
       id="path362" /><path
       style="fill:currentColor;stroke-width:1.57007;fill-opacity:1"
       d="m 31.131408,36.613578 c -1.017137,-1.040327 -1.043397,-1.289081 -0.22613,-2.142126 l 0.774425,-0.808324 h -2.803214 c -3.096331,0 -3.982234,-0.229374 -5.148776,-1.333098 -1.499648,-1.418893 -1.659864,-2.039987 -1.827565,-7.084824 -0.155516,-4.678202 -0.155704,-4.679309 -0.899502,-5.233584 -0.65798,-0.490327 -0.843229,-0.513274 -1.603005,-0.198564 -1.104591,0.457536 -1.39177,1.025829 -1.39177,2.754145 v 1.402922 h -1.246243 -1.246243 v -1.689041 c 0,-2.030509 0.559798,-3.337963 1.850777,-4.32264 2.134014,-1.627692 5.362835,-0.865701 6.650613,1.569522 0.588467,1.112806 0.637728,1.546519 0.637728,5.614793 v 4.408831 l 0.809525,0.809525 0.809525,0.809527 h 4.003067 c 3.220424,0 4.07047,-0.08122 4.347829,-0.415416 0.275056,-0.331421 0.275056,-0.499406 0,-0.830828 -0.261759,-0.3154 -0.97217,-0.415415 -2.950707,-0.415415 -4.702839,0 -5.356701,-0.682561 -5.359125,-5.594341 -0.0019,-3.794087 -0.282272,-4.905204 -1.609308,-6.377093 -2.03965,-2.262289 -4.879278,-2.780078 -7.561602,-1.378816 -2.126828,1.111068 -3.105173,2.768012 -3.28998,5.571971 l -0.138464,2.100949 h -1.246244 -1.246243 l 0.03124,-2.107677 c 0.05128,-3.458452 1.670747,-6.274815 4.490717,-7.809636 4.524935,-2.462778 9.994289,-0.746281 12.254432,3.845917 0.578992,1.176405 0.689997,1.876063 0.809481,5.102096 l 0.138463,3.738729 1.243285,0.08839 1.243285,0.08839 -0.620163,-0.660133 c -0.806062,-0.858015 -0.784621,-1.055603 0.21887,-2.017009 l 0.839033,-0.803845 3.454904,3.454902 3.454902,3.454904 -3.532343,3.501657 -3.532342,3.501657 z"
       id="path1" /></g></svg>
