<?xml version="1.0" encoding="UTF-8" standalone="no"?>
<!-- Created with Inkscape (http://www.inkscape.org/) -->

<svg
   width="50mm"
   height="50mm"
   viewBox="0 0 50 50"
   version="1.1"
   id="svg5"
   inkscape:version="1.4.3 (0d15f75, 2025-12-25)"
   sodipodi:docname="Off The Wall.svg"
   inkscape:export-filename="circle50x50.png"
   inkscape:export-xdpi="96"
   inkscape:export-ydpi="96"
   xml:space="preserve"
   xmlns:inkscape="http://www.inkscape.org/namespaces/inkscape"
   xmlns:sodipodi="http://sodipodi.sourceforge.net/DTD/sodipodi-0.dtd"
   xmlns="http://www.w3.org/2000/svg"
   xmlns:svg="http://www.w3.org/2000/svg"><sodipodi:namedview
     id="namedview7"
     pagecolor="#505050"
     bordercolor="#eeeeee"
     borderopacity="1"
     inkscape:showpageshadow="0"
     inkscape:pageopacity="0"
     inkscape:pagecheckerboard="0"
     inkscape:deskcolor="#505050"
     inkscape:document-units="mm"
     showgrid="false"
     inkscape:zoom="2.0888418"
     inkscape:cx="142.90216"
     inkscape:cy="157.26418"
     inkscape:window-width="1920"
     inkscape:window-height="1009"
     inkscape:window-x="-8"
     inkscape:window-y="-8"
     inkscape:window-maximized="1"
     inkscape:current-layer="layer1" /><defs
     id="defs2" /><g
     inkscape:label="Layer 1"
     inkscape:groupmode="layer"
     id="layer1"><circle
       style="fill:none;stroke:#ffffff;stroke-width:1.119;stroke-opacity:1"
       id="path362"
       cx="25"
       cy="25"
       r="22.928829" /><path
       style="fill:#ffffff;stroke-width:1.87734;fill-opacity:1"
       d="m 12.416605,38.947017 c 0,-2.114262 0.959446,-3.27588 10.927685,-13.230389 6.010228,-6.001945 10.927684,-11.288551 10.927684,-11.748011 0,-2.001433 -2.240133,-0.236361 -11.747771,9.256432 -10.07625,10.06052 -10.107598,10.084619 -10.107598,7.770542 0,-2.072674 0.780215,-3.099069 7.285125,-9.583808 4.006816,-3.994394 7.285121,-7.491138 7.285121,-7.770543 0,-0.279403 -0.797019,-0.508006 -1.771154,-0.508006 H 23.44454 l 1.555459,-1.655711 c 1.417596,-1.5089613 2.044172,-1.6557093 7.069426,-1.6557093 h 5.51397 v 5.5139683 c 0,5.025253 -0.146753,5.651831 -1.655709,7.069425 l -1.655712,1.55546 v -1.771154 c 0,-0.974138 -0.220132,-1.771157 -0.48918,-1.771157 -0.26905,0 -5.186509,4.690445 -10.927686,10.42321 -10.385461,10.370246 -10.438503,10.411432 -10.438503,8.105451 z"
       id="path1" /></g></svg>
