<?xml version="1.0" encoding="UTF-8" standalone="no"?>
<!-- Created with Inkscape (http://www.inkscape.org/) -->

<svg
   width="50mm"
   height="50mm"
   viewBox="0 0 50 50"
   version="1.1"
   id="svg5"
   inkscape:version="1.4.3 (0d15f75, 2025-12-25)"
   sodipodi:docname="Ready To Roll.svg"
   inkscape:export-filename="circle50x50.png"
   inkscape:export-xdpi="96"
   inkscape:export-ydpi="96"
   xml:space="preserve"
   xmlns:inkscape="http://www.inkscape.org/namespaces/inkscape"
   xmlns:sodipodi="http://sodipodi.sourceforge.net/DTD/sodipodi-0.dtd"
   xmlns="http://www.w3.org/2000/svg"
   xmlns:svg="http://www.w3.org/2000/svg"><sodipodi:namedview
     id="namedview7"
     pagecolor="#505050"
     bordercolor="#eeeeee"
     borderopacity="1"
     inkscape:showpageshadow="0"
     inkscape:pageopacity="0"
     inkscape:pagecheckerboard="0"
     inkscape:deskcolor="#505050"
     inkscape:document-units="mm"
     showgrid="false"
     inkscape:zoom="2.0888418"
     inkscape:cx="142.90216"
     inkscape:cy="157.26418"
     inkscape:window-width="1920"
     inkscape:window-height="1009"
     inkscape:window-x="-8"
     inkscape:window-y="-8"
     inkscape:window-maximized="1"
     inkscape:current-layer="layer1" /><defs
     id="defs2" /><g
     inkscape:label="Layer 1"
     inkscape:groupmode="layer"
     id="layer1"><path
       style="baseline-shift:baseline;display:inline;overflow:visible;vector-effect:none;fill:currentColor;enable-background:accumulate;stop-color:#000000;stop-opacity:1;opacity:1"
       d="M 25,1.5117187 C 12.034381,1.5117187 1.5117188,12.034381 1.5117187,25 1.5117188,37.965619 12.034381,48.488281 25,48.488281 37.965619,48.488281 48.488281,37.965619 48.488281,25 48.488281,12.034381 37.965619,1.5117188 25,1.5117187 Z m 0,1.1191407 C 37.360866,2.6308594 47.369141,12.639134 47.369141,25 47.369141,37.360866 37.360866,47.369141 25,47.369141 12.639134,47.369141 2.6308594,37.360866 2.6308594,25 2.6308594,12.639134 12.639134,2.6308594 25,2.6308594 Z"
       id="path362" /><path
       style="fill:currentColor;fill-opacity:1;stroke-width:1.67346"
       d="m 30.042872,33.548105 c -0.286359,-0.752369 -0.939884,-2.370686 -1.452277,-3.596259 -1.14268,-2.733127 -0.626508,-5.051747 0.537897,-2.416207 0.517829,1.172065 0.762607,1.365931 0.795809,0.63028 0.169076,-3.746429 -4.249804,-6.587421 -7.573074,-4.86889 -2.199519,1.137415 -3.005446,2.559219 -3.005446,5.302165 0,2.277551 -0.848868,2.847463 -1.35551,0.910061 -0.805076,-3.078615 1.879946,-7.176828 5.257417,-8.024519 2.185683,-0.548572 5.516306,0.8874 6.805235,2.934028 0.881233,1.399266 1.098758,2.521464 0.88132,4.546685 -0.361226,3.364502 0.324907,4.746943 1.297047,2.613326 1.525268,-3.347597 0.296048,-8.086752 -2.635018,-10.159097 -3.849846,-2.721947 -8.275072,-2.189711 -11.4017,1.371322 -1.537407,1.75101 -1.800587,2.522338 -1.800587,5.277187 0,3.460443 -0.844905,4.328247 -1.465047,1.504756 -1.172991,-5.340591 4.065091,-11.286735 9.916099,-11.256514 2.543086,0.01305 6.262274,2.216349 7.971343,4.722152 1.211445,1.776198 1.364446,2.559143 1.119877,5.730702 -0.266421,3.454912 -0.217156,3.638048 0.828157,3.078614 0.860692,-0.460628 1.111426,-1.260329 1.111426,-3.544805 0,-3.80225 -1.078489,-6.314165 -3.698762,-8.614795 -4.209905,-3.696345 -9.802248,-4.09241 -14.173675,-1.003816 -3.379061,2.387446 -4.86958,5.523027 -4.801626,10.101113 0.05506,3.70894 -0.496294,4.832713 -1.158571,2.361437 -0.970445,-3.621209 0.104592,-8.175022 2.662483,-11.278189 4.808019,-5.832962 13.852737,-5.976953 19.215276,-0.305905 2.362063,2.497952 3.135594,4.527741 3.135594,8.227961 0,1.602351 0.265662,2.913364 0.59036,2.913364 1.464412,0 0.361096,1.32084 -1.918668,2.296938 -4.688596,2.00746 -5.113908,2.048373 -5.685379,0.546905 z"
       id="path1" /></g></svg>
