<?xml version="1.0" encoding="UTF-8" standalone="no"?>
<!-- Created with Inkscape (http://www.inkscape.org/) -->

<svg
   width="50mm"
   height="50mm"
   viewBox="0 0 50 50"
   version="1.1"
   id="svg5"
   inkscape:version="1.4.3 (0d15f75, 2025-12-25)"
   sodipodi:docname="Slip and Slide.svg"
   inkscape:export-filename="circle50x50.png"
   inkscape:export-xdpi="96"
   inkscape:export-ydpi="96"
   xml:space="preserve"
   xmlns:inkscape="http://www.inkscape.org/namespaces/inkscape"
   xmlns:sodipodi="http://sodipodi.sourceforge.net/DTD/sodipodi-0.dtd"
   xmlns="http://www.w3.org/2000/svg"
   xmlns:svg="http://www.w3.org/2000/svg"><sodipodi:namedview
     id="namedview7"
     pagecolor="#505050"
     bordercolor="#eeeeee"
     borderopacity="1"
     inkscape:showpageshadow="0"
     inkscape:pageopacity="0"
     inkscape:pagecheckerboard="0"
     inkscape:deskcolor="#505050"
     inkscape:document-units="mm"
     showgrid="false"
     inkscape:zoom="2.0888418"
     inkscape:cx="142.90216"
     inkscape:cy="157.26418"
     inkscape:window-width="1920"
     inkscape:window-height="1009"
     inkscape:window-x="-8"
     inkscape:window-y="-8"
     inkscape:window-maximized="1"
     inkscape:current-layer="layer1" /><defs
     id="defs2" /><g
     inkscape:label="Layer 1"
     inkscape:groupmode="layer"
     id="layer1"><circle
       style="fill:none;stroke:#ffffff;stroke-width:1.119;stroke-opacity:1"
       id="path362"
       cx="25"
       cy="25"
       r="22.928829" /><path
       style="fill:#ffffff;fill-opacity:1;stroke-width:1.64865"
       d="m 32.26357,33.941607 c -0.409092,-0.50458 -0.540967,-0.892889 -0.363504,-1.070353 0.153175,-0.153176 0.278499,-0.383186 0.278499,-0.511141 0,-0.127951 -3.077014,-0.232642 -6.837811,-0.232642 -3.760797,0 -7.065045,-0.119856 -7.342773,-0.266356 -0.277727,-0.146499 -0.962972,-0.469016 -1.522768,-0.716712 -1.966866,-0.870294 -4.362042,-3.471193 -4.362042,-4.7367 0,-0.382881 -0.196293,-0.771472 -0.436206,-0.863534 -0.3646,-0.139905 -0.436203,-0.997644 -0.436203,-5.225324 v -5.057938 h 1.017809 1.017811 l 0.05368,3.707736 c 0.06924,4.781975 0.08005,4.956227 0.323122,5.199285 0.112636,0.112636 0.204802,0.498401 0.204802,0.857244 0,0.936914 1.372413,2.899772 2.591628,3.706611 1.580369,1.045838 2.451731,1.148621 10.751997,1.268283 6.887962,0.09929 7.728445,0.06043 8.215181,-0.380073 0.75123,-0.679855 0.68032,-1.065974 -0.302368,-1.646463 -0.740567,-0.437464 -1.791525,-0.498904 -8.534004,-0.498904 -8.520257,0 -9.056106,-0.0979 -10.132814,-1.851153 -0.500809,-0.815494 -0.551793,-1.401426 -0.484176,-5.56432 L 16.039,15.406309 h 0.872408 0.872409 l 0.08085,4.354634 c 0.07925,4.268112 0.09621,4.370673 0.854114,5.16175 l 0.773266,0.807116 h 6.366359 6.366362 l -0.179524,-0.817367 c -0.133853,-0.609447 -0.02722,-0.955196 0.419178,-1.359185 0.592433,-0.536146 0.628706,-0.513131 3.465322,2.19868 1.576643,1.507276 2.849804,2.897486 2.829249,3.089359 -0.03956,0.369387 -5.36718,5.907366 -5.67374,5.897784 -0.09884,-0.0031 -0.46859,-0.361953 -0.821692,-0.797473 z"
       id="path1" /></g></svg>
