<?xml version="1.0" encoding="UTF-8" standalone="no"?>
<!-- Created with Inkscape (http://www.inkscape.org/) -->

<svg
   width="50mm"
   height="50mm"
   viewBox="0 0 50 50"
   version="1.1"
   id="svg5"
   inkscape:version="1.4.3 (0d15f75, 2025-12-25)"
   sodipodi:docname="Sturdy Ankles.svg"
   inkscape:export-filename="circle50x50.png"
   inkscape:export-xdpi="96"
   inkscape:export-ydpi="96"
   xml:space="preserve"
   xmlns:inkscape="http://www.inkscape.org/namespaces/inkscape"
   xmlns:sodipodi="http://sodipodi.sourceforge.net/DTD/sodipodi-0.dtd"
   xmlns="http://www.w3.org/2000/svg"
   xmlns:svg="http://www.w3.org/2000/svg"><sodipodi:namedview
     id="namedview7"
     pagecolor="#505050"
     bordercolor="#eeeeee"
     borderopacity="1"
     inkscape:showpageshadow="0"
     inkscape:pageopacity="0"
     inkscape:pagecheckerboard="0"
     inkscape:deskcolor="#505050"
     inkscape:document-units="mm"
     showgrid="false"
     inkscape:zoom="2.0888418"
     inkscape:cx="142.90216"
     inkscape:cy="157.26418"
     inkscape:window-width="1920"
     inkscape:window-height="1009"
     inkscape:window-x="-8"
     inkscape:window-y="-8"
     inkscape:window-maximized="1"
     inkscape:current-layer="layer1" /><defs
     id="defs2" /><g
     inkscape:label="Layer 1"
     inkscape:groupmode="layer"
     id="layer1"><path
       style="baseline-shift:baseline;display:inline;overflow:visible;vector-effect:none;fill:currentColor;enable-background:accumulate;stop-color:#000000;stop-opacity:1;opacity:1"
       d="M 25,1.5117187 C 12.034381,1.5117187 1.5117188,12.034381 1.5117187,25 1.5117188,37.965619 12.034381,48.488281 25,48.488281 37.965619,48.488281 48.488281,37.965619 48.488281,25 48.488281,12.034381 37.965619,1.5117188 25,1.5117187 Z m 0,1.1191407 C 37.360866,2.6308594 47.369141,12.639134 47.369141,25 47.369141,37.360866 37.360866,47.369141 25,47.369141 12.639134,47.369141 2.6308594,37.360866 2.6308594,25 2.6308594,12.639134 12.639134,2.6308594 25,2.6308594 Z"
       id="path362" /><path
       style="fill:currentColor;stroke-width:2.28177;fill-opacity:1"
       d="m 20.867035,39.783913 c -3.960906,-3.975826 -4.562008,-5.093942 -3.301104,-6.140401 0.509319,-0.422696 0.774203,-0.361757 1.535238,0.353197 1.714168,1.610379 1.874038,1.237741 1.874038,-4.368197 v -5.232231 h 1.471688 1.471691 l -0.260784,6.320062 c -0.275187,6.669077 0.06966,8.97415 1.342556,8.97415 1.39829,0 1.609557,-0.855829 1.609557,-6.520164 v -5.554214 h 1.609918 1.609916 v 3.622313 c 0,3.720272 0.29054,4.291584 1.386647,2.726674 l 0.627332,-0.895641 1.097859,1.097859 1.097861,1.097861 -4.210673,4.225052 c -2.315871,2.32378 -4.398424,4.225053 -4.627896,4.225053 -0.229471,0 -2.1797,-1.769117 -4.333844,-3.931373 z m 12.261117,-16.09197 c 0.112332,-1.750749 0.215901,-1.922504 1.229489,-2.03913 1.078555,-0.124106 1.10682,-0.07528 1.10682,1.911776 0,2.005508 -0.02031,2.03913 -1.22949,2.03913 -1.215657,0 -1.228111,-0.02145 -1.106819,-1.911776 z M 26.609915,16.346697 V 9.455958 l 1.509299,0.124904 1.509296,0.124904 v 6.640909 6.640906 l -1.509296,0.124927 -1.509299,0.124904 z m -12.074376,2.817355 v -3.273303 l 1.106817,0.127346 c 1.097733,0.126296 1.106819,0.152126 1.106819,3.145948 0,2.993817 -0.0091,3.01964 -1.106819,3.145947 l -1.106817,0.127346 z m 6.439668,-6.414169 V 6.284714 h 1.453226 1.453227 l -0.214441,6.339048 -0.214464,6.339049 -1.238774,0.126113 -1.238774,0.126114 z"
       id="path1" /></g></svg>
