<?xml version="1.0" encoding="UTF-8" standalone="no"?>
<!-- Created with Inkscape (http://www.inkscape.org/) -->

<svg
   width="50mm"
   height="50mm"
   viewBox="0 0 50 50"
   version="1.1"
   id="svg5"
   inkscape:version="1.4.3 (0d15f75, 2025-12-25)"
   sodipodi:docname="Vaults on Vaults on Vaults.svg"
   inkscape:export-filename="circle50x50.png"
   inkscape:export-xdpi="96"
   inkscape:export-ydpi="96"
   xml:space="preserve"
   xmlns:inkscape="http://www.inkscape.org/namespaces/inkscape"
   xmlns:sodipodi="http://sodipodi.sourceforge.net/DTD/sodipodi-0.dtd"
   xmlns="http://www.w3.org/2000/svg"
   xmlns:svg="http://www.w3.org/2000/svg"><sodipodi:namedview
     id="namedview7"
     pagecolor="#505050"
     bordercolor="#eeeeee"
     borderopacity="1"
     inkscape:showpageshadow="0"
     inkscape:pageopacity="0"
     inkscape:pagecheckerboard="0"
     inkscape:deskcolor="#505050"
     inkscape:document-units="mm"
     showgrid="false"
     inkscape:zoom="2.0888418"
     inkscape:cx="142.90216"
     inkscape:cy="157.26418"
     inkscape:window-width="1920"
     inkscape:window-height="1009"
     inkscape:window-x="-8"
     inkscape:window-y="-8"
     inkscape:window-maximized="1"
     inkscape:current-layer="layer1" /><defs
     id="defs2" /><g
     inkscape:label="Layer 1"
     inkscape:groupmode="layer"
     id="layer1"><path
       style="baseline-shift:baseline;display:inline;overflow:visible;vector-effect:none;fill:currentColor;enable-background:accumulate;stop-color:#000000;stop-opacity:1;opacity:1"
       d="M 25,1.5117187 C 12.034381,1.5117187 1.5117188,12.034381 1.5117187,25 1.5117188,37.965619 12.034381,48.488281 25,48.488281 37.965619,48.488281 48.488281,37.965619 48.488281,25 48.488281,12.034381 37.965619,1.5117188 25,1.5117187 Z m 0,1.1191407 C 37.360866,2.6308594 47.369141,12.639134 47.369141,25 47.369141,37.360866 37.360866,47.369141 25,47.369141 12.639134,47.369141 2.6308594,37.360866 2.6308594,25 2.6308594,12.639134 12.639134,2.6308594 25,2.6308594 Z"
       id="path362" /><path
       style="fill:currentColor;fill-opacity:1;stroke-width:0.93687"
       d="m 12.899956,39.724493 v -1.253345 l 9.006312,-3.249116 C 26.85974,33.435019 31.105881,31.8696 31.342138,31.743325 31.707994,31.54778 28.692562,30.378161 14.304611,25.134848 12.96247,24.645739 12.899956,24.56241 12.899956,23.262466 v -1.36049 L 23.14961,18.166121 c 5.637309,-2.054719 10.424227,-3.946201 10.637594,-4.203293 0.472749,-0.569628 -0.268885,-1.185326 -1.056836,-0.877375 -1.954771,0.763974 -19.456633,7.070452 -19.622058,7.070452 -0.114595,0 -0.208354,-0.563643 -0.208354,-1.25254 v -1.252541 l 3.057189,-1.101813 c 1.681454,-0.605996 5.495381,-1.998812 8.475395,-3.095143 l 5.418207,-1.993331 -1.286871,-0.662232 -1.286871,-0.662232 1.652534,-0.5569545 1.652534,-0.556956 3.139815,1.4537125 c 1.726899,0.799543 3.239997,1.55708 3.36244,1.683416 0.122443,0.126337 -0.484134,1.721581 -1.347948,3.544989 -1.479537,3.123123 -1.653886,3.348012 -3.007944,3.879902 -0.790555,0.310538 -1.496316,0.505671 -1.568357,0.43363 -0.07204,-0.07205 0.106892,-0.590992 0.397633,-1.15322 0.357291,-0.690926 0.404513,-1.022235 0.145701,-1.022235 -0.210604,0 -3.73238,1.21841 -7.826169,2.70758 l -7.443254,2.70758 1.420839,0.514862 c 0.781462,0.283174 5.080241,1.853431 9.552844,3.489459 l 8.132003,2.974597 0.103075,1.247687 c 0.09418,1.140078 0.0087,1.286474 -0.991521,1.697415 -1.786576,0.73404 -21.289634,7.7963 -21.530174,7.7963 -0.121604,0 -0.2211,-0.564005 -0.2211,-1.253344 z m 0,-4.170641 v -1.354323 l 5.866497,-2.119482 c 3.226573,-1.165714 6.116749,-2.104607 6.422612,-2.086427 0.305863,0.01818 1.172759,0.303328 1.926436,0.63366 l 1.370322,0.600604 -7.792933,2.840146 -7.792934,2.840144 z M 27.71183,25.804489 c -4.305316,-1.561601 -7.726063,-2.931054 -7.601658,-3.043226 0.124404,-0.112174 0.90487,-0.428319 1.734369,-0.702548 l 1.50818,-0.498595 5.928225,2.141678 c 3.260523,1.177923 6.049916,2.255292 6.198652,2.394153 0.148735,0.138862 0.223099,0.768928 0.165253,1.400146 l -0.105175,1.147669 z"
       id="path1" /></g></svg>
