<?xml version="1.0" encoding="UTF-8" standalone="no"?>
<!-- Created with Inkscape (http://www.inkscape.org/) -->

<svg
   width="50mm"
   height="50mm"
   viewBox="0 0 50 50"
   version="1.1"
   id="svg5"
   inkscape:version="1.4.3 (0d15f75, 2025-12-25)"
   sodipodi:docname="Vigorous Vaulter.svg"
   inkscape:export-filename="circle50x50.png"
   inkscape:export-xdpi="96"
   inkscape:export-ydpi="96"
   xml:space="preserve"
   xmlns:inkscape="http://www.inkscape.org/namespaces/inkscape"
   xmlns:sodipodi="http://sodipodi.sourceforge.net/DTD/sodipodi-0.dtd"
   xmlns="http://www.w3.org/2000/svg"
   xmlns:svg="http://www.w3.org/2000/svg"><sodipodi:namedview
     id="namedview7"
     pagecolor="#505050"
     bordercolor="#eeeeee"
     borderopacity="1"
     inkscape:showpageshadow="0"
     inkscape:pageopacity="0"
     inkscape:pagecheckerboard="0"
     inkscape:deskcolor="#505050"
     inkscape:document-units="mm"
     showgrid="false"
     inkscape:zoom="2.0888418"
     inkscape:cx="107.47583"
     inkscape:cy="157.26418"
     inkscape:window-width="1920"
     inkscape:window-height="1009"
     inkscape:window-x="-8"
     inkscape:window-y="-8"
     inkscape:window-maximized="1"
     inkscape:current-layer="layer1" /><defs
     id="defs2" /><g
     inkscape:label="Layer 1"
     inkscape:groupmode="layer"
     id="layer1"><circle
       style="fill:none;stroke:#ffffff;stroke-width:1.119;stroke-opacity:1"
       id="path362"
       cx="25"
       cy="25"
       r="22.928829" /><path
       style="fill:#ffffff;stroke-width:1.81268;fill-opacity:1"
       d="M 24.350096,35.134041 C 13.491698,31.131253 12.652041,30.712588 14.128894,30.0376 c 1.370873,-0.626552 2.648657,-0.361107 8.632873,1.79337 13.851876,4.987047 14.377772,5.226217 14.377772,6.538827 0,0.67815 -0.215823,1.208764 -0.479605,1.179141 -0.263781,-0.02962 -5.80321,-2.016324 -12.309838,-4.414897 z m 3.363392,-3.409642 c -5.008472,-1.821802 -9.109089,-3.496993 -9.112479,-3.722646 -0.0034,-0.225654 0.711407,-0.59038 1.588439,-0.8105 1.064231,-0.267105 4.144988,0.507428 9.262546,2.328697 6.705625,2.38644 7.669172,2.909485 7.677744,4.167729 0.0054,0.791346 -0.06214,1.418623 -0.150072,1.393949 -0.08793,-0.02467 -4.257708,-1.535428 -9.266182,-3.357229 z M 11.570443,28.594401 c 0.02224,-1.866383 1.713531,-2.952182 12.218639,-7.844282 9.619899,-4.479869 13.239951,-6.726209 10.839506,-6.726209 -0.384512,0 -5.313888,2.139449 -10.954169,4.75433 -8.993866,4.16963 -10.203226,4.582511 -9.833596,3.357228 0.599812,-1.988302 0.496224,-1.920912 8.590855,-5.588893 7.717714,-3.497185 9.307883,-4.441083 7.481825,-4.441083 -1.589542,0 -1.328284,-1.195174 0.35171,-1.608963 1.508952,-0.37166 8.078123,1.573881 8.163337,2.417673 0.02715,0.268936 -0.440002,2.041475 -1.038136,3.938974 -0.771146,2.446357 -1.547361,3.65952 -2.668214,4.170216 -1.430307,0.651692 -1.548304,0.596344 -1.240226,-0.581746 0.187258,-0.716078 0.247258,-1.301959 0.133322,-1.301959 -0.244579,0 -19.304232,8.813956 -20.935578,9.68146 -0.794639,0.422566 -1.116235,0.356829 -1.109284,-0.226746 z"
       id="path1" /></g></svg>
