<?xml version="1.0" encoding="UTF-8" standalone="no"?>
<!-- Created with Inkscape (http://www.inkscape.org/) -->

<svg
   width="50mm"
   height="50mm"
   viewBox="0 0 50 50"
   version="1.1"
   id="svg5"
   inkscape:version="1.4.3 (0d15f75, 2025-12-25)"
   sodipodi:docname="Youthful Lungs.svg"
   inkscape:export-filename="circle50x50.png"
   inkscape:export-xdpi="96"
   inkscape:export-ydpi="96"
   xml:space="preserve"
   xmlns:inkscape="http://www.inkscape.org/namespaces/inkscape"
   xmlns:sodipodi="http://sodipodi.sourceforge.net/DTD/sodipodi-0.dtd"
   xmlns="http://www.w3.org/2000/svg"
   xmlns:svg="http://www.w3.org/2000/svg"><sodipodi:namedview
     id="namedview7"
     pagecolor="#505050"
     bordercolor="#eeeeee"
     borderopacity="1"
     inkscape:showpageshadow="0"
     inkscape:pageopacity="0"
     inkscape:pagecheckerboard="0"
     inkscape:deskcolor="#505050"
     inkscape:document-units="mm"
     showgrid="false"
     inkscape:zoom="2.0888418"
     inkscape:cx="142.90216"
     inkscape:cy="157.26418"
     inkscape:window-width="1920"
     inkscape:window-height="1009"
     inkscape:window-x="-8"
     inkscape:window-y="-8"
     inkscape:window-maximized="1"
     inkscape:current-layer="layer1" /><defs
     id="defs2" /><g
     inkscape:label="Layer 1"
     inkscape:groupmode="layer"
     id="layer1"><path
       style="baseline-shift:baseline;display:inline;overflow:visible;vector-effect:none;fill:currentColor;enable-background:accumulate;stop-color:#000000;stop-opacity:1;opacity:1"
       d="M 25,1.5117187 C 12.034381,1.5117187 1.5117188,12.034381 1.5117187,25 1.5117188,37.965619 12.034381,48.488281 25,48.488281 37.965619,48.488281 48.488281,37.965619 48.488281,25 48.488281,12.034381 37.965619,1.5117188 25,1.5117187 Z m 0,1.1191407 C 37.360866,2.6308594 47.369141,12.639134 47.369141,25 47.369141,37.360866 37.360866,47.369141 25,47.369141 12.639134,47.369141 2.6308594,37.360866 2.6308594,25 2.6308594,12.639134 12.639134,2.6308594 25,2.6308594 Z"
       id="path362" /><path
       style="fill:currentColor;fill-opacity:1;stroke-width:1.60357"
       d="m 11.786376,38.288053 c -0.791897,-0.791897 -0.265251,-1.858999 0.923196,-1.870599 3.520315,-0.03436 8.66268,-4.126737 10.39484,-8.272379 0.524899,-1.256261 0.777788,-4.258518 0.777788,-9.23381 0,-6.99517 0.05787,-7.372305 1.131404,-7.372305 1.073527,0 1.131406,0.377135 1.131406,7.372305 0,4.975292 0.252888,7.977549 0.777786,9.23381 1.741713,4.168504 6.876654,8.23873 10.43632,8.272379 0.947471,0.009 1.258571,0.28874 1.114606,1.002403 -0.254833,1.263256 -3.210698,1.052788 -6.129886,-0.43647 -1.958827,-0.999319 -5.370742,-4.342047 -6.693061,-6.557336 -0.624446,-1.046141 -0.649895,-1.046141 -1.274341,0 -1.329396,2.227144 -4.737369,5.558809 -6.678376,6.528834 -2.307228,1.153048 -5.395382,1.84947 -5.911682,1.333168 z m 0.01721,-3.94272 c -0.891167,-0.891167 -0.213497,-1.778225 1.621468,-2.122466 2.735359,-0.513158 5.607701,-3.525879 6.413825,-6.727288 0.357014,-1.41783 0.649116,-5.138089 0.649116,-8.267246 0,-4.680085 0.150527,-5.689373 0.848555,-5.689373 0.710221,0 0.848553,1.184376 0.848553,7.26516 0,6.513776 -0.136127,7.523013 -1.316262,9.75837 -1.808224,3.425068 -7.67838,7.169718 -9.065255,5.782843 z m 23.780171,-0.190455 c -2.56516,-0.765684 -5.273504,-3.166397 -6.552311,-5.808063 -1.016985,-2.10081 -1.189316,-3.496527 -1.189316,-9.632327 0,-6.001112 0.138885,-7.175528 0.848553,-7.175528 0.698023,0 0.848555,1.009288 0.848555,5.689373 0,3.129157 0.292102,6.849416 0.649115,8.267246 0.810198,3.217582 3.677256,6.213904 6.442158,6.732602 1.399376,0.262525 1.964672,0.646093 1.846876,1.253152 -0.215479,1.110454 -0.897818,1.269281 -2.89363,0.673545 z M 11.436741,29.41992 c 0,-0.432974 0.644311,-0.948939 1.431804,-1.146587 2.742435,-0.688307 3.655048,-3.275931 3.657405,-10.370217 0.0018,-5.278953 0.146806,-6.364156 0.850668,-6.364156 0.707324,0 0.848555,1.134527 0.848555,6.816525 0,7.285012 -0.535977,9.277111 -2.951155,10.968768 -1.568044,1.098301 -3.837277,1.154876 -3.837277,0.09567 z m 23.31645,-0.09567 c -2.415179,-1.691657 -2.951155,-3.683757 -2.951155,-10.968768 0,-5.681999 0.141226,-6.816525 0.848555,-6.816525 0.70386,0 0.848913,1.085202 0.850668,6.364155 0.0024,7.094287 0.914969,9.681911 3.657405,10.370218 0.787492,0.197647 1.431804,0.713613 1.431804,1.146587 0,1.059209 -2.269233,1.002633 -3.837277,-0.09567 z"
       id="path1" /></g></svg>
